/* XPM */
static char *result[] = {
/* columns rows colors chars-per-pixel */
"45 45 221 2 ",
"   c #040404",
".  c #0D0203",
"X  c #0E0B04",
"o  c #0D090B",
"O  c #070509",
"+  c #120303",
"@  c #1B0302",
"#  c #130409",
"$  c #1B0A0C",
"%  c #150A06",
"&  c #030514",
"*  c #0C0D11",
"=  c #181213",
"-  c #240201",
";  c #200900",
":  c #251312",
">  c #2A1214",
",  c #271C1B",
"<  c #371C1D",
"1  c #3B331A",
"2  c #292112",
"3  c #131721",
"4  c #1C2229",
"5  c #252725",
"6  c #3A2622",
"7  c #3B2D2C",
"8  c #382628",
"9  c #373021",
"0  c #3B2D31",
"q  c #3A3337",
"w  c #2A2532",
"e  c #401D1E",
"r  c #531E1F",
"t  c #57281C",
"y  c #4B3A19",
"u  c #61241F",
"i  c #4C2C2C",
"p  c #442928",
"a  c #532C2C",
"s  c #592826",
"d  c #4F3C21",
"f  c #4B322E",
"g  c #493228",
"h  c #563728",
"j  c #452C35",
"k  c #592D30",
"l  c #443235",
"z  c #433C3D",
"x  c #4B3639",
"c  c #5C3534",
"v  c #5F3C3C",
"b  c #573735",
"n  c #642824",
"m  c #622725",
"M  c #643D36",
"N  c #683C3A",
"B  c #554726",
"V  c #5A503B",
"C  c #63463A",
"Z  c #784A3C",
"A  c #795137",
"S  c #563F42",
"D  c #4A3A43",
"F  c #4C4445",
"G  c #5B4B4B",
"H  c #564746",
"J  c #5C524B",
"K  c #474958",
"L  c #5B4C52",
"P  c #565453",
"I  c #5B565A",
"U  c #654641",
"Y  c #6A4B44",
"T  c #624D4D",
"R  c #6A4749",
"E  c #754445",
"W  c #6C524E",
"Q  c #6F584F",
"!  c #72524C",
"~  c #785749",
"^  c #6C5454",
"/  c #61525C",
"(  c #6A585D",
")  c #735654",
"_  c #724E54",
"`  c #7A6559",
"'  c #7B664D",
"]  c #6B5861",
"[  c #7C5E6A",
"{  c #5A616B",
"}  c #79666A",
"|  c #6C666F",
" . c #8A593A",
".. c #86643A",
"X. c #854B4B",
"o. c #924D47",
"O. c #84544E",
"+. c #895345",
"@. c #9C544C",
"#. c #8D5A58",
"$. c #8B5656",
"%. c #975855",
"&. c #8C4A50",
"*. c #B24F4F",
"=. c #A8524A",
"-. c #BA554B",
";. c #A74E53",
":. c #A55756",
">. c #B25D54",
",. c #866445",
"<. c #8C6654",
"1. c #A7615B",
"2. c #885963",
"3. c #9A5863",
"4. c #A75765",
"5. c #886A65",
"6. c #996364",
"7. c #886A7B",
"8. c #8E727D",
"9. c #96776F",
"0. c #A07D6B",
"q. c #AD776E",
"w. c #A67977",
"e. c #BB7978",
"r. c #B5686D",
"t. c #C9655B",
"y. c #DC6E5D",
"u. c #E26F5B",
"i. c #E2715F",
"p. c #C56B69",
"a. c #DB6E65",
"s. c #D86E6F",
"d. c #C9756F",
"f. c #DC7365",
"g. c #D3766E",
"h. c #DD746B",
"j. c #D57A6D",
"k. c #DC786A",
"l. c #C97A76",
"z. c #D37672",
"x. c #DC7671",
"c. c #D17C73",
"v. c #D07A78",
"b. c #E36D61",
"n. c #E27363",
"m. c #E3736A",
"M. c #E17A6C",
"N. c #E97368",
"B. c #B2865F",
"V. c #9F8076",
"C. c #B69066",
"Z. c #A9877A",
"A. c #B28D70",
"S. c #BD917C",
"D. c #AF8966",
"F. c #C8857D",
"G. c #D1807C",
"H. c #8C6D81",
"J. c #987882",
"K. c #877483",
"L. c #9A8486",
"P. c #A98F8A",
"I. c #A58A85",
"U. c #B98688",
"Y. c #AD928C",
"T. c #AF9D8E",
"R. c #AE9894",
"E. c #B59995",
"W. c #B49185",
"Q. c #B7A88B",
"!. c #BCA196",
"~. c #AB96A7",
"^. c #B896AC",
"/. c #BE9FB3",
"(. c #AC97B0",
"). c #BFA6A1",
"_. c #CC8F8F",
"`. c #D88B86",
"'. c #C99899",
"]. c #D99793",
"[. c #CAA38C",
"{. c #C3A593",
"}. c #C4A59C",
"|. c #CAA999",
" X c #D3AC95",
".X c #E1BB9C",
"XX c #C997AA",
"oX c #C7A6A4",
"OX c #DAABA4",
"+X c #DBBDA0",
"@X c #CDADBC",
"#X c #D5A9B5",
"$X c #D9BAB9",
"%X c #CEB4AB",
"&X c #E4B6BD",
"*X c #EFB8B1",
"=X c #E9C3A6",
"-X c #E8C8B8",
";X c #F5CCB7",
":X c #E9D4B8",
">X c #F3D1B5",
",X c #F4D3BC",
"<X c #F9D4B6",
"1X c #BDABC4",
"2X c #C3ABC7",
"3X c #CBB2CD",
"4X c #C7B2C7",
"5X c #CABCD4",
"6X c #C6B8D9",
"7X c #D2B0C5",
"8X c #D7CADA",
"9X c #FDC7C5",
"0X c #EFD4C6",
"qX c #F7D7C7",
"wX c #FCD3D7",
"eX c #D6CAE7",
"rX c #DCD2E0",
"tX c #E7D6E4",
"yX c #F3EBF9",
"uX c #ECE4EA",
"iX c None",
/* pixels */
"iXiXiXiXiXiXiXiXiXiXiXiXiXiXiXiXiXiXiXiXiXiXiXiXiXiXiXiXiXiXiXiXiXiXiXiXiXiXiXiXiXiXiXiXiX",
"iXiXiXiXiXiXiXiXiXiXiXiXiXiXiXiXiXiXiXiXiXiXiXiXiXiXiXiXiXiXiXiXiXiXiXiXiXiXiXiXiXiXiXiXiX",
"iXiXiXiXiXiXiXiXiXiXiXiXiXiXiXiXiXiXiXiXiXiXiXiXiXiXiXiXiXiXiXiXiXiXiXiXiXiXiXiXiXiXiXiXiX",
"iXiXiXiXiXiXiXiXiXiXiXiXiXiXiXiXiXiXiXiXiXiXiXiXiXiXiXiXiXiXiXiXiXiXiXiXiXiXiXiXiXiXiXiXiX",
"iXiXiXiXiXiXiXiXiXiXiXiXiXiXiXiXiXiXiXiXiXiXiXiXiXiXiXiXiXiXiXiXiXiXiXiXiXiXiXiXiXiXiXiXiX",
"iXiXiXiXiXiXiXiXiXiXiXiXiXiXiXiXiXiXiXiXiXiXiXiXiXiXiXiXiXiXiXiXiXiXiXiXiXiXiXiXiXiXiXiXiX",
"iXiXiXiXiXiXiXiXiXiXiXiXiXiXiXiXiXiXiXiXiXiXiXiXiXiXiXiXiXiXiXiXiXiXiXiXiXiXiXiXiXiXiXiXiX",
"iXiXiXiXiXiXiXiXiXiXiXiXiXiXiXiXiXiXiXiXiXiXiXiXiXiXiXiXiXiXiXiXiXiXiXiXiXiXiXiXiXiXiXiXiX",
"iXiXiXiXiXiXiXiXiXiXiXiXiXiXiXiXiXiXiXiXiXiXiXiXiXiXiXiXiXiXiXiXiXiXiXiXiXiXiXiXiXiXiXiXiX",
"iXiXiXiXiXiXiXiXiXiXiXiXiXiXiXiXiXa k s m n u n s s a iXiXiXiXiXiXiXiXiXiXiXiXiXiXiXiXiXiX",
"iXiXiXiXiXiXiXiXiXiXiXiXiXiXj i s S.l.l.z.z.z.c.v.F.q.a i iXiXiXiXiXiXiXiXiXiXiXiXiXiXiXiX",
"iXiXiXiXiXiXiXiXiXiXiXiXiXp $.r.p.s.h.a.m.m.a.f.f.M.h.p.&._ iXiXiXiXiXiXiXiXiXiXiXiXiXiXiX",
"iXiXiXiXiXiXiXiXiXiXiXiXiXa 3.p.s.m.m.n.b.N.m.n.i.i.i.m.;.E j iXiXiXiXiXiXiXiXiXiXiXiXiXiX",
"iXiXiXiXiXiXiXiXiXiXiXiXiXk r.p.m.m.u.n.n.h.a.a.i.i.i.h.d.$.x iXiXiXiXiXiXiXiXiXiXiXiXiXiX",
"iXiXiXiXiXiXiXiXiXiXiXiXiXr `.x.n.n.y.h.j.z.x.h.f.f.n.k.c.%.c iXiXiXiXiXiXiXiXiXiXiXiXiXiX",
"iXiXiXiXiXiXiXiXiXiXiXiXa m d.M.n.n.f.j.v.d.v.g.j.k.f.f.j.@.c iXiXiXiXiXiXiXiXiXiXiXiXiXiX",
"iXiXiXiXiXiXiXiXiXiXiXj M %.=.t.n.k.j.].9X9X9X*X].s.a.a.-.@.O.b iXiXiXiXiXiXiXiXiXiXiXiXiX",
"iXiXiXiXiXiXiXiXiXiXiX> c %.-.-.t.t.`.].wXoX&XwX_.l.p.t.-.;.$.< iXiXiXiXiXiXiXiXiXiXiXiXiX",
"iXiXiXiXiXiXiXiXiXiXiX: e $.:.=.>.:.OX$XwX2.oXwX#Xr.4.;.*.:.$.@ iXiXiXiXiXiXiXiXiXiXiXiXiX",
"iXiXiXiXiXiXiXiXiXiXiX# < #.1.%.3.2.XX/.} [ [ 7.7XJ.3.4.;.@.O.@ iXiXiXiXiXiXiXiXiXiXiXiXiX",
"iXiXiXiXiXiXiXiXiXiXiX# > N %.e.'.^.2X2X(.^.^.~.4X^.^.XX3.&.M @ iXiXiXiXiXiXiXiXiXiXiXiXiX",
"iXiXiXiXiXiXiXiXiXiXq $ > a #.U.#X2X6X6X6X2X7X7X5X2X2X7X2.E c @ 7 iXiXiXiXiXiXiXiXiXiXiXiX",
"iXiXiXiXiXiXiXiXiXiX= T U M R 5.H.3XeXeXeXeX8XtX8X6X1XH.R N c ! 7 , iXiXiXiXiXiXiXiXiXiXiX",
"iXiXiXiXiXiXiXiXiXiXO Z.I.^ l 7 D 2XtXyXyXyXuXtXuX5X(.j i C ~ oXl . iXiXiXiXiXiXiXiXiXiXiX",
"iXiXiXiXiXiXiXiXiXiXX Y.w.g Q Q ! _ ( L l l l x / / ] ^ ^ C g R.7 o iXiXiXiXiXiXiXiXiXiXiX",
"iXiXiXiXiXiXiXiXiXiXiX7 p f P.5.E W.C ^ I.P.L.L.F J.J.) Y.<.g 8 iXiXiXiXiXiXiXiXiXiXiXiXiX",
"iXiXiXiXiXiXiXiXiXiXiX% : 6 }.V.,. Xh C }.OX|.%Xp Y.R.} }.5.6 . iXiXiXiXiXiXiXiXiXiXiXiXiX",
"iXiXiXiXiXiXiXiXiXiXiXiXiX. !.|.[.qXh f ,X>X>X:X- oXqX!.).( . iXiXiXiXiXiXiXiXiXiXiXiXiXiX",
"iXiXiXiXiXiXiXiXiXiXiXiXiXiX+ ) [.>X,X0X,X<X<X>X>XqX-X}.@ : iXiXiXiXiXiXiXiXiXiXiXiXiXiXiX",
"iXiXiXiXiXiXiXiXiXiXiXiXiXiX+ C V.=X-X0XqX.X=X<X>X=XOXV.@ $ iXiXiXiXiXiXiXiXiXiXiXiXiXiXiX",
"iXiXiXiXiXiXiXiXiXiXiXiXiXiX+ g ~  X-X0X-X X.X-X<X XF.~ ; X iXiXiXiXiXiXiXiXiXiXiXiXiXiXiX",
"iXiXiXiXiXiXiXiXiXiXiXiXiXX y ,.B.A h R |.Q.{.[.t A ..A.d 2   iXiXiXiXiXiXiXiXiXiXiXiXiXiX",
"iXiXiXiXiXiXiXiXiXiXiXiXG 1 y ' C. .q.w.C <.Y R Z... .F.B 1 5 iXiXiXiXiXiXiXiXiXiXiXiXiXiX",
"iXiXiXiXiXiXiXiXiXiXiX} Q V d ..B. .F.S.b f b R '.<...B.y B V ` iXiXiXiXiXiXiXiXiXiXiXiXiX",
"iXiXiXiXiXiXiXiXiXiXT -X-XQ.B C E o.o.6.oXx H.#XO.+. .O.h ' Q.:X9.U iXiXiXiXiXiXiXiXiXiXiX",
"iXiXiXiXiXiXiXiXiXiXJ $X0X0X@ @ - Z X.6.7Xq K.@X~ Z C - ; ` :X:X5.^ iXiXiXiXiXiXiXiXiXiXiX",
"iXiXiXiXiXiXiXiXiXiXiXR.E.R.# : 6 p i S } w K | x i p p @ H Q.T.9.iXiXiXiXiXiXiXiXiXiXiXiX",
"iXiXiXiXiXiXiXiXiXiXiXiXT G . 0 I   # o & & & & # % > ( # , J T iXiXiXiXiXiXiXiXiXiXiXiXiX",
"iXiXiXiXiXiXiXiXiXiXiXiXiXiX# 8 q V I { { K K { I F z D . = iXiXiXiXiXiXiXiXiXiXiXiXiXiXiX",
"iXiXiXiXiXiXiXiXiXiXiXiXiXiX# 0 J P q w 4 3 4 4 4 F I / # . iXiXiXiXiXiXiXiXiXiXiXiXiXiXiX",
"iXiXiXiXiXiXiXiXiXiXiXiXiXiX+ 8 G L = O   *   O O F H L # iXiXiXiXiXiXiXiXiXiXiXiXiXiXiXiX",
"iXiXiXiXiXiXiXiXiXiXiXiXiXiXiXiX% + iXiXiXiXiXiXiXo . + iXiXiXiXiXiXiXiXiXiXiXiXiXiXiXiXiX",
"iXiXiXiXiXiXiXiXiXiXiXiXiXiXiXiXiXiXiXiXiXiXiXiXiXiXiXiXiXiXiXiXiXiXiXiXiXiXiXiXiXiXiXiXiX",
"iXiXiXiXiXiXiXiXiXiXiXiXiXiXiXiXiXiXiXiXiXiXiXiXiXiXiXiXiXiXiXiXiXiXiXiXiXiXiXiXiXiXiXiXiX",
"iXiXiXiXiXiXiXiXiXiXiXiXiXiXiXiXiXiXiXiXiXiXiXiXiXiXiXiXiXiXiXiXiXiXiXiXiXiXiXiXiXiXiXiXiX"
};
