/* XPM */
static char *result[] = {
/* columns rows colors chars-per-pixel */
"40 40 212 2 ",
"   c #0E0100",
".  c #140201",
"X  c #1B0201",
"o  c #1E0C00",
"O  c #130B00",
"+  c #1E1400",
"@  c #240201",
"#  c #2D0101",
"$  c #250D00",
"%  c #330101",
"&  c #3B0101",
"*  c #3C0C00",
"=  c #350E00",
"-  c #231301",
";  c #2C1B00",
":  c #271601",
">  c #351500",
",  c #3F1100",
"<  c #2F2A00",
"1  c #352502",
"2  c #3B2101",
"3  c #430101",
"4  c #4B0202",
"5  c #430A04",
"6  c #4B080E",
"7  c #520101",
"8  c #5B0102",
"9  c #431400",
"0  c #5E1B04",
"q  c #640301",
"w  c #690200",
"e  c #6C0D00",
"r  c #740202",
"t  c #7C0201",
"y  c #720B02",
"u  c #7C0D00",
"i  c #7E030A",
"p  c #790608",
"a  c #651B02",
"s  c #791700",
"d  c #740E12",
"f  c #7E1617",
"g  c #412403",
"h  c #442D02",
"j  c #4C2602",
"k  c #5F2B00",
"l  c #4A3300",
"z  c #513602",
"x  c #513F0B",
"c  c #672D01",
"v  c #7C2E01",
"b  c #6C3801",
"n  c #7A3B04",
"m  c #741E20",
"M  c #752828",
"N  c #7C3B3D",
"B  c #75373A",
"V  c #4F4003",
"C  c #544300",
"Z  c #5A4202",
"A  c #5D5708",
"S  c #684C04",
"D  c #7F4901",
"F  c #655408",
"G  c #695407",
"H  c #755B01",
"J  c #795C06",
"K  c #6B6204",
"L  c #6F630A",
"P  c #776A07",
"I  c #74710C",
"U  c #7F6210",
"Y  c #6D443C",
"T  c #74413D",
"R  c #764249",
"E  c #840101",
"W  c #8B0101",
"Q  c #820B02",
"!  c #8B0A03",
"~  c #85060A",
"^  c #930201",
"/  c #9B0201",
"(  c #9C0C01",
")  c #9C0309",
"_  c #940806",
"`  c #841100",
"'  c #9B1100",
"]  c #941A00",
"[  c #9A0F10",
"{  c #8E1517",
"}  c #931515",
"|  c #A30102",
" . c #AB0102",
".. c #A70B00",
"X. c #AE0209",
"o. c #AB0807",
"O. c #B30202",
"+. c #BB0202",
"@. c #B50803",
"#. c #A11200",
"$. c #A11013",
"%. c #B1191D",
"&. c #8C2D02",
"*. c #842802",
"=. c #9C2801",
"-. c #8B3501",
";. c #863903",
":. c #913802",
">. c #A42703",
",. c #A73903",
"<. c #851A21",
"1. c #8B2928",
"2. c #853D38",
"3. c #C20203",
"4. c #834F02",
"5. c #83510A",
"6. c #945509",
"7. c #9C5907",
"8. c #984A0A",
"9. c #B9440C",
"0. c #A95905",
"q. c #8D6401",
"w. c #956B05",
"e. c #8A7B05",
"r. c #8A740B",
"t. c #937E0B",
"y. c #977805",
"u. c #877716",
"i. c #A46806",
"p. c #B77909",
"a. c #AA6611",
"s. c #C06707",
"d. c #924D4B",
"f. c #815D60",
"g. c #978106",
"h. c #9B8E03",
"j. c #9D8D0E",
"k. c #988409",
"l. c #9D9301",
"z. c #998511",
"x. c #979010",
"c. c #AC8A0D",
"v. c #A6890B",
"b. c #BA850B",
"n. c #A59B03",
"m. c #AC9E06",
"M. c #A9950D",
"N. c #AE9E0A",
"B. c #A3970D",
"V. c #B59B09",
"C. c #A78B14",
"Z. c #ABA201",
"A. c #B3A404",
"S. c #B5AC02",
"D. c #B8A808",
"F. c #BCB502",
"G. c #BFBA0D",
"H. c #ABA411",
"J. c #B9A315",
"K. c #CB860D",
"L. c #DE8D0E",
"P. c #CC930B",
"I. c #C79C0E",
"U. c #D1900B",
"Y. c #C19B19",
"T. c #D29614",
"R. c #C4AC04",
"E. c #C5A50E",
"W. c #CCAA0C",
"Q. c #C6AC0E",
"!. c #C2B503",
"~. c #CAB602",
"^. c #C5BA04",
"/. c #CBBC03",
"(. c #C4B30D",
"). c #CBB30B",
"_. c #CABB0B",
"`. c #D2BC04",
"'. c #D5BC0A",
"]. c #DCBB0D",
"[. c #D7B50A",
"{. c #C7A816",
"}. c #D7AC15",
"|. c #D4A313",
" X c #C5B515",
".X c #C8BA11",
"XX c #D4B315",
"oX c #D9B515",
"OX c #E6BE0A",
"+X c #E0BD10",
"@X c #C29822",
"#X c #BFC006",
"$X c #CCC403",
"%X c #CEC903",
"&X c #CDC40A",
"*X c #D3C402",
"=X c #DCC303",
"-X c #D4CA01",
";X c #DCCC01",
":X c #D5C409",
">X c #DDC40C",
",X c #D8CA09",
"<X c #D8C814",
"1X c #E2C303",
"2X c #E2CC01",
"3X c #E3C30B",
"4X c #E8CC06",
"5X c #E3D303",
"6X c #E8D801",
"7X c #E5C912",
"8X c #E5C918",
"9X c None",
/* pixels */
"9X9X9X9X9X9X9X9X9X9X9X9X9X9X9X9X9X9X9X| O.9X9X9X9X9X9X9X9X9X9X9X9X9X9X9X9X9X9X9X",
"9X9X9X9X9X9X9X9X9X9X9X9X9X9X9X9X9X&.) ~ ! ^ ^ o.9X9X9X9X9X9X9X9X9X9X9X9X9X9X9X9X",
"9X9X9X9X9X9X9X9X9X9X9X9X9X9X^ ( }.2X^.& % 3 )  . .^ | 9X9X9X9X9X9X9X9X9X9X9X9X9X",
"9X9X9X9X9X9X9X9X9X9X9XW W W o.t 3 V.l.Z & & % % q  .^ E ) | 9X9X9X9X9X9X9X9X9X9X",
"9X9X9X9X9X9X9X9X/ O.~ q W 3 3 3 % # J././.{.5 % & % @ p | | |  .9X9X9X9X9X9X9X9X",
"9X9X9X9X9X*X:Xs. .~ V L % % # @ F (.x q :.>X-X$Xy.& & & & 3 W |  .| | 9X9X9X9X9X",
"9X9X_ { o.' 8X!.j.% I k.. +  X).K . ) p = @ 4 v.:X%X:Xb & # # # & ^  .| !  .9X9X",
"+.O.t M | / n n.G & & o H.^.; # 7 @ H =X=Xr.3 4 % 9  X&X/.{.* # % & ! | 1.M o.+.",
"| W +.@.^ | | | 8./.p._ ! % 5.h Q.3XL w.1Xg G 3X{.1 r W 8.:X&XT.T.5X6X`.9.@.$.W ",
"O.R f ) | +.W / /  .u '.XXQ Q 6 @ 4 & R.1X4Xy.@ i ! p $ u.w @./ ^ W ' ..W E R ( ",
"9X} o. . . . .+./ W E / ( Y.&Xb 7 7 @ C.Z < % 4 # C .X] / ^ t ^  .| W |  . .~ _ ",
"9X^ | r | | O. ./ O. ./ |  .X.6.^.k.W ! & F ).A. Xj @ ) | /  .| ^ E  .| ^ w  .>.",
"9X5XP.t.N.s | | | ^ ^  .O. .O.|  .s <X}.! ! 5.'.,. . . .O.| / E ^ | / @Xl.D =X*X",
"9X5X5XZ.Z././.s  ./ W t W | +./ |  .| Q *./ L.4X5X1X@.O. .| / | ^ oX/.S.Z.;X2X~.",
"9X .U.B.@ c.=X*X*X-. . ./ | W  .+.| ~ B 2.{ | 3.O./  . . .| ! '.$X*XXX9 2 8X#.9X",
"9X .| 3 @ 7 W b.$XS.%X6.| | O.) E | +.| ^ +.O./ ^ O.|  .u :X^./.XX` r % % _ O.9X",
"9X .q . I - 4 W W z.&XA.%Xb./ | | r t | O.E M o.|  .y &XF./.F.Q W r   e.A X O.9X",
"9X| w A.x.D.A.; 8 W 7 w.$XS.*XJ.W  .B _  .T %.( *.$XF._.).4 8 i X k.F.K j.h o.9X",
"9X| ^ X @   ^..XJ.- 3 7 4 q.:X*X*Xu ~ [ O.1.| /.*X*X|.& 8 4 . ; '.A.x.# # ~ ) 9X",
"9X .E p # X /.. h y.l 7 & ^ W 0./.;. ._ O.) ( *XI.! W i 4 3 >X; . B.P # 3  .W 9X",
"9X .E r # . ~.. 8 r.OX3 z : q ^ E 7X3X=. .].2Xt W t % g.X % =X$ 7 A.C # 3 | W 9X",
"9X| E ^ % @ (.. 8 P =XS z '.z.: 7 <X6X-X`.5X;Xq . k.O OXV.. ;X@ 4 A.1 & 4 / W 9X",
"9X9XW ) % @ !.O i G '.>Xh >Xz `.H.e s.;X;X`.( t.~.M.O 1X1XV.=X& # (.o & 7 ^ ^ 9X",
"9X9X>./ % % F ; W C [.J.y.>X% X D.a ..o... .^ !.O 3 - 1Xy.=X=X3 t x.# & 7 ^ ].9X",
"9X9X;X7Xv.H.u 4 E h ].X OX1X% 3 m.J.E O.O.+.2 ~.. 8 - =X. g.=X4 i r c.A.R.6X-X9X",
"9X9Xp.;Xm.Z.$XW.E 4 M.5 v.1X4 4 N.J 8  . .O.g ~.. 7 > ].& X 1 E i./.!.h.&X3X! 9X",
"9X9XE | > # ).$X/.w.5 7 @ >X3 % B.-.E |  .| ^ ~.  | 2 ].4 4 c ;X$X/.4.& y | 9X9X",
"9X9X! $.3 % 4 v l.&X-XH 4 1 & ! M.;.W / | ^ | ~.X E : @ * &X*X$Xc.q % # ^ d.9X9X",
"9X9X| 2.| t % @ & r.*X-X:Xk t t k.;.^ ^ | W  .!.@ ! y (.-X%X!.* % & 7 | d <.9X9X",
"9X9X9X@./  . .8 % % & E.%X-X:Xu & a ^ E  .r O.. r b.!.$X'., 3 % & |  .^ | 9X9X9X",
"9X9X9X9X9X|  .|  .4 % & * _.*X-XW.t ^ W | E  .i.=XA.:XD & # # W /  .^ X.9X9X9X9X",
"9X9X9X9X9X9X . . .| ) # % & c _.$X7.^ W | /  .*X!.v.& % & w  .^ W X.9X9X9X9X9X9X",
"9X9X9X9X9X9X9X9X ./ ^ | r % & & i.,X,./ | | +XE.& # % 7  .) E / 9X9X9X9X9X9X9X9X",
"9X9X9X9X9X9X9X9X9X9X/ E ^ | 7 & & a.;X+XP.6X:X3 # # /  .| ^  .9X9X9X9X9X9X9X9X9X",
"9X9X9X9X9X9X9X9X9X9X9XX.^ ^ | / % & OX2X*X5X,.& r |  . . .9X9X9X9X9X9X9X9X9X9X9X",
"9X9X9X9X9X9X9X9X9X9X9X9X9X/ ^ O.| E | -.P./ X.)  . . .9X9X9X9X9X9X9X9X9X9X9X9X9X",
"9X9X9X9X9X9X9X9X9X9X9X9X9X9X9X| E / p t ..f _ | ^  .9X9X9X9X9X9X9X9X9X9X9X9X9X9X",
"9X9X9X9X9X9X9X9X9X9X9X9X9X9X9X9X@.^ N { | Y } O.9X9X9X9X9X9X9X9X9X9X9X9X9X9X9X9X",
"9X9X9X9X9X9X9X9X9X9X9X9X9X9X9X9X9X9XO./ X.) 9X9X9X9X9X9X9X9X9X9X9X9X9X9X9X9X9X9X",
"9X9X9X9X9X9X9X9X9X9X9X9X9X9X9X9X9X9X9X9X+.9X9X9X9X9X9X9X9X9X9X9X9X9X9X9X9X9X9X9X"
};
