/* XPM */
static char *result[] = {
/* columns rows colors chars-per-pixel */
"45 45 209 2 ",
"   c #0B0903",
".  c #080205",
"X  c #160305",
"o  c #1C0402",
"O  c #160900",
"+  c #180D0C",
"@  c #181407",
"#  c #180C19",
"$  c #1D1310",
"%  c #2C0800",
"&  c #230B00",
"*  c #300F19",
"=  c #251918",
"-  c #2E1312",
";  c #31241B",
":  c #3E290B",
">  c #271A2B",
",  c #392626",
"<  c #3D312C",
"1  c #393220",
"2  c #3D2E36",
"3  c #35333C",
"4  c #3A353A",
"5  c #4E2C02",
"6  c #5C2F07",
"7  c #562D02",
"8  c #583108",
"9  c #582719",
"0  c #5A3818",
"q  c #63231E",
"w  c #412B24",
"e  c #4A2E2E",
"r  c #472A2C",
"t  c #512D26",
"y  c #5B2828",
"u  c #4D3C2B",
"i  c #483528",
"p  c #54352E",
"a  c #533728",
"s  c #452E32",
"d  c #4A2D31",
"f  c #572B34",
"g  c #46383A",
"h  c #563A37",
"j  c #622324",
"k  c #672B29",
"l  c #69372C",
"z  c #693434",
"x  c #663437",
"c  c #753E36",
"v  c #54471D",
"b  c #6D4617",
"n  c #795513",
"m  c #7D620C",
"M  c #564423",
"N  c #5B4336",
"B  c #5C562E",
"V  c #6B4729",
"C  c #724B2B",
"Z  c #77412C",
"A  c #674839",
"S  c #72443A",
"D  c #764833",
"F  c #7B5234",
"G  c #73553E",
"H  c #7D6223",
"J  c #4B3541",
"K  c #633B44",
"L  c #6D3E45",
"P  c #733F4F",
"I  c #52404F",
"U  c #514A51",
"Y  c #644345",
"T  c #634947",
"R  c #654A4B",
"E  c #764746",
"W  c #6E534C",
"Q  c #7E4F50",
"!  c #775955",
"~  c #7B5A5A",
"^  c #6F5753",
"/  c #585661",
"(  c #655C6A",
")  c #765B66",
"_  c #746062",
"`  c #75707B",
"'  c #6A6771",
"]  c #824839",
"[  c #805334",
"{  c #B5513E",
"}  c #B74C3F",
"|  c #9B752B",
" . c #9B7E30",
".. c #877334",
"X. c #813E46",
"o. c #844D4A",
"O. c #964F49",
"+. c #9E554E",
"@. c #864A53",
"#. c #9B4F54",
"$. c #985556",
"%. c #B34F43",
"&. c #B84C4A",
"*. c #A5544E",
"=. c #AB534C",
"-. c #AA5446",
";. c #B15242",
":. c #B55549",
">. c #B64B52",
",. c #A45453",
"<. c #A95251",
"1. c #A45158",
"2. c #A85B5A",
"3. c #B65D54",
"4. c #AC4E50",
"5. c #95694B",
"6. c #8F7944",
"7. c #996157",
"8. c #957047",
"9. c #BF6558",
"0. c #A7734C",
"q. c #975B62",
"w. c #845C63",
"e. c #A35B62",
"r. c #A85560",
"t. c #82696A",
"y. c #886571",
"u. c #927378",
"i. c #AF6961",
"p. c #B56D63",
"a. c #BE6D6D",
"s. c #AD706F",
"d. c #BB746C",
"f. c #AD7278",
"g. c #C8574A",
"h. c #CB6559",
"j. c #D86A5A",
"k. c #EA6E5F",
"l. c #E56E5A",
"z. c #E5725E",
"x. c #C26D69",
"c. c #DA6764",
"v. c #D56B64",
"b. c #DC7365",
"n. c #DC756A",
"m. c #DC7869",
"M. c #D4776A",
"N. c #C87B7B",
"B. c #D77975",
"V. c #EB6E64",
"C. c #E76F69",
"Z. c #E46F63",
"A. c #E37264",
"S. c #EB7564",
"D. c #E1746A",
"F. c #E57A7A",
"G. c #B4922E",
"H. c #AB893B",
"J. c #B69534",
"K. c #B08D5B",
"L. c #B19345",
"P. c #9B8579",
"I. c #9E9770",
"U. c #AF8E7E",
"Y. c #B2886D",
"T. c #CF9972",
"R. c #CBA376",
"E. c #CFA479",
"W. c #D6A47B",
"Q. c #7D7684",
"!. c #927481",
"~. c #998089",
"^. c #A28094",
"/. c #A8939B",
"(. c #B89A97",
"). c #B48F88",
"_. c #BCA79F",
"`. c #BA9CAE",
"'. c #B4A7B5",
"]. c #DD8C82",
"[. c #D59F86",
"{. c #CBA681",
"}. c #D1A588",
"|. c #C3A59B",
" X c #C3AA9B",
".X c #EABA9F",
"XX c #D5AAAB",
"oX c #CAAAB6",
"OX c #CAB0B3",
"+X c #EFBCAD",
"@X c #E7B7B6",
"#X c #DCC1AF",
"$X c #DCC9BD",
"%X c #DCC4B6",
"&X c #E4CFBE",
"*X c #F6CBB8",
"=X c #D9B5C1",
"-X c #CCC8D5",
";X c #DDC8D9",
":X c #E7CAC3",
">X c #F6CDC5",
",X c #FFCCC9",
"<X c #EED0C9",
"1X c #F3D0C8",
"2X c #FFD5D1",
"3X c #F0DCF0",
"4X c #EFE9F7",
"5X c #F3E8F7",
"6X c None",
/* pixels */
"6X6X6X6X6X6X6X6X6X6X6X6X6X6X6X6X6X6X6X6X6X6X6X6X6X6X6X6X6X6X6X6X6X6X6X6X6X6X6X6X6X6X6X6X6X",
"6X6X6X6X6X6X6X6X6X6X6X6X6X6X6X6X6X6X6X6X6X6X6X6X6X6X6X6X6X6X6X6X6X6X6X6X6X6X6X6X6X6X6X6X6X",
"6X6X6X6X6X6X6X6X6X6X6X6X6X6X6X6X6X6X6X6X6X6X6X6X6X6X6X6X6X6X6X6X6X6X6X6X6X6X6X6X6X6X6X6X6X",
"6X6X6X6X6X6X6X6X6X6X6X6X6X6X6X6X6X6X6X6X6X6X6X6X6X6X6X6X6X6X6X6X6X6X6X6X6X6X6X6X6X6X6X6X6X",
"6X6X6X6X6X6X6X6X6X6X6X6X6X6X6X6X6X6X6X6X6X6X6X6X6X6X6X6X6X6X6X6X6X6X6X6X6X6X6X6X6X6X6X6X6X",
"6X6X6X6X6X6X6X6X6X6X6X6X6X6X6X6X6X6X6X6X6X6X6X6X6X6X6X6X6X6X6X6X6X6X6X6X6X6X6X6X6X6X6X6X6X",
"6X6X6X6X6X6X6X6X6X6X6X6X6X6X6X6X6X6X6X6X6X6X6X6X6X6X6X6X6X6X6X6X6X6X6X6X6X6X6X6X6X6X6X6X6X",
"6X6X6X6X6X6X6X6X6X6X6X6X6X6X6X6X6X6X6X6X6X6X6X6X6X6X6X6X6X6X6X6X6X6X6X6X6X6X6X6X6X6X6X6X6X",
"6X6X6X6X6X6X6X6X6X6X6X6X6X6X6X6X6X6X6X6X6X6X6X6X6X6X6X6X6X6X6X6X6X6X6X6X6X6X6X6X6X6X6X6X6X",
"6X6X6X6X6X6X6X6X6X6X6X6X6X6X6X6X6X6X6X6X6X6X6X6X6X6X6X6X6X6X6X6X6X6X6X6X6X6X6X6X6X6X6X6X6X",
"6X6X6X6X6X6X6X6X6X6X6X6X6X6X6X6X6Xs e e e d e e r s 6X6X6X6X6X6X6X6X6X6X6X6X6X6X6X6X6X6X6X",
"6X6X6X6X6X6X6X6X6X6X6X6X6X6Xr d h f.a.x.a.d.p.p.d.7.o.p 6X6X6X6X6X6X6X6X6X6X6X6X6X6X6X6X6X",
"6X6X6X6X6X6X6X6X6X6X6X6X6X6XK Y c N.D.S.D.M.b.b.M.9.+.z 6X6X6X6X6X6X6X6X6X6X6X6X6X6X6X6X6X",
"6X6X6X6X6X6X6X6X6X6X6X6X6Xf q.f.x.m.C.V.C.b.m.A.b.v.a.$.f 6X6X6X6X6X6X6X6X6X6X6X6X6X6X6X6X",
"6X6X6X6X6X6X6X6X6X6X6X6X6Xy !.B.M.b.A.V.V.b.b.z.z.n.B.N.f 6X6X6X6X6X6X6X6X6X6X6X6X6X6X6X6X",
"6X6X6X6X6X6X6X6X6X6X6X6XK X.F.C.b.z.k.V.V.D.A.S.A.D.B.N.f.y.6X6X6X6X6X6X6X6X6X6X6X6X6X6X6X",
"6X6X6X6X6X6X6X6X6X6X6XJ K 1.F.Z.z.z.k.k.V.D.z.S.A.D.B.N.XX!.2 6X6X6X6X6X6X6X6X6X6X6X6X6X6X",
"6X6X6X6X6X6X6X6X6X6X6Xg x 2.c.l.l.z.k.V.V.A.Z.S.j.b.T.,Xw.) ( 3 6X6X6X6X6X6X6X6X6X6X6X6X6X",
"6X6X6X6X6X6X6X6X6X6X6Xs x 4.g.l.S.A.S.C.C.D.S.j.m.9.p.2Xy./.-X-X( 6X6X6X6X6X6X6X6X6X6X6X6X",
"6X6X6X6X6X6X6X6X6X6X6Xd x <.{ g.j.v.c.c.v.v.j.h.v.3.i.@Xu.'.4X4X` 3 6X6X6X6X6X6X6X6X6X6X6X",
"6X6X6X6X6X6X6X6X6X6X6Xd z *.:.{ { =.>.>.&.&.;.%.:.<.r.q.oX;X5X5X` 3 6X6X6X6X6X6X6X6X6X6X6X",
"6X6X6X6X6X6X6X6X6X6X6Xh l O.;.;.=.*.4.>.&.;.:.3.4.4.1.q.P !.3X'.( 4 6X6X6X6X6X6X6X6X6X6X6X",
"6X6X6X6X6X6X6X6X6X6X6Xp 9 ] *.2.+.1.r.1.*.*.*.,.*.,.#.X.!.'.;X!./ 6X6X6X6X6X6X6X6X6X6X6X6X",
"6X6X6X6X6X6X6X6X6X6X6Xi a y o.#.e.e.e.$.2.$.$.O.$.$.@.K =X=X'.3 6X6X6X6X6X6X6X6X6X6X6X6X6X",
"6X6X6X6X6X6X6X6X6X6X6Xu h E l k q q q y j j k y y f f f d g 2 6X6X6X6X6X6X6X6X6X6X6X6X6X6X",
"6X6X6X6X6X6X6X6X6X6X6X6X6Xh S D ] Z Z Z y E x t Y y.) * K K h 6X6X6X6X6X6X6X6X6X6X6X6X6X6X",
"6X6X6X6X6X6X6X6X6X6X6X6X6Xw G D F F F C l $.S t w./.!.o ! ! W 6X6X6X6X6X6X6X6X6X6X6X6X6X6X",
"6X6X6X6X6X6X6X6X6X6X6X6X6XO i V F F 0 C E.}.5.0  X:XOX& |.P.N 6X6X6X6X6X6X6X6X6X6X6X6X6X6X",
"6X6X6X6X6X6X6X6X6X6X6X6X6X6Xw x W G 0 C E.R.E.{.*X>X<X<X&X#X6X6X6X6X6X6X6X6X6X6X6X6X6X6X6X",
"6X6X6X6X6X6X6X6X6X6X6X6X6X6X6Xp t a l V 8.R.W.T.+X*X>X>X).|.6X6X6X6X6X6X6X6X6X6X6X6X6X6X6X",
"6X6X6X6X6X6X6X6X6X6X6X6X6X6X6X- % % V C 6 T.E.W.[.+X>X>XA 6X6X6X6X6X6X6X6X6X6X6X6X6X6X6X6X",
"6X6X6X6X6X6X6X6X6X6X6X6X6X6X6Xv 5 K.b 7 6 6 5.}.c S E R 6X6X6X6X6X6X6X6X6X6X6X6X6X6X6X6X6X",
"6X6X6X6X6X6X6X6X6X6X6X6X6X6Xv .. .L.| | b 0.Y.OX).Q E 6X6X6X6X6X6X6X6X6X6X6X6X6X6X6X6X6X6X",
"6X6X6X6X6X6X6X6X6X6X6X6X6X6X: H G.J.J.H.b Y.).(.(.! Y 6X6X6X6X6X6X6X6X6X6X6X6X6X6X6X6X6X6X",
"6X6X6X6X6X6X6X6X6X6X6X6X6X6Xo 8 m G.H...& M i M O N R J 6X6X6X6X6X6X6X6X6X6X6X6X6X6X6X6X6X",
"6X6X6X6X6X6X6X6X6X6X6X6X6X6X$ G L.m H M O < ~.&X$X< = 4 6X6X6X6X6X6X6X6X6X6X6X6X6X6X6X6X6X",
"6X6X6X6X6X6X6X6X6X6X6X6X6X6X+ N H.H B < = g u.%X$X< $ N 6X6X6X6X6X6X6X6X6X6X6X6X6X6X6X6X6X",
"6X6X6X6X6X6X6X6X6X6X6X6X6X6X. 1 B I.; > 4 U ` |._.s @ 4 6X6X6X6X6X6X6X6X6X6X6X6X6X6X6X6X6X",
"6X6X6X6X6X6X6X6X6X6X6X6X6X6X6X  @     > ( / w o o , 4 6X6X6X6X6X6X6X6X6X6X6X6X6X6X6X6X6X6X",
"6X6X6X6X6X6X6X6X6X6X6X6X6X6X6X6X6X6X. > I _ T Y h ; $ 6X6X6X6X6X6X6X6X6X6X6X6X6X6X6X6X6X6X",
"6X6X6X6X6X6X6X6X6X6X6X6X6X6X6X6X6X6X# # J T W T R = 6X6X6X6X6X6X6X6X6X6X6X6X6X6X6X6X6X6X6X",
"6X6X6X6X6X6X6X6X6X6X6X6X6X6X6X6X6X6X6X6XX o o X + 6X6X6X6X6X6X6X6X6X6X6X6X6X6X6X6X6X6X6X6X",
"6X6X6X6X6X6X6X6X6X6X6X6X6X6X6X6X6X6X6X6X6X6X6X6X6X6X6X6X6X6X6X6X6X6X6X6X6X6X6X6X6X6X6X6X6X",
"6X6X6X6X6X6X6X6X6X6X6X6X6X6X6X6X6X6X6X6X6X6X6X6X6X6X6X6X6X6X6X6X6X6X6X6X6X6X6X6X6X6X6X6X6X",
"6X6X6X6X6X6X6X6X6X6X6X6X6X6X6X6X6X6X6X6X6X6X6X6X6X6X6X6X6X6X6X6X6X6X6X6X6X6X6X6X6X6X6X6X6X"
};
