/* XPM */
static char *result[] = {
/* columns rows colors chars-per-pixel */
"45 45 210 2 ",
"   c #090304",
".  c #160304",
"X  c #1C0402",
"o  c #160900",
"O  c #140F0A",
"+  c #18090E",
"@  c #181307",
"#  c #190D1A",
"$  c #1B1310",
"%  c #2C0800",
"&  c #230B00",
"*  c #240F14",
"=  c #300F19",
"-  c #211412",
";  c #261A1A",
":  c #371811",
">  c #31241B",
",  c #3E290B",
"<  c #271A2B",
"1  c #382627",
"2  c #3D312C",
"3  c #3A3321",
"4  c #3B2D36",
"5  c #35343C",
"6  c #3A353A",
"7  c #4E2D02",
"8  c #5C2F07",
"9  c #562D02",
"0  c #583108",
"q  c #582719",
"w  c #5A3616",
"e  c #63231E",
"r  c #422B24",
"t  c #492D2E",
"y  c #472A2B",
"u  c #512D26",
"i  c #5A2929",
"p  c #4D3C2B",
"a  c #493429",
"s  c #54362E",
"d  c #533727",
"f  c #452E31",
"g  c #4A2C30",
"h  c #572A34",
"j  c #453839",
"k  c #533632",
"l  c #583C37",
"z  c #622324",
"x  c #672B29",
"c  c #69372C",
"v  c #69363A",
"b  c #673434",
"n  c #753E36",
"m  c #5C451F",
"M  c #6D4617",
"N  c #795513",
"B  c #7D620C",
"V  c #564423",
"C  c #5B4437",
"Z  c #5C562E",
"A  c #6B4729",
"S  c #724B2B",
"D  c #77412C",
"F  c #674839",
"G  c #72443A",
"H  c #764833",
"J  c #7B5234",
"K  c #73553E",
"L  c #7C6323",
"P  c #4B3841",
"I  c #633D45",
"U  c #6E3D48",
"Y  c #733F4F",
"T  c #52404F",
"R  c #514A51",
"E  c #634947",
"W  c #664647",
"Q  c #764745",
"!  c #6D534C",
"~  c #7E4F50",
"^  c #775855",
"/  c #7B5A5A",
"(  c #6F5753",
")  c #7B635F",
"_  c #565461",
"`  c #645C69",
"'  c #765B66",
"]  c #746062",
"[  c #706A76",
"{  c #824839",
"}  c #805334",
"|  c #B5513E",
" . c #B74C3F",
".. c #9B752B",
"X. c #9B7E30",
"o. c #887335",
"O. c #813E46",
"+. c #964F49",
"@. c #80504A",
"#. c #864A53",
"$. c #9B4F54",
"%. c #985556",
"&. c #93504C",
"*. c #B34F43",
"=. c #B84C4A",
"-. c #A5544E",
";. c #AB534C",
":. c #AA5446",
">. c #B15242",
",. c #B55549",
"<. c #B64B52",
"1. c #A45453",
"2. c #A95251",
"3. c #A45158",
"4. c #A85B5A",
"5. c #B65D54",
"6. c #AC4E50",
"7. c #95694B",
"8. c #8F7944",
"9. c #996157",
"0. c #957047",
"q. c #BF6558",
"w. c #A7734C",
"e. c #975B61",
"r. c #845C63",
"t. c #A35B62",
"y. c #A85560",
"u. c #83666B",
"i. c #997976",
"p. c #8F6F75",
"a. c #AF6961",
"s. c #B86D66",
"d. c #AD706F",
"f. c #BB746C",
"g. c #B67066",
"h. c #AD7278",
"j. c #C8574A",
"k. c #CB6559",
"l. c #D86A5A",
"z. c #EA6E5F",
"x. c #E56E5A",
"c. c #E5725E",
"v. c #C26D69",
"b. c #DA6764",
"n. c #D56B64",
"m. c #DC7365",
"M. c #DC756A",
"N. c #DC7869",
"B. c #D4776A",
"V. c #C87B7B",
"C. c #D77975",
"Z. c #EB6E64",
"A. c #E76F69",
"S. c #E46F63",
"D. c #E37264",
"F. c #EB7564",
"G. c #E1746A",
"H. c #E57A7A",
"J. c #B4922E",
"K. c #AB893B",
"L. c #B69534",
"P. c #B08D5B",
"I. c #B19345",
"U. c #9E9770",
"Y. c #988A7F",
"T. c #AF8E7E",
"R. c #B2886D",
"E. c #CF9972",
"W. c #CBA376",
"Q. c #CFA479",
"!. c #D6A47B",
"~. c #7C7584",
"^. c #927381",
"/. c #998089",
"(. c #A28094",
"). c #A8939B",
"_. c #B89A97",
"`. c #B49088",
"'. c #BCA79F",
"]. c #BA9CAE",
"[. c #B4A6B4",
"{. c #DD8C82",
"}. c #D59F86",
"|. c #CBA681",
" X c #D1A588",
".X c #C3A59B",
"XX c #C2AA9A",
"oX c #EABA9F",
"OX c #D5AAAB",
"+X c #CAAAB6",
"@X c #CAB0B3",
"#X c #EFBCAD",
"$X c #E7B7B6",
"%X c #DBC0AF",
"&X c #DCC7BB",
"*X c #E4CFBE",
"=X c #F6CBB8",
"-X c #D9B5C1",
";X c #CDC8D5",
":X c #DDC8D9",
">X c #E7CAC3",
",X c #F6CDC5",
"<X c #FFCCC9",
"1X c #EED0C9",
"2X c #F3D0C8",
"3X c #FFD5D1",
"4X c #F0DCF0",
"5X c #EFE9F7",
"6X c #F3E8F7",
"7X c None",
/* pixels */
"7X7X7X7X7X7X7X7X7X7X7X7X7X7X7X7X7X7X7X7X7X7X7X7X7X7X7X7X7X7X7X7X7X7X7X7X7X7X7X7X7X7X7X7X7X",
"7X7X7X7X7X7X7X7X7X7X7X7X7X7X7X7X7X7X7X7X7X7X7X7X7X7X7X7X7X7X7X7X7X7X7X7X7X7X7X7X7X7X7X7X7X",
"7X7X7X7X7X7X7X7X7X7X7X7X7X7X7X7X7X7X7X7X7X7X7X7X7X7X7X7X7X7X7X7X7X7X7X7X7X7X7X7X7X7X7X7X7X",
"7X7X7X7X7X7X7X7X7X7X7X7X7X7X7X7X7X7X7X7X7X7X7X7X7X7X7X7X7X7X7X7X7X7X7X7X7X7X7X7X7X7X7X7X7X",
"7X7X7X7X7X7X7X7X7X7X7X7X7X7X7X7X7X7X7X7X7X7X7X7X7X7X7X7X7X7X7X7X7X7X7X7X7X7X7X7X7X7X7X7X7X",
"7X7X7X7X7X7X7X7X7X7X7X7X7X7X7X7X7X7X7X7X7X7X7X7X7X7X7X7X7X7X7X7X7X7X7X7X7X7X7X7X7X7X7X7X7X",
"7X7X7X7X7X7X7X7X7X7X7X7X7X7X7X7X7X7X7X7X7X7X7X7X7X7X7X7X7X7X7X7X7X7X7X7X7X7X7X7X7X7X7X7X7X",
"7X7X7X7X7X7X7X7X7X7X7X7X7X7X7X7X7X7X7X7X7X7X7X7X7X7X7X7X7X7X7X7X7X7X7X7X7X7X7X7X7X7X7X7X7X",
"7X7X7X7X7X7X7X7X7X7X7X7X7X7X7X7X7X7X7X7X7X7X7X7X7X7X7X7X7X7X7X7X7X7X7X7X7X7X7X7X7X7X7X7X7X",
"7X7X7X7X7X7X7X7X7X7X7X7X7X7X7X7X7X7X7X7X7X7X7X7X7X7X7X7X7X7X7X7X7X7X7X7X7X7X7X7X7X7X7X7X7X",
"7X7X7X7X7X7X7X7X7X7X7X7X7X7X7X7X7Xf g g g t y y g g 7X7X7X7X7X7X7X7X7X7X7X7X7X7X7X7X7X7X7X",
"7X7X7X7X7X7X7X7X7X7X7X7X7X7X1 g b h.f.v.v.f.g.s.f.9.@.k 7X7X7X7X7X7X7X7X7X7X7X7X7X7X7X7X7X",
"7X7X7X7X7X7X7X7X7X7X7X7X7X7XI U G C.M.A.D.M.N.m.B.k.$.b 7X7X7X7X7X7X7X7X7X7X7X7X7X7X7X7X7X",
"7X7X7X7X7X7X7X7X7X7X7X7X7Xh e.d.f.B.G.Z.D.M.N.D.m.n.v.%.h 7X7X7X7X7X7X7X7X7X7X7X7X7X7X7X7X",
"7X7X7X7X7X7X7X7X7X7X7X7X7Xi V.V.B.m.D.Z.D.G.m.c.m.G.C.V.h 7X7X7X7X7X7X7X7X7X7X7X7X7X7X7X7X",
"7X7X7X7X7X7X7X7X7X7X7X7XI O.V.M.D.c.z.z.D.D.D.F.D.D.C.V.h.u.7X7X7X7X7X7X7X7X7X7X7X7X7X7X7X",
"7X7X7X7X7X7X7X7X7X7X7Xj U 3.H.S.c.c.z.z.Z.G.S.F.D.G.C.V.OX^.4 7X7X7X7X7X7X7X7X7X7X7X7X7X7X",
"7X7X7X7X7X7X7X7X7X7X7Xj v 4.b.x.x.c.z.Z.Z.A.S.D.c.m.E.<Xr.' ` 5 7X7X7X7X7X7X7X7X7X7X7X7X7X",
"7X7X7X7X7X7X7X7X7X7X7Xf v 2.j.l.F.D.D.Z.S.m.D.m.m.q.a.3Xu.).;X;X` 7X7X7X7X7X7X7X7X7X7X7X7X",
"7X7X7X7X7X7X7X7X7X7X7Xf v -. .j.l.n.b.b.b.l.l.k.n.5.a.$X^.[.5X5X[ 5 7X7X7X7X7X7X7X7X7X7X7X",
"7X7X7X7X7X7X7X7X7X7X7Xg b ;.,.| >.;.<.<.<.*.>.*.,.6.3.e.+X:X6X6X[ 5 7X7X7X7X7X7X7X7X7X7X7X",
"7X7X7X7X7X7X7X7X7X7X7Xk b +.| >.:.;.<.<.=.>.>.q.;.2.3.%.Y ^.4X-X` 6 7X7X7X7X7X7X7X7X7X7X7X",
"7X7X7X7X7X7X7X7X7X7X7Xk u { -.4.1.3.y.3.2.:.-.-.-.1.$.#.^.].:X~._ 7X7X7X7X7X7X7X7X7X7X7X7X",
"7X7X7X7X7X7X7X7X7X7X7Xp w x @.&.t.t.e.%.t.%.%.&.%.%.#.Y -X[.[.5 7X7X7X7X7X7X7X7X7X7X7X7X7X",
"7X7X7X7X7X7X7X7X7X7X7Xk l Q b x e e e i z z x i h i h h g j 4 7X7X7X7X7X7X7X7X7X7X7X7X7X7X",
"7X7X7X7X7X7X7X7X7X7X7X7X] s G H } n n n z Q b u I p.' = I I l 7X7X7X7X7X7X7X7X7X7X7X7X7X7X",
"7X7X7X7X7X7X7X7X7X7X7X7X7Xr K H } } J S c 9.F u / )./.X ^ ~ ! 7X7X7X7X7X7X7X7X7X7X7X7X7X7X",
"7X7X7X7X7X7X7X7X7X7X7X7X7Xo d A S J w S |. X7.w .X>X@X& '.Y.l 7X7X7X7X7X7X7X7X7X7X7X7X7X7X",
"7X7X7X7X7X7X7X7X7X7X7X7X7X7Xr C Q K w S |.W.Q.Q.=X,X2X1X=X%X7X7X7X7X7X7X7X7X7X7X7X7X7X7X7X",
"7X7X7X7X7X7X7X7X7X7X7X7X7X7X7Xg u d A A 0.Q.!.E.#X=X,X2X`.'.7X7X7X7X7X7X7X7X7X7X7X7X7X7X7X",
"7X7X7X7X7X7X7X7X7X7X7X7X7X7X7X: % % A S 9 E.!. X X#X,X,XF 7X7X7X7X7X7X7X7X7X7X7X7X7X7X7X7X",
"7X7X7X7X7X7X7X7X7X7X7X7X7X7X7Xm 7 P.M 9 8 8 7. XD n Q W 7X7X7X7X7X7X7X7X7X7X7X7X7X7X7X7X7X",
"7X7X7X7X7X7X7X7X7X7X7X7X7X7Xm o.K.K.K.o.M w.R.OX`.~ Q 7X7X7X7X7X7X7X7X7X7X7X7X7X7X7X7X7X7X",
"7X7X7X7X7X7X7X7X7X7X7X7X7X7X, L K.L.J.K.M P.T._._./ I 7X7X7X7X7X7X7X7X7X7X7X7X7X7X7X7X7X7X",
"7X7X7X7X7X7X7X7X7X7X7X7X7X7X. 7 B J.L.o.& p a p X l R l 7X7X7X7X7X7X7X7X7X7X7X7X7X7X7X7X7X",
"7X7X7X7X7X7X7X7X7X7X7X7X7X7X- K I.B L V o 2 Y.*X&X2 ; 6 7X7X7X7X7X7X7X7X7X7X7X7X7X7X7X7X7X",
"7X7X7X7X7X7X7X7X7X7X7X7X7X7X+ C K.) V 3 ; j p.&X&X2 $ C 7X7X7X7X7X7X7X7X7X7X7X7X7X7X7X7X7X",
"7X7X7X7X7X7X7X7X7X7X7X7X7X7X  3 Z U., ; 5 R ) .X'.f @ 6 7X7X7X7X7X7X7X7X7X7X7X7X7X7X7X7X7X",
"7X7X7X7X7X7X7X7X7X7X7X7X7X7X7XO @     < [ _ r X o 1 j 7X7X7X7X7X7X7X7X7X7X7X7X7X7X7X7X7X7X",
"7X7X7X7X7X7X7X7X7X7X7X7X7X7X7X7X7X7X  < T ] E E l > @ 7X7X7X7X7X7X7X7X7X7X7X7X7X7X7X7X7X7X",
"7X7X7X7X7X7X7X7X7X7X7X7X7X7X7X7X7X7X# # P E ! E ! - - 7X7X7X7X7X7X7X7X7X7X7X7X7X7X7X7X7X7X",
"7X7X7X7X7X7X7X7X7X7X7X7X7X7X7X7X7X7X7X7X. X X . . 7X7X7X7X7X7X7X7X7X7X7X7X7X7X7X7X7X7X7X7X",
"7X7X7X7X7X7X7X7X7X7X7X7X7X7X7X7X7X7X7X7X7X7X7X7X7X7X7X7X7X7X7X7X7X7X7X7X7X7X7X7X7X7X7X7X7X",
"7X7X7X7X7X7X7X7X7X7X7X7X7X7X7X7X7X7X7X7X7X7X7X7X7X7X7X7X7X7X7X7X7X7X7X7X7X7X7X7X7X7X7X7X7X",
"7X7X7X7X7X7X7X7X7X7X7X7X7X7X7X7X7X7X7X7X7X7X7X7X7X7X7X7X7X7X7X7X7X7X7X7X7X7X7X7X7X7X7X7X7X"
};
