/* XPM */
static char *result[] = {
/* columns rows colors chars-per-pixel */
"45 45 210 2 ",
"   c #030303",
".  c #0A0607",
"X  c #140202",
"o  c #1C0204",
"O  c #1D0A00",
"+  c #1D0C0C",
"@  c #160A0A",
"#  c #0F100C",
"$  c #1F1D1D",
"%  c #131617",
"&  c #220403",
"*  c #29070A",
"=  c #251709",
"-  c #2D1D00",
";  c #2B151A",
":  c #321712",
">  c #26231A",
",  c #332118",
"<  c #3C1E25",
"1  c #25312F",
"2  c #3B2938",
"3  c #373E3B",
"4  c #2D302D",
"5  c #4A1B1E",
"6  c #562C03",
"7  c #432719",
"8  c #502E1C",
"9  c #5B3319",
"0  c #553C18",
"q  c #4B310B",
"w  c #67391A",
"e  c #602B18",
"r  c #4B2B2B",
"t  c #442A2E",
"y  c #542C26",
"u  c #5C2C26",
"i  c #532D29",
"p  c #5C282D",
"a  c #43322F",
"s  c #483628",
"d  c #5B3123",
"f  c #563624",
"g  c #432A33",
"h  c #4C2C33",
"j  c #432F38",
"k  c #592C31",
"l  c #443532",
"z  c #453D3A",
"x  c #483437",
"c  c #583538",
"v  c #602A25",
"b  c #632D2C",
"n  c #652724",
"m  c #643926",
"M  c #663639",
"N  c #793C3A",
"B  c #4D4318",
"V  c #6E4A10",
"C  c #795412",
"Z  c #5D4820",
"A  c #4B413A",
"S  c #58433B",
"D  c #654529",
"F  c #73492C",
"G  c #7A4D28",
"H  c #7D5C2D",
"J  c #76542C",
"K  c #6B4336",
"L  c #69423F",
"P  c #774739",
"I  c #7D5434",
"U  c #73513B",
"Y  c #78573B",
"T  c #413644",
"R  c #483644",
"E  c #5A3743",
"W  c #612F42",
"Q  c #693A45",
"!  c #763C46",
"~  c #763A47",
"^  c #3D4746",
"/  c #4E4349",
"(  c #584641",
")  c #5F504F",
"_  c #4C4852",
"`  c #5C4F5B",
"'  c #69444F",
"]  c #6C4C4B",
"[  c #694746",
"{  c #784547",
"}  c #6A5648",
"|  c #6B4F50",
" . c #794654",
".. c #645A52",
"X. c #766459",
"o. c #5D5563",
"O. c #7F5B63",
"+. c #50666A",
"@. c #6D6171",
"#. c #786774",
"$. c #813B3C",
"%. c #89671A",
"&. c #854A3B",
"*. c #82513F",
"=. c #9A7536",
"-. c #854859",
";. c #9A4B50",
":. c #845858",
">. c #96545A",
",. c #9B5756",
"<. c #8C4D4A",
"1. c #AA4D46",
"2. c #A94F4A",
"3. c #A34B47",
"4. c #B44F49",
"5. c #B74E43",
"6. c #A6524C",
"7. c #AB524B",
"8. c #AC564B",
"9. c #B25147",
"0. c #B15149",
"q. c #BC534B",
"w. c #A25553",
"e. c #A85958",
"r. c #B55A53",
"t. c #8E694E",
"y. c #976A48",
"u. c #807144",
"i. c #997147",
"p. c #AC6159",
"a. c #8E5C64",
"s. c #886877",
"d. c #8D6D75",
"f. c #AE6263",
"g. c #A17362",
"h. c #AB7074",
"j. c #B36A65",
"k. c #C15249",
"l. c #C85D54",
"z. c #DA6E5F",
"x. c #E46A5D",
"c. c #E3705F",
"v. c #C86C67",
"b. c #DA6E65",
"n. c #CA726A",
"m. c #DC7266",
"M. c #D3746D",
"N. c #DB7569",
"B. c #D37467",
"V. c #CC7973",
"C. c #C17D7C",
"Z. c #C47C77",
"A. c #D27671",
"S. c #D67B75",
"D. c #E46F64",
"F. c #E86F61",
"G. c #E47264",
"H. c #E97162",
"J. c #E47369",
"K. c #EC746A",
"L. c #E47B71",
"P. c #B3893A",
"I. c #B89239",
"U. c #C19537",
"Y. c #AF974F",
"T. c #B1914D",
"R. c #AD8A65",
"E. c #B58967",
"W. c #BB847C",
"Q. c #AC9374",
"!. c #AC897A",
"~. c #D2807B",
"^. c #CC9B7C",
"/. c #967C83",
"(. c #A98886",
"). c #BA928D",
"_. c #AF9290",
"`. c #AF879A",
"'. c #B8A18F",
"]. c #B39CAC",
"[. c #B8A7A6",
"{. c #D89A89",
"}. c #D98780",
"|. c #CEA28B",
" X c #D6A788",
".X c #D0AA97",
"XX c #CE9EAF",
"oX c #CBACAC",
"OX c #C3ACAE",
"+X c #CDB0A8",
"@X c #D0B8AE",
"#X c #D5BAB1",
"$X c #D9ADB4",
"%X c #E2A8A8",
"&X c #DBC3BC",
"*X c #F5C9B5",
"=X c #BDB0C1",
"-X c #CFB5CE",
";X c #D5B5CA",
":X c #DACAC9",
">X c #DFD4D1",
",X c #F6CDC7",
"<X c #F7D2C8",
"1X c #FFCED0",
"2X c #E7D3CC",
"3X c #E8DBED",
"4X c #F1DCF1",
"5X c #EFE3F4",
"6X c #F4E5F7",
"7X c None",
/* pixels */
"7X7X7X7X7X7X7X7X7X7X7X7X7X7X7X7X7X7X7X7X7X7X7X7X7X7X7X7X7X7X7X7X7X7X7X7X7X7X7X7X7X7X7X7X7X",
"7X7X7X7X7X7X7X7X7X7X7X7X7X7X7X7X7X7X7X7X7X7X7X7X7X7X7X7X7X7X7X7X7X7X7X7X7X7X7X7X7X7X7X7X7X",
"7X7X7X7X7X7X7X7X7X7X7X7X7X7X7X7X7X7X7X7X7X7X7X7X7X7X7X7X7X7X7X7X7X7X7X7X7X7X7X7X7X7X7X7X7X",
"7X7X7X7X7X7X7X7X7X7X7X7X7X7X7X7X7X7X7X7X7X7X7X7X7X7X7X7X7X7X7X7X7X7X7X7X7X7X7X7X7X7X7X7X7X",
"7X7X7X7X7X7X7X7X7X7X7X7X7X7X7X7X7X7X7X7X7X7X7X7X7X7X7X7X7X7X7X7X7X7X7X7X7X7X7X7X7X7X7X7X7X",
"7X7X7X7X7X7X7X7X7X7X7X7X7X7X7X7X7X7X7X7X7X7X7X7X7X7X7X7X7X7X7X7X7X7X7X7X7X7X7X7X7X7X7X7X7X",
"7X7X7X7X7X7X7X7X7X7X7X7X7X7X7X7X7X7X7X7X7X7X7X7X7X7X7X7X7X7X7X7X7X7X7X7X7X7X7X7X7X7X7X7X7X",
"7X7X7X7X7X7X7X7X7X7X7X7X7X7X7X7X7X7X7X7X7X7X7X7X7X7X7X7X7X7X7X7X7X7X7X7X7X7X7X7X7X7X7X7X7X",
"7X7X7X7X7X7X7X7X7X7X7X7X7X7X7X7X7X7X7X7X7X7X7X7X7X7X7X7X7X7X7X7X7X7X7X7X7X7X7X7X7X7X7X7X7X",
"7X7X7X7X7X7X7X7X7X7X7X7X7X7X7X7X7Xi y u v n n n b k [ 7X7X7X7X7X7X7X7X7X7X7X7X7X7X7X7X7X7X",
"7X7X7X7X7X7X7X7X7X7X7X7X7X7Xa i u h.~.Z.A.A.S.n.V.e.:.k 7X7X7X7X7X7X7X7X7X7X7X7X7X7X7X7X7X",
"7X7X7X7X7X7X7X7X7X7X7X7X7Xc <.p.B.S.N.N.m.J.J.N.N.M.j.,.k 7X7X7X7X7X7X7X7X7X7X7X7X7X7X7X7X",
"7X7X7X7X7X7X7X7X7X7X7X7X7Xk p.B.c.G.m.G.G.c.c.c.D.m.M.f.p 7X7X7X7X7X7X7X7X7X7X7X7X7X7X7X7X",
"7X7X7X7X7X7X7X7X7X7X7X7X7Xv S.N.G.G.G.G.H.H.H.H.D.b.A.C.p 7X7X7X7X7X7X7X7X7X7X7X7X7X7X7X7X",
"7X7X7X7X7X7X7X7X7X7X7Xj Q >.A.b.c.G.G.G.H.c.x.x.J.L.S.C.$X/.T 7X7X7X7X7X7X7X7X7X7X7X7X7X7X",
"7X7X7X7X7X7X7X7X7X7X7Xh M ,.A.J.K.H.G.G.D.H.F.D.D.N.}.%X(.#./ 7X7X7X7X7X7X7X7X7X7X7X7X7X7X",
"7X7X7X7X7X7X7X7X7X7X7Xc M e.v.K.x.H.G.G.G.c.c.J.J.B.{.1X:.#.` R 7X7X7X7X7X7X7X7X7X7X7X7X7X",
"7X7X7X7X7X7X7X7X7X7X7Xr N ,.4.l.K.J.J.N.J.H.H.K.b.r.j.1Xa.].5X6X#.T 7X7X7X7X7X7X7X7X7X7X7X",
"7X7X7X7X7X7X7X7X7X7X7Xh M e.0.q.k.k.q.q.q.k.5.5.l.r.,.h.XX-X6X5X#.2 7X7X7X7X7X7X7X7X7X7X7X",
"7X7X7X7X7X7X7X7X7X7X7Xh M ,.3.9.q.0.0.0.9.9.9.9.1.2.w.>.`.-X5X3X@.T 7X7X7X7X7X7X7X7X7X7X7X",
"7X7X7X7X7X7X7X7X7X7X7Xx M >.w.8.1.2.7.7.7.9.9.2.2.2.e.>.Q /.4X-Xo.7X7X7X7X7X7X7X7X7X7X7X7X",
"7X7X7X7X7X7X7X7X7X7X7Xa r b <.8.r.7.6.7.7.7.6.8.2.;.;.~ $X;X-XT 7X7X7X7X7X7X7X7X7X7X7X7X7X",
"7X7X7X7X7X7X7X7X7X7X7Xa c M <.$.$.N P { P &.$.P ~ ~ ~ W d.s.s.7X7X7X7X7X7X7X7X7X7X7X7X7X7X",
"7X7X7X7X7X7X7X7X7X7X7Xs s ] p b b b p i y v u y r R 2 E E h g 7X7X7X7X7X7X7X7X7X7X7X7X7X7X",
"7X7X7X7X7X7X7X7X7X7X7X7X7Xs } *.I I Y K 9 P m 8 [ /.d.+ ' [ } 7X7X7X7X7X7X7X7X7X7X7X7X7X7X",
"7X7X7X7X7X7X7X7X7X7X7X7X7X- f F G G w F R.E.=.D !.$X[.o _.d.( 7X7X7X7X7X7X7X7X7X7X7X7X7X7X",
"7X7X7X7X7X7X7X7X7X7X7X7X7X@ 7 D I I 9 F  X^.i.G .X<X&Xr +X!.X.7X7X7X7X7X7X7X7X7X7X7X7X7X7X",
"7X7X7X7X7X7X7X7X7X7X7X7X7X7Xa K U U d P {.|.^. X*X*X,X<X2X&X7X7X7X7X7X7X7X7X7X7X7X7X7X7X7X",
"7X7X7X7X7X7X7X7X7X7X7X7X7X7X7X+ o & K P e  X X^. X*X<X,XK X.7X7X7X7X7X7X7X7X7X7X7X7X7X7X7X",
"7X7X7X7X7X7X7X7X7X7X7X7X7X7X7X, - D D V 9 i.E.{.g.W.).).7X7X7X7X7X7X7X7X7X7X7X7X7X7X7X7X7X",
"7X7X7X7X7X7X7X7X7X7X7X7X7X7X7XB q Y.V 6 6 6 t..XK [ L ] 7X7X7X7X7X7X7X7X7X7X7X7X7X7X7X7X7X",
"7X7X7X7X7X7X7X7X7X7X7X7X7X7Xs u.Y.I.P.T.*.Q.'.@X+X:.] 7X7X7X7X7X7X7X7X7X7X7X7X7X7X7X7X7X7X",
"7X7X7X7X7X7X7X7X7X7X7X7X7X7X= Z %.I.U.=.: U ..X.l ] | 7X7X7X7X7X7X7X7X7X7X7X7X7X7X7X7X7X7X",
"7X7X7X7X7X7X7X7X7X7X7X7X7X7XX B C I.P.=.O A z A + S ) z 7X7X7X7X7X7X7X7X7X7X7X7X7X7X7X7X7X",
"7X7X7X7X7X7X7X7X7X7X7X7X7X7XX } R.H J D X A z A l # # 3 7X7X7X7X7X7X7X7X7X7X7X7X7X7X7X7X7X",
"7X7X7X7X7X7X7X7X7X7X7X7X7X7XX 0 } Q., O #   $ 4 >X>X[.X / 7X7X7X7X7X7X7X7X7X7X7X7X7X7X7X7X",
"7X7X7X7X7X7X7X7X7X7X7X7X7X7X, 7 y } 4 > 1 1 1 $ :X>XOXo x g 7X7X7X7X7X7X7X7X7X7X7X7X7X7X7X",
"7X7X7X7X7X7X7X7X7X7X7X7X7X7X! 5 & X z ^ +.+.^ # [.:XoX& c < X 7X7X7X7X7X7X7X7X7X7X7X7X7X7X",
"7X7X7X7X7X7X7X7X7X7X7X7X7X* { ~ Q E o._ . % . #   X ; E E h @ 7X7X7X7X7X7X7X7X7X7X7X7X7X7X",
"7X7X7X7X7X7X7X7X7X7X7X7X7X* ! -.-.' 2 $ 7X7X7X7X7X7X7X; ; ; 7X7X7X7X7X7X7X7X7X7X7X7X7X7X7X",
"7X7X7X7X7X7X7X7X7X7X7X7X7X* Q  . .' + 7X7X7X7X7X7X7X7X+ . 7X7X7X7X7X7X7X7X7X7X7X7X7X7X7X7X",
"7X7X7X7X7X7X7X7X7X7X7X7X7X7Xo o * X 7X7X7X7X7X7X7X7X7X7X7X7X7X7X7X7X7X7X7X7X7X7X7X7X7X7X7X",
"7X7X7X7X7X7X7X7X7X7X7X7X7X7X7X7X7X7X7X7X7X7X7X7X7X7X7X7X7X7X7X7X7X7X7X7X7X7X7X7X7X7X7X7X7X",
"7X7X7X7X7X7X7X7X7X7X7X7X7X7X7X7X7X7X7X7X7X7X7X7X7X7X7X7X7X7X7X7X7X7X7X7X7X7X7X7X7X7X7X7X7X",
"7X7X7X7X7X7X7X7X7X7X7X7X7X7X7X7X7X7X7X7X7X7X7X7X7X7X7X7X7X7X7X7X7X7X7X7X7X7X7X7X7X7X7X7X7X"
};
