/* XPM */
static char *result[] = {
/* columns rows colors chars-per-pixel */
"45 45 209 2 ",
"   c #0D0103",
".  c #0B010A",
"X  c #140303",
"o  c #1D0404",
"O  c #1B080B",
"+  c #1E1108",
"@  c #220503",
"#  c #210C06",
"$  c #2A1609",
"%  c #33170A",
"&  c #281918",
"*  c #361C1D",
"=  c #2F211A",
"-  c #35231D",
";  c #371D20",
":  c #281C26",
">  c #3B2727",
",  c #3D302D",
"<  c #382C34",
"1  c #3E363E",
"2  c #5E2D0B",
"3  c #5C3300",
"4  c #5A3408",
"5  c #462A1B",
"6  c #4D3B12",
"7  c #5A321A",
"8  c #543B15",
"9  c #532C1D",
"0  c #622B1E",
"q  c #693F19",
"w  c #4B2C2C",
"e  c #432D2B",
"r  c #532D26",
"t  c #5C2C25",
"y  c #542B2C",
"u  c #5C292C",
"i  c #48352C",
"p  c #5A3423",
"a  c #452A34",
"s  c #5D2C32",
"d  c #542C31",
"f  c #433332",
"g  c #4A3134",
"h  c #453A37",
"j  c #52353B",
"k  c #563738",
"l  c #622B2B",
"z  c #642824",
"x  c #683C26",
"c  c #602F31",
"v  c #663639",
"b  c #763C39",
"n  c #5C471E",
"m  c #63421E",
"M  c #704C11",
"N  c #795517",
"B  c #4E4226",
"V  c #5F442C",
"C  c #694627",
"Z  c #754B2B",
"A  c #764A28",
"S  c #7C5528",
"D  c #62453C",
"F  c #6B473A",
"G  c #744D3B",
"H  c #764836",
"J  c #6E533B",
"K  c #795336",
"L  c #473644",
"P  c #573E4B",
"I  c #602F40",
"U  c #653B41",
"Y  c #6C3C4A",
"T  c #7B3E44",
"R  c #763947",
"E  c #4A4146",
"W  c #5D4544",
"Q  c #4A4351",
"!  c #5B4F5F",
"~  c #694848",
"^  c #734941",
"/  c #794648",
"(  c #75584D",
")  c #6B4951",
"_  c #724A54",
"`  c #774E59",
"'  c #695854",
"]  c #6A5758",
"[  c #7A5355",
"{  c #7A525B",
"}  c #765858",
"|  c #645744",
" . c #5B5662",
".. c #7B5B62",
"X. c #716062",
"o. c #6A6270",
"O. c #7B6C74",
"+. c #776775",
"@. c #813A3C",
"#. c #9F721D",
"$. c #8A691B",
"%. c #815039",
"&. c #813D43",
"*. c #874746",
"=. c #974F4C",
"-. c #994B50",
";. c #855151",
":. c #945756",
">. c #9A5658",
",. c #88514A",
"<. c #A84E48",
"1. c #B54E46",
"2. c #A6524C",
"3. c #AC524C",
"4. c #A8594E",
"5. c #B35147",
"6. c #B15149",
"7. c #BC534B",
"8. c #A35452",
"9. c #A95451",
"0. c #A65A5B",
"q. c #B85B53",
"w. c #966A48",
"e. c #807048",
"r. c #9E6D52",
"t. c #AC6159",
"y. c #8D5C64",
"u. c #947A6F",
"i. c #8D717D",
"p. c #8C6C75",
"a. c #AE6263",
"s. c #A97074",
"d. c #BC7F7B",
"f. c #AB7165",
"g. c #C1524A",
"h. c #C05447",
"j. c #CF5F57",
"k. c #DA6E5F",
"l. c #E46A5C",
"z. c #E5705F",
"x. c #C86C67",
"c. c #DA6E64",
"v. c #C9736A",
"b. c #DC7166",
"n. c #D2756D",
"m. c #DB7569",
"M. c #D37468",
"N. c #C17D7C",
"B. c #CA7A74",
"V. c #D67B75",
"C. c #D37670",
"Z. c #E66E61",
"A. c #E86F61",
"S. c #E37263",
"D. c #EA7263",
"F. c #E4756A",
"G. c #EA7369",
"H. c #E47B71",
"J. c #BF9439",
"K. c #B18739",
"L. c #B79242",
"P. c #AD8B5F",
"I. c #B1975A",
"U. c #AB8641",
"Y. c #AC8769",
"T. c #B78969",
"R. c #AF986C",
"E. c #AF877A",
"W. c #D2817A",
"Q. c #997B84",
"!. c #AB8789",
"~. c #B9978C",
"^. c #B29896",
"/. c #AE889A",
"(. c #B7A187",
"). c #B39CAC",
"_. c #CE9B86",
"`. c #D9998A",
"'. c #D29E93",
"]. c #D98780",
"[. c #CDA189",
"{. c #D9A389",
"}. c #D3A893",
"|. c #C9A795",
" X c #C59EA9",
".X c #C5A5A5",
"XX c #C6B1A7",
"oX c #D4B2AF",
"OX c #D7A7B4",
"+X c #D6BAB5",
"@X c #E2A8A8",
"#X c #D7C6B9",
"$X c #F2C8B3",
"%X c #BBB0C1",
"&X c #CDB6CD",
"*X c #D4B6CA",
"=X c #DAC4C0",
"-X c #EECDC4",
";X c #FFCDCD",
":X c #E8D1C4",
">X c #F2D0C3",
",X c #F3D3CB",
"<X c #FFCED0",
"1X c #E9D5D4",
"2X c #E6DCED",
"3X c #F0DDF1",
"4X c #EFE5F5",
"5X c #F6E6F9",
"6X c None",
/* pixels */
"6X6X6X6X6X6X6X6X6X6X6X6X6X6X6X6X6X6X6X6X6X6X6X6X6X6X6X6X6X6X6X6X6X6X6X6X6X6X6X6X6X6X6X6X6X",
"6X6X6X6X6X6X6X6X6X6X6X6X6X6X6X6X6X6X6X6X6X6X6X6X6X6X6X6X6X6X6X6X6X6X6X6X6X6X6X6X6X6X6X6X6X",
"6X6X6X6X6X6X6X6X6X6X6X6X6X6X6X6X6X6X6X6X6X6X6X6X6X6X6X6X6X6X6X6X6X6X6X6X6X6X6X6X6X6X6X6X6X",
"6X6X6X6X6X6X6X6X6X6X6X6X6X6X6X6X6X6X6X6X6X6X6X6X6X6X6X6X6X6X6X6X6X6X6X6X6X6X6X6X6X6X6X6X6X",
"6X6X6X6X6X6X6X6X6X6X6X6X6X6X6X6X6X6X6X6X6X6X6X6X6X6X6X6X6X6X6X6X6X6X6X6X6X6X6X6X6X6X6X6X6X",
"6X6X6X6X6X6X6X6X6X6X6X6X6X6X6X6X6X6X6X6X6X6X6X6X6X6X6X6X6X6X6X6X6X6X6X6X6X6X6X6X6X6X6X6X6X",
"6X6X6X6X6X6X6X6X6X6X6X6X6X6X6X6X6X6X6X6X6X6X6X6X6X6X6X6X6X6X6X6X6X6X6X6X6X6X6X6X6X6X6X6X6X",
"6X6X6X6X6X6X6X6X6X6X6X6X6X6X6X6X6X6X6X6X6X6X6X6X6X6X6X6X6X6X6X6X6X6X6X6X6X6X6X6X6X6X6X6X6X",
"6X6X6X6X6X6X6X6X6X6X6X6X6X6X6X6X6X6X6X6X6X6X6X6X6X6X6X6X6X6X6X6X6X6X6X6X6X6X6X6X6X6X6X6X6X",
"6X6X6X6X6X6X6X6X6X6X6X6X6X6X6X6X6Xy r t z z z z l u ~ 6X6X6X6X6X6X6X6X6X6X6X6X6X6X6X6X6X6X",
"6X6X6X6X6X6X6X6X6X6X6X6X6X6Xi r t E.B.B.C.C.V.v.B.>.;.k 6X6X6X6X6X6X6X6X6X6X6X6X6X6X6X6X6X",
"6X6X6X6X6X6X6X6X6X6X6X6X6Xk ,.0.M.m.M.m.m.F.F.m.m.n.v.>.s 6X6X6X6X6X6X6X6X6X6X6X6X6X6X6X6X",
"6X6X6X6X6X6X6X6X6X6X6X6X6Xs t.M.c.b.S.S.S.D.l.S.Z.b.n.a.u 6X6X6X6X6X6X6X6X6X6X6X6X6X6X6X6X",
"6X6X6X6X6X6X6X6X6X6X6X6X6Xt W.m.S.z.S.z.z.D.D.D.b.c.n.N.s 6X6X6X6X6X6X6X6X6X6X6X6X6X6X6X6X",
"6X6X6X6X6X6X6X6X6X6X6Xa U >.n.c.z.z.S.S.S.z.l.l.F.H.V.N.OXQ.1 6X6X6X6X6X6X6X6X6X6X6X6X6X6X",
"6X6X6X6X6X6X6X6X6X6X6Xg v >.n.S.G.S.S.z.S.A.A.Z.Z.m.].@X!.O.Q 6X6X6X6X6X6X6X6X6X6X6X6X6X6X",
"6X6X6X6X6X6X6X6X6X6X6Xj v 0.x.F.l.D.S.S.S.z.z.D.F.M.`.<Xy.o.! Q 6X6X6X6X6X6X6X6X6X6X6X6X6X",
"6X6X6X6X6X6X6X6X6X6X6Xw b -.1.j.G.F.b.F.S.z.F.G.c.q.a.<Xy.).4X4X+.1 6X6X6X6X6X6X6X6X6X6X6X",
"6X6X6X6X6X6X6X6X6X6X6Xy v 0.2.7.g.g.7.7.7.h.1.1.q.q.2.s. X*X5X4X+.< 6X6X6X6X6X6X6X6X6X6X6X",
"6X6X6X6X6X6X6X6X6X6X6Xg v >.<.5.7.5.6.6.5.1.5.5.<.<.8.y./.*X4X2Xo.L 6X6X6X6X6X6X6X6X6X6X6X",
"6X6X6X6X6X6X6X6X6X6X6Xg v :.8.3.<.6.9.9.6.6.6.<.<.9.0.>.Y Q.3X&X .1 6X6X6X6X6X6X6X6X6X6X6X",
"6X6X6X6X6X6X6X6X6X6X6Xf w l =.4.q.9.9.8.9.3.3.9.3.-.-.R OX*X&XL 6X6X6X6X6X6X6X6X6X6X6X6X6X",
"6X6X6X6X6X6X6X6X6X6X6Xf k v ;.@.T &.T T T %.@.H T R R I p.i.+.6X6X6X6X6X6X6X6X6X6X6X6X6X6X",
"6X6X6X6X6X6X6X6X6X6X6Xh i _ u l z s d d u t 7 r w a a L L a , 6X6X6X6X6X6X6X6X6X6X6X6X6X6X",
"6X6X6X6X6X6X6X6X6X6X6X6X6Xw ^ K %.K K F 7 K C 9 ~ Q.i.O ~ W ' 6X6X6X6X6X6X6X6X6X6X6X6X6X6X",
"6X6X6X6X6X6X6X6X6X6X6X6X6X$ p Z N N m A Y.Y.w.x E.+X X@ /.p.W 6X6X6X6X6X6X6X6X6X6X6X6X6X6X",
"6X6X6X6X6X6X6X6X6X6X6X6X6XO 5 C A %.7 A {._.r.S }.>X#Xw oX!.} 6X6X6X6X6X6X6X6X6X6X6X6X6X6X",
"6X6X6X6X6X6X6X6X6X6X6X6X6X6Xf D J S 7 H '._.{.}.$X;X,X,X$X#X6X6X6X6X6X6X6X6X6X6X6X6X6X6X6X",
"6X6X6X6X6X6X6X6X6X6X6X6X6X6X6X$ o @ F C 0 `.{.W._.$X>X-X| u.6X6X6X6X6X6X6X6X6X6X6X6X6X6X6X",
"6X6X6X6X6X6X6X6X6X6X6X6X6X6X6X= $ C C q 2 w.T.[.u.E.~.~.( 6X6X6X6X6X6X6X6X6X6X6X6X6X6X6X6X",
"6X6X6X6X6X6X6X6X6X6X6X6X6X6X6XB 8 I.M 3 3 4 w.}.G ^ ^ D 6X6X6X6X6X6X6X6X6X6X6X6X6X6X6X6X6X",
"6X6X6X6X6X6X6X6X6X6X6X6X6X6Xi e.I.L.L.U.N R.(.XX.X[ ~ 6X6X6X6X6X6X6X6X6X6X6X6X6X6X6X6X6X6X",
"6X6X6X6X6X6X6X6X6X6X6X6X6X6X$ n $.J.#.N % | ' ' } } _ k 6X6X6X6X6X6X6X6X6X6X6X6X6X6X6X6X6X",
"6X6X6X6X6X6X6X6X6X6X6X6X6X6XX 6 N K.$.8 # E 1 < j ) { j 6X6X6X6X6X6X6X6X6X6X6X6X6X6X6X6X6X",
"6X6X6X6X6X6X6X6X6X6X6X6X6X6X+ J Y.S $ % k h : . P _ { j 6X6X6X6X6X6X6X6X6X6X6X6X6X6X6X6X6X",
"6X6X6X6X6X6X6X6X6X6X6X6X6X6X  i K Y.5 e #X1Xp.  ] { { ) 6X6X6X6X6X6X6X6X6X6X6X6X6X6X6X6X6X",
"6X6X6X6X6X6X6X6X6X6X6X6X6X6X= - r ( $ e #X+XX.  ..) Y ` 6X6X6X6X6X6X6X6X6X6X6X6X6X6X6X6X6X",
"6X6X6X6X6X6X6X6X6X6X6X6X6X6X1 & @ o @ , XX^.]   ) U v [ e 6X6X6X6X6X6X6X6X6X6X6X6X6X6X6X6X",
"6X6X6X6X6X6X6X6X6X6X6X6X6X6XB L j W h >   X > h ..{ [ [ @ 6X6X6X6X6X6X6X6X6X6X6X6X6X6X6X6X",
"6X6X6X6X6X6X6X6X6X6X6X6X6X6X6X: ; & 6X6X6X6X6X6X: * ; e 6X6X6X6X6X6X6X6X6X6X6X6X6X6X6X6X6X",
"6X6X6X6X6X6X6X6X6X6X6X6X6X6X6X6XX O 6X6X6X6X6X6X# X + X 6X6X6X6X6X6X6X6X6X6X6X6X6X6X6X6X6X",
"6X6X6X6X6X6X6X6X6X6X6X6X6X6X6X6X6X6X6X6X6X6X6X6X6X6X6X6X6X6X6X6X6X6X6X6X6X6X6X6X6X6X6X6X6X",
"6X6X6X6X6X6X6X6X6X6X6X6X6X6X6X6X6X6X6X6X6X6X6X6X6X6X6X6X6X6X6X6X6X6X6X6X6X6X6X6X6X6X6X6X6X",
"6X6X6X6X6X6X6X6X6X6X6X6X6X6X6X6X6X6X6X6X6X6X6X6X6X6X6X6X6X6X6X6X6X6X6X6X6X6X6X6X6X6X6X6X6X",
"6X6X6X6X6X6X6X6X6X6X6X6X6X6X6X6X6X6X6X6X6X6X6X6X6X6X6X6X6X6X6X6X6X6X6X6X6X6X6X6X6X6X6X6X6X"
};
