/* XPM */
static char *result[] = {
/* columns rows colors chars-per-pixel */
"45 45 225 2 ",
"   c #040103",
".  c #0B0404",
"X  c #020309",
"o  c #0E0B0E",
"O  c #140403",
"+  c #1A0303",
"@  c #1B0904",
"#  c #13050C",
"$  c #190908",
"%  c #0E100E",
"&  c #040B15",
"*  c #110310",
"=  c #181618",
"-  c #230502",
";  c #230F0E",
":  c #27130E",
">  c #241B1B",
",  c #271816",
"<  c #37161C",
"1  c #361A0D",
"2  c #34221F",
"3  c #3D1A20",
"4  c #2E2121",
"5  c #23242D",
"6  c #3A2625",
"7  c #38352F",
"8  c #242836",
"9  c #393635",
"0  c #302F36",
"q  c #651C16",
"w  c #4D331F",
"e  c #53351D",
"r  c #492C24",
"t  c #432E2C",
"y  c #492C2C",
"u  c #462824",
"i  c #592D2C",
"p  c #562C28",
"a  c #4B392A",
"s  c #563729",
"d  c #492A38",
"f  c #552D31",
"g  c #4E3132",
"h  c #4D3B34",
"j  c #49383B",
"k  c #543231",
"l  c #583739",
"z  c #672B2C",
"x  c #603A35",
"c  c #673E26",
"v  c #4C4536",
"b  c #5A4231",
"n  c #654339",
"m  c #794934",
"M  c #714C37",
"N  c #7C563C",
"B  c #2B3240",
"V  c #3B3C45",
"C  c #462A43",
"Z  c #493C46",
"A  c #573D49",
"S  c #653D43",
"D  c #3B464F",
"F  c #474848",
"G  c #544546",
"H  c #5C4D49",
"J  c #594548",
"K  c #454B54",
"L  c #494A56",
"P  c #56504C",
"I  c #6A4A45",
"U  c #6A4B4A",
"Y  c #634846",
"T  c #764947",
"R  c #6C5346",
"E  c #785545",
"W  c #704F52",
"Q  c #655151",
"!  c #6E5957",
"~  c #735D5C",
"^  c #785653",
"/  c #716148",
"(  c #7A655B",
")  c #525E67",
"_  c #49596D",
"`  c #556573",
"'  c #596677",
"]  c #766468",
"[  c #7F6171",
"{  c #82573D",
"}  c #9C534C",
"|  c #845452",
" . c #8A5957",
".. c #935453",
"X. c #9B5955",
"o. c #9D575C",
"O. c #9B5B5A",
"+. c #955857",
"@. c #8E5C49",
"#. c #A4534E",
"$. c #AB544B",
"%. c #B3554B",
"&. c #A55955",
"*. c #B65952",
"=. c #876855",
"-. c #976359",
";. c #92644C",
":. c #A07A5E",
">. c #985B62",
",. c #8A5661",
"<. c #836C65",
"1. c #8D6168",
"2. c #936F67",
"3. c #986869",
"4. c #9F716F",
"5. c #816477",
"6. c #896A73",
"7. c #906170",
"8. c #89707D",
"9. c #9C787C",
"0. c #A86868",
"q. c #BB6B68",
"w. c #A57F64",
"e. c #B9746E",
"r. c #CB5E53",
"t. c #DF6A59",
"y. c #E46D5C",
"u. c #EA705F",
"i. c #D86E65",
"p. c #CE736B",
"a. c #DF7265",
"s. c #D3766C",
"d. c #DB736A",
"f. c #D3786D",
"g. c #D67165",
"h. c #CB7A73",
"j. c #C77776",
"k. c #D57A75",
"l. c #D77975",
"z. c #CA6D69",
"x. c #E26E61",
"c. c #E57264",
"v. c #EB7162",
"b. c #E37369",
"n. c #E3786C",
"m. c #EB7968",
"M. c #9F847C",
"N. c #AB8A6C",
"B. c #A98776",
"V. c #B9967A",
"C. c #B28974",
"Z. c #CC837D",
"A. c #DD827A",
"S. c #998784",
"D. c #9B8B93",
"F. c #968494",
"G. c #9B9581",
"H. c #A28D85",
"J. c #A98789",
"K. c #B58684",
"L. c #AB968A",
"P. c #B4978D",
"I. c #AB8694",
"U. c #A79598",
"Y. c #B59F9A",
"T. c #B89F99",
"R. c #B69C94",
"E. c #B0A096",
"W. c #AA9AB1",
"Q. c #BEA6A1",
"!. c #BBAAA7",
"~. c #CF8281",
"^. c #D18883",
"/. c #C89996",
"(. c #D7989F",
"). c #C5A393",
"_. c #C3A39A",
"`. c #C4AA9E",
"'. c #C7A995",
"]. c #D3AC90",
"[. c #D4B191",
"{. c #C6A589",
"}. c #D49CA5",
"|. c #C6ABA3",
" X c #D6ADA3",
".X c #DFBAA3",
"XX c #D7B7AA",
"oX c #CAABB3",
"OX c #CCA6BB",
"+X c #CEABBA",
"@X c #C6AFB4",
"#X c #DAACBB",
"$X c #D9B8B8",
"%X c #C4B6A5",
"&X c #E3B3BC",
"*X c #E6C6AC",
"=X c #F3CEAF",
"-X c #E5C7B5",
";X c #F0CFB5",
":X c #F2D2B4",
">X c #F3D2BA",
",X c #F8D6B7",
"<X c #C6AEC6",
"1X c #CBADC6",
"2X c #C7B4C6",
"3X c #CCB0C7",
"4X c #C5B5CD",
"5X c #C9B8CA",
"6X c #D4B3C7",
"7X c #CEB4CC",
"8X c #EDCEC5",
"9X c #FBCAC7",
"0X c #EDD3C8",
"qX c #F1D2C2",
"wX c #FADBC5",
"eX c #FFCDD0",
"rX c #FDD1D5",
"tX c #DFD6EE",
"yX c #D1C6E4",
"uX c #F1D9E6",
"iX c #ECE0EF",
"pX c #EEE6F9",
"aX c #F4EAFD",
"sX c #FFF6F4",
"dX c None",
/* pixels */
"dXdXdXdXdXdXdXdXdXdXdXdXdXdXdXdXdXdXdXdXdXdXdXdXdXdXdXdXdXdXdXdXdXdXdXdXdXdXdXdXdXdXdXdXdX",
"dXdXdXdXdXdXdXdXdXdXdXdXdXdXdXdXdXdXdXdXdXdXdXdXdXdXdXdXdXdXdXdXdXdXdXdXdXdXdXdXdXdXdXdXdX",
"dXdXdXdXdXdXdXdXdXdXdXdXdXdXdXdXdXdXdXdXdXdXdXdXdXdXdXdXdXdXdXdXdXdXdXdXdXdXdXdXdXdXdXdXdX",
"dXdXdXdXdXdXdXdXdXdXdXdXdXdXdXdXdXdXdXdXdXdXdXdXdXdXdXdXdXdXdXdXdXdXdXdXdXdXdXdXdXdXdXdXdX",
"dXdXdXdXdXdXdXdXdXdXdXdXdXdXdXdXdXdXdXdXdXdXdXdXdXdXdXdXdXdXdXdXdXdXdXdXdXdXdXdXdXdXdXdXdX",
"dXdXdXdXdXdXdXdXdXdXdXdXdXdXdXdXdXdXdXdXdXdXdXdXdXdXdXdXdXdXdXdXdXdXdXdXdXdXdXdXdXdXdXdXdX",
"dXdXdXdXdXdXdXdXdXdXdXdXdXdXdXdXdXdXdXdXdXdXdXdXdXdXdXdXdXdXdXdXdXdXdXdXdXdXdXdXdXdXdXdXdX",
"dXdXdXdXdXdXdXdXdXdXdXdXdXdXdXdXdXk k f f f f y y y dXdXdXdXdXdXdXdXdXdXdXdXdXdXdXdXdXdXdX",
"dXdXdXdXdXdXdXdXdXdXdXdXdXdXdXdXdXX.X.X.X.X.X.X.-.O.| dXdXdXdXdXdXdXdXdXdXdXdXdXdXdXdXdXdX",
"dXdXdXdXdXdXdXdXdXdXdXdXdXdXl z q h.f.s.s.s.f.s.p.h.q.p x dXdXdXdXdXdXdXdXdXdXdXdXdXdXdXdX",
"dXdXdXdXdXdXdXdXdXdXdXdXdXu | 0.A.d.c.x.c.a.c.c.b.d.f.Z. .T l dXdXdXdXdXdXdXdXdXdXdXdXdXdX",
"dXdXdXdXdXdXdXdXdXdXdXdXdXf o.q.i.x.u.u.y.m.v.b.v.y.c.f.&.T y dXdXdXdXdXdXdXdXdXdXdXdXdXdX",
"dXdXdXdXdXdXdXdXdXdXdXdXdXi j.l.d.b.v.c.m.a.d.d.c.v.v.i.p. .f dXdXdXdXdXdXdXdXdXdXdXdXdXdX",
"dXdXdXdXdXdXdXdXdXdXdXdXdXz j.d.b.b.n.d.f.f.k.l.n.y.y.b.k...f dXdXdXdXdXdXdXdXdXdXdXdXdXdX",
"dXdXdXdXdXdXdXdXdXdXdX# < z z.b.b.i.k.Z.Z.^.~.~.p.n.n.n.s.X.f $ dXdXdXdXdXdXdXdXdXdXdXdXdX",
"dXdXdXdXdXdXdXdXdXdXdXd S +.%.r.b.l.j./.eXeXeX9X~.p.d.g.%.X.,.g dXdXdXdXdXdXdXdXdXdXdXdXdX",
"dXdXdXdXdXdXdXdXdXdXdX# 3 ..$.%.*.&.(.&XrX7./.uX(.j.*.*.$.&.>.+ dXdXdXdXdXdXdXdXdXdXdXdXdX",
"dXdXdXdXdXdXdXdXdXdXdX. <  .#.$.$.o.}.6XOX7.I.+X#X0.o.&.#.}  .+ dXdXdXdXdXdXdXdXdXdXdXdXdX",
"dXdXdXdXdXdXdXdXdXdXdX. 2 ^ -.O.o.,.OXOX5.6.[ 5.3X9.3.o.&.} T - dXdXdXdXdXdXdXdXdXdXdXdXdX",
"dXdXdXdXdXdXdXdXdXdXdX. : r >.K.#X6X1X<X3X6X5X2X2X3X6X#X>.T i - dXdXdXdXdXdXdXdXdXdXdXdXdX",
"dXdXdXdXdXdXdXdXdXdX9 $ ; y 6.I.1X1X4X4X7X7X5X5X4X4X1X1X7.S p - > dXdXdXdXdXdXdXdXdXdXdXdX",
"dXdXdXdXdXdXdXdXdXdXo H.B.U d C Z 4XtXpXpXaXiXtXpXyXW.C d l ,.Y.h   dXdXdXdXdXdXdXdXdXdXdX",
"dXdXdXdXdXdXdXdXdXdX  S.M.Y A J A I.U.U.F.U.D.D.W.F.F.A Y S l Q.7   dXdXdXdXdXdXdXdXdXdXdX",
"dXdXdXdXdXdXdXdXdXdX= S.G.r ^ I ~ W W A g 2 y l J ~ ! W Y I r Y.7 dXdXdXdXdXdXdXdXdXdXdXdX",
"dXdXdXdXdXdXdXdXdXdXdX$ $ a T.9.I _.n I '.`.|.R.j S.L.! `.<.h O dXdXdXdXdXdXdXdXdXdXdXdXdX",
"dXdXdXdXdXdXdXdXdXdXdXdXdX: T.P.P.0Xs s -X*X&X-X; |.XXP.P.<., dXdXdXdXdXdXdXdXdXdXdXdXdXdX",
"dXdXdXdXdXdXdXdXdXdXdXdXdX$ H.R.).wXI E ;X>XwXqXu XX8X`.H.( $ dXdXdXdXdXdXdXdXdXdXdXdXdXdX",
"dXdXdXdXdXdXdXdXdXdXdXdXdXdX+ ^ ).,X:X=X,X=X>X>X;X>X-XE.$ ; dXdXdXdXdXdXdXdXdXdXdXdXdXdXdX",
"dXdXdXdXdXdXdXdXdXdXdXdXdXdX+ r M {.*X,X=X[..XqX,X[.V.M O . . dXdXdXdXdXdXdXdXdXdXdXdXdXdX",
"dXdXdXdXdXdXdXdXdXdXdXdXdXdXO b =.N.N.V..X'.[.$XB.w.N.=.: , > dXdXdXdXdXdXdXdXdXdXdXdXdXdX",
"dXdXdXdXdXdXdXdXdXdXdXdXdXdX. R N.{ c M ).)._./.p m N N.b h G G dXdXdXdXdXdXdXdXdXdXdXdXdX",
"dXdXdXdXdXdXdXdXdXdXdXdXdX7 b a s C.).C.k u k k  X-.;.V.w h 7 |.=.dXdXdXdXdXdXdXdXdXdXdXdX",
"dXdXdXdXdXdXdXdXdXdXdXdXdXv G./ e ;.-.4.J.Z ] I.0.@.m p 1 Y M.E.=.n dXdXdXdXdXdXdXdXdXdXdX",
"dXdXdXdXdXdXdXdXdXdXdXdXdX! %X( s T | 2.oXj 8.+X^ E n - 6 ~ L.R.=.dXdXdXdXdXdXdXdXdXdXdXdX",
"dXdXdXdXdXdXdXdXdXdXdXI 2.0X0X( + I W 6.oXG 6.@X~ Q h + sX!.H H dXdXdXdXdXdXdXdXdXdXdXdXdX",
"dXdXdXdXdXdXdXdXdXdXdXR 2.0X0X<.@ y , + .   * * X X = j . 4 dXdXdXdXdXdXdXdXdXdXdXdXdXdXdX",
"dXdXdXdXdXdXdXdXdXdXdXdX<.E.E.] , 4 > = > = 5 B B 8 8 K & % dXdXdXdXdXdXdXdXdXdXdXdXdXdXdX",
"dXdXdXdXdXdXdXdXdXdXdXdXdXH P dXdX. 7 F 0 K D _ ' ` ` ) & o dXdXdXdXdXdXdXdXdXdXdXdXdXdXdX",
"dXdXdXdXdXdXdXdXdXdXdXdXdXdXdXdXdXdX%   & X & & ' ` ) D X dXdXdXdXdXdXdXdXdXdXdXdXdXdXdXdX",
"dXdXdXdXdXdXdXdXdXdXdXdXdXdXdXdXdXdXdXdXdXdX5 5 K K V = dXdXdXdXdXdXdXdXdXdXdXdXdXdXdXdXdX",
"dXdXdXdXdXdXdXdXdXdXdXdXdXdXdXdXdXdXdXdXdXdXdXj Z Z 7 o dXdXdXdXdXdXdXdXdXdXdXdXdXdXdXdXdX",
"dXdXdXdXdXdXdXdXdXdXdXdXdXdXdXdXdXdXdXdXdXdXdX$ Q ~ J O dXdXdXdXdXdXdXdXdXdXdXdXdXdXdXdXdX",
"dXdXdXdXdXdXdXdXdXdXdXdXdXdXdXdXdXdXdXdXdXdXdXdX@ + $ dXdXdXdXdXdXdXdXdXdXdXdXdXdXdXdXdXdX",
"dXdXdXdXdXdXdXdXdXdXdXdXdXdXdXdXdXdXdXdXdXdXdXdX. ; dXdXdXdXdXdXdXdXdXdXdXdXdXdXdXdXdXdXdX",
"dXdXdXdXdXdXdXdXdXdXdXdXdXdXdXdXdXdXdXdXdXdXdXdXdXdXdXdXdXdXdXdXdXdXdXdXdXdXdXdXdXdXdXdXdX"
};
