/* XPM */
static char *result[] = {
/* columns rows colors chars-per-pixel */
"45 45 229 2 ",
"   c #030403",
".  c #0C0303",
"X  c #0D040B",
"o  c #060709",
"O  c #130401",
"+  c #180404",
"@  c #140A06",
"#  c #1C0209",
"$  c #130A09",
"%  c #1B0C0B",
"&  c #150709",
"*  c #020811",
"=  c #150710",
"-  c #091216",
";  c #1C1718",
":  c #1B1718",
">  c #250600",
",  c #250B06",
"<  c #2B110E",
"1  c #221313",
"2  c #2D1713",
"3  c #271A18",
"4  c #381615",
"5  c #2A0A13",
"6  c #33201B",
"7  c #2A221D",
"8  c #141927",
"9  c #0D1929",
"0  c #271820",
"q  c #1F2024",
"w  c #2F302E",
"e  c #39302F",
"r  c #292C37",
"t  c #3F3F3D",
"y  c #2E2925",
"u  c #46261D",
"i  c #5A351A",
"p  c #68231F",
"a  c #4C2C2B",
"s  c #482928",
"d  c #512D2B",
"f  c #5B2C2B",
"g  c #562825",
"h  c #473628",
"j  c #4C312D",
"k  c #4B382B",
"l  c #462835",
"z  c #552C32",
"x  c #552B35",
"c  c #433334",
"v  c #4D3531",
"b  c #4A3C34",
"n  c #44383B",
"m  c #543738",
"M  c #523723",
"N  c #622A28",
"B  c #63312D",
"V  c #743F31",
"C  c #603938",
"Z  c #5C4435",
"A  c #7D4B3F",
"S  c #795338",
"D  c #694930",
"F  c #2C3A51",
"G  c #493A46",
"H  c #573D46",
"J  c #533A58",
"K  c #3D4241",
"L  c #3F4756",
"P  c #5C4543",
"I  c #5C4945",
"U  c #57454A",
"Y  c #484555",
"T  c #5C4851",
"R  c #464A4B",
"E  c #674144",
"W  c #644B46",
"Q  c #6A4C4C",
"!  c #66444B",
"~  c #6B514B",
"^  c #755947",
"/  c #74524C",
"(  c #7B5C4C",
")  c #635352",
"_  c #6B5455",
"`  c #6A565D",
"'  c #735451",
"]  c #795956",
"[  c #6E4D4F",
"{  c #6F615D",
"}  c #76645F",
"|  c #4D5A6C",
" . c #515B62",
".. c #4D5E74",
"X. c #6E5A61",
"o. c #745B61",
"O. c #5A6479",
"+. c #7E6575",
"@. c #77636D",
"#. c #834937",
"$. c #8A5449",
"%. c #95554A",
"&. c #8A5453",
"*. c #885759",
"=. c #9D5454",
"-. c #9C5956",
";. c #945659",
":. c #9B5C5A",
">. c #935957",
",. c #A5534C",
"<. c #AA554C",
"1. c #B3554C",
"2. c #BC5448",
"3. c #A35651",
"4. c #A05A56",
"5. c #B15A56",
"6. c #976659",
"7. c #8B6B53",
"8. c #B6605D",
"9. c #A2725C",
"0. c #895A61",
"q. c #865E69",
"w. c #865F73",
"e. c #9A5C63",
"r. c #856568",
"t. c #93626F",
"y. c #8A726C",
"u. c #907166",
"i. c #966F7D",
"p. c #967873",
"a. c #896E78",
"s. c #A46969",
"d. c #AE6E68",
"f. c #A26E73",
"g. c #B36F6D",
"h. c #C5655B",
"j. c #E46D5E",
"k. c #D76E65",
"l. c #D3756C",
"z. c #DC746B",
"x. c #DD7468",
"c. c #CA7A74",
"v. c #C87776",
"b. c #DB7671",
"n. c #D57C73",
"m. c #D87A76",
"M. c #C86F69",
"N. c #E37163",
"B. c #EA7263",
"V. c #E47469",
"C. c #E5786C",
"Z. c #EC7D71",
"A. c #E36D63",
"S. c #A5825E",
"D. c #9C827A",
"F. c #AC896A",
"G. c #A5857A",
"H. c #B38774",
"J. c #B48E72",
"K. c #CA837B",
"L. c #D7817D",
"P. c #576680",
"I. c #AE7B89",
"U. c #9B8787",
"Y. c #9C8994",
"T. c #9B8898",
"R. c #A78987",
"E. c #B18F82",
"W. c #AC958D",
"Q. c #AD988D",
"!. c #B5978A",
"~. c #A88691",
"^. c #BA8E9A",
"/. c #BC9E99",
"(. c #B79993",
"). c #BAA39C",
"_. c #A697A6",
"`. c #B69AAC",
"'. c #B5A1A1",
"]. c #C98282",
"[. c #C29F98",
"{. c #D28F91",
"}. c #CAA68B",
"|. c #C4A394",
" X c #CBA59B",
".X c #D2A993",
"XX c #D9AD90",
"oX c #D39EA8",
"OX c #C5A4A1",
"+X c #C9AFA7",
"@X c #DAB7A8",
"#X c #CDACBB",
"$X c #CAA9B7",
"%X c #DAA9B5",
"&X c #D5B1BD",
"*X c #CFACA7",
"=X c #E5BEAF",
"-X c #E4BEB2",
";X c #D0C4BF",
":X c #E8C5B9",
">X c #F3CEBD",
",X c #F9CFB8",
"<X c #F2D1B7",
"1X c #F6D3BB",
"2X c #FCD3B9",
"3X c #E8C7A6",
"4X c #C9AEC5",
"5X c #C5AFCA",
"6X c #D0AEC5",
"7X c #C6B3CB",
"8X c #CBB5CA",
"9X c #C8BACD",
"0X c #DBB8CE",
"qX c #D6B2C7",
"wX c #C1B3D2",
"eX c #D0BDD8",
"rX c #DCD1CD",
"tX c #D2C4DD",
"yX c #E9CBC4",
"uX c #FDCCCD",
"iX c #F7CFC8",
"pX c #F7D5C6",
"aX c #FFD3D7",
"sX c #FED4E0",
"dX c #ECDEF2",
"fX c #E7DBEC",
"gX c #EDE3F8",
"hX c #F5E7FC",
"jX c None",
/* pixels */
"jXjXjXjXjXjXjXjXjXjXjXjXjXjXjXjXjXjXjXjXjXjXjXjXjXjXjXjXjXjXjXjXjXjXjXjXjXjXjXjXjXjXjXjXjX",
"jXjXjXjXjXjXjXjXjXjXjXjXjXjXjXjXjXjXjXjXjXjXjXjXjXjXjXjXjXjXjXjXjXjXjXjXjXjXjXjXjXjXjXjXjX",
"jXjXjXjXjXjXjXjXjXjXjXjXjXjXjXjXjXjXjXjXjXjXjXjXjXjXjXjXjXjXjXjXjXjXjXjXjXjXjXjXjXjXjXjXjX",
"jXjXjXjXjXjXjXjXjXjXjXjXjXjXjXjXjXjXjXjXjXjXjXjXjXjXjXjXjXjXjXjXjXjXjXjXjXjXjXjXjXjXjXjXjX",
"jXjXjXjXjXjXjXjXjXjXjXjXjXjXjXjXjXjXjXjXjXjXjXjXjXjXjXjXjXjXjXjXjXjXjXjXjXjXjXjXjXjXjXjXjX",
"jXjXjXjXjXjXjXjXjXjXjXjXjXjXjXjXjXjXjXjXjXjXjXjXjXjXjXjXjXjXjXjXjXjXjXjXjXjXjXjXjXjXjXjXjX",
"jXjXjXjXjXjXjXjXjXjXjXjXjXjXjXjXjXjXjXjXjXjXjXjXjXjXjXjXjXjXjXjXjXjXjXjXjXjXjXjXjXjXjXjXjX",
"jXjXjXjXjXjXjXjXjXjXjXjXjXjXjXjXjXjXz z z f z j a s jXjXjXjXjXjXjXjXjXjXjXjXjXjXjXjXjXjXjX",
"jXjXjXjXjXjXjXjXjXjXjXjXjXjXjXjXjX6.-.-.-.-.-.-.:.6.>.jXjXjXjXjXjXjXjXjXjXjXjXjXjXjXjXjXjX",
"jXjXjXjXjXjXjXjXjXjXjXjXjXjXm B p c.c.l.l.l.l.l.l.c.K.p f d jXjXjXjXjXjXjXjXjXjXjXjXjXjXjX",
"jXjXjXjXjXjXjXjXjXjXjXjXjXj / :.n.z.N.N.N.x.N.N.V.V.l.c.d.0.a jXjXjXjXjXjXjXjXjXjXjXjXjXjX",
"jXjXjXjXjXjXjXjXjXjXjXjXjXd &.3.l.k.j.B.j.B.B.N.A.B.j.k.M.:.x jXjXjXjXjXjXjXjXjXjXjXjXjXjX",
"jXjXjXjXjXjXjXjXjXjXjXjXjXd s.m.z.C.j.B.N.V.x.z.V.B.B.A.l.g.x jXjXjXjXjXjXjXjXjXjXjXjXjXjX",
"jXjXjXjXjXjXjXjXjXjXjXjXjXf d.b.V.V.C.b.l.l.n.m.b.A.j.A.b.v.f jXjXjXjXjXjXjXjXjXjXjXjXjXjX",
"jXjXjXjXjXjXjXjXjXjXjXjX5 N 8.z.x.k.n.c.{.L.].].v.C.C.Z.b.v.B 4 @ jXjXjXjXjXjXjXjXjXjXjXjX",
"jXjXjXjXjXjXjXjXjXjXjXjXx ;.5.2.k.n.v.K.uXuXuXuX{.L.l.z.h.,.;.! H jXjXjXjXjXjXjXjXjXjXjXjX",
"jXjXjXjXjXjXjXjXjXjXjXX # >.,.2.2.5.I.%XsX^.0.sX%X{.5.1.1.3.:.a + jXjXjXjXjXjXjXjXjXjXjXjX",
"jXjXjXjXjXjXjXjXjXjXjX$ + >.%.<.<.=.I.%X#XI.q.6X&XoX;.=.3.3.&.g % jXjXjXjXjXjXjXjXjXjXjXjX",
"jXjXjXjXjXjXjXjXjXjXjXX % ] ;.=.4.;.I.0Xa.w.w.+.`.$Xt.e.4.=.$.u O jXjXjXjXjXjXjXjXjXjXjXjX",
"jXjXjXjXjXjXjXjXjXjXjX% O s &.f.%XqXqXqX4X6X0X8X6X4XqX%X{.&.N 4 + jXjXjXjXjXjXjXjXjXjXjXjX",
"jXjXjXjXjXjXjXjXjXjXZ - > s q.i.$X4X5X7X8X8X8X9X9XwXwXqX^.0.x 5 O e jXjXjXjXjXjXjXjXjXjXjX",
"jXjXjXjXjXjXjXjXjXjXo } !.[ G l J eXeXhXdXhXdXfXgXdXwXJ e x E I.).$ jXjXjXjXjXjXjXjXjXjXjX",
"jXjXjXjXjXjXjXjXjXjXo } /.P E J H I.T._.Y.Y.Y.Y._._.T.G H E C p.+X  jXjXjXjXjXjXjXjXjXjXjX",
"jXjXjXjXjXjXjXjXjXjX; { +Xc ) T [ / Q W c l m x H X.X.o.Q *.d u.W.. jXjXjXjXjXjXjXjXjXjXjX",
"jXjXjXjXjXjXjXjXjXjXjX% . c R.(./ |.u.k '.OX X X[ T )._ p.[.d 2 % jXjXjXjXjXjXjXjXjXjXjXjX",
"jXjXjXjXjXjXjXjXjXjXjXjXjX1 U.).!.>XG., :X-X:X:Xv v rXQ.W.+X2 3 jXjXjXjXjXjXjXjXjXjXjXjXjX",
"jXjXjXjXjXjXjXjXjXjXjXjXjXX y.!.}.iXQ.j :X,X,X2X/ W pX|.).R.1 jXjXjXjXjXjXjXjXjXjXjXjXjXjX",
"jXjXjXjXjXjXjXjXjXjXjXjXjXjX% 6 }.2X>XiX1X,X,X<X<X<X1X!.u.O jXjXjXjXjXjXjXjXjXjXjXjXjXjXjX",
"jXjXjXjXjXjXjXjXjXjXjXjXjX@ @ 2 #..X@X>X1XXXXX<X2X3X}.D h O jXjXjXjXjXjXjXjXjXjXjXjXjXjXjX",
"jXjXjXjXjXjXjXjXjXjXjXjXjX7 2 u 6.9.H.g.:X.X}.=XJ.F.S.7.Z O jXjXjXjXjXjXjXjXjXjXjXjXjXjXjX",
"jXjXjXjXjXjXjXjXjXjXjXjXZ Z e ^ J.#.D f .X|.!.).D i S F.( . jXjXjXjXjXjXjXjXjXjXjXjXjXjXjX",
"jXjXjXjXjXjXjXjXjXjX) D.+Xe Z D J.#.d.oXd k k k Q.XXJ.i i b n jXjXjXjXjXjXjXjXjXjXjXjXjXjX",
"jXjXjXjXjXjXjXjXjXjXT G.}.G.e < g %.$.t.E.o.c R.p.6.7.i ^ U.I jXjXjXjXjXjXjXjXjXjXjXjXjXjX",
"jXjXjXjXjXjXjXjXjXjXjXR.(.Q.Z 6 > A $.*.$X@.G #Xr.( S i ] @X{ jXjXjXjXjXjXjXjXjXjXjXjXjXjX",
"jXjXjXjXjXjXjXjXjXjXjXjX_ I rX;XO W Q ` $X+.G #Xr.~ Z > / iXiXR.P jXjXjXjXjXjXjXjXjXjXjXjX",
"jXjXjXjXjXjXjXjXjXjXjXjXjXjX- : G . = X o . = # + 1 c . ( uXyXR.I jXjXjXjXjXjXjXjXjXjXjXjX",
"jXjXjXjXjXjXjXjXjXjXjXjXjXjXo 8 L r F r r q 3 3 3 3 7 ) y.(.).p.jXjXjXjXjXjXjXjXjXjXjXjXjX",
"jXjXjXjXjXjXjXjXjXjXjXjXjXjX- 9 ..P.| |  .L Z F G w   jXjXP ) jXjXjXjXjXjXjXjXjXjXjXjXjXjX",
"jXjXjXjXjXjXjXjXjXjXjXjXjXjX* 9 F P.O.O.- o   o * - jXjXjXjXjXjXjXjXjXjXjXjXjXjXjXjXjXjXjX",
"jXjXjXjXjXjXjXjXjXjXjXjXjXjXjXjX8 Y Y R w q jXjXjXjXjXjXjXjXjXjXjXjXjXjXjXjXjXjXjXjXjXjXjX",
"jXjXjXjXjXjXjXjXjXjXjXjXjXjXjXjXX U T n G jXjXjXjXjXjXjXjXjXjXjXjXjXjXjXjXjXjXjXjXjXjXjXjX",
"jXjXjXjXjXjXjXjXjXjXjXjXjXjXjXjX& _ _ ) % jXjXjXjXjXjXjXjXjXjXjXjXjXjXjXjXjXjXjXjXjXjXjXjX",
"jXjXjXjXjXjXjXjXjXjXjXjXjXjXjXjXjX% % @ jXjXjXjXjXjXjXjXjXjXjXjXjXjXjXjXjXjXjXjXjXjXjXjXjX",
"jXjXjXjXjXjXjXjXjXjXjXjXjXjXjXjXjX@ @ X jXjXjXjXjXjXjXjXjXjXjXjXjXjXjXjXjXjXjXjXjXjXjXjXjX",
"jXjXjXjXjXjXjXjXjXjXjXjXjXjXjXjXjXjXjXjXjXjXjXjXjXjXjXjXjXjXjXjXjXjXjXjXjXjXjXjXjXjXjXjXjX"
};
