/* XPM */
static char *result[] = {
/* columns rows colors chars-per-pixel */
"45 45 220 2 ",
"   c #020304",
".  c #0D0203",
"X  c #050909",
"o  c #0D090A",
"O  c #0A0507",
"+  c #130303",
"@  c #1B0302",
"#  c #150A04",
"$  c #120509",
"%  c #1A0B0A",
"&  c #030514",
"*  c #0C0D12",
"=  c #171212",
"-  c #240201",
";  c #200900",
":  c #220E10",
">  c #251313",
",  c #291313",
"<  c #271C1A",
"1  c #391C1D",
"2  c #2A2112",
"3  c #3B331A",
"4  c #131721",
"5  c #1C2229",
"6  c #252725",
"7  c #3A2623",
"8  c #3B2C2D",
"9  c #362926",
"0  c #3B2F32",
"q  c #3B3337",
"w  c #2A2532",
"e  c #58271C",
"r  c #4B3A19",
"t  c #62241F",
"y  c #4B2C2C",
"u  c #442929",
"i  c #522C2A",
"p  c #582B2A",
"a  c #592624",
"s  c #4F3C21",
"d  c #4C332E",
"f  c #493228",
"g  c #563728",
"h  c #462D34",
"j  c #433234",
"k  c #433C3D",
"l  c #4D393C",
"z  c #493638",
"x  c #533234",
"c  c #5B3736",
"v  c #642925",
"b  c #643D36",
"n  c #673C3D",
"m  c #554726",
"M  c #5D463C",
"N  c #59553D",
"B  c #64453B",
"V  c #784A3C",
"C  c #795137",
"Z  c #563F42",
"A  c #4A3A43",
"S  c #4C4445",
"D  c #5B4B4B",
"F  c #564746",
"G  c #5D5349",
"H  c #474958",
"J  c #5C4C52",
"K  c #565453",
"L  c #5B5456",
"P  c #644640",
"I  c #6A4B44",
"U  c #614E4C",
"Y  c #6B484C",
"T  c #774849",
"R  c #6C524E",
"E  c #72524C",
"W  c #785749",
"Q  c #6C5454",
"!  c #61525C",
"~  c #6C5858",
"^  c #745655",
"/  c #7A6459",
"(  c #7B664D",
")  c #6B5861",
"_  c #7D5D6C",
"`  c #5A616B",
"'  c #79666A",
"]  c #6C666F",
"[  c #8A593A",
"{  c #86643A",
"}  c #854B4B",
"|  c #924D47",
" . c #875449",
".. c #914E53",
"X. c #8A5554",
"o. c #8A5757",
"O. c #945654",
"+. c #985658",
"@. c #96524C",
"#. c #B24E49",
"$. c #A9534B",
"%. c #B9554C",
"&. c #A94E53",
"*. c #A35454",
"=. c #A75A56",
"-. c #B35E58",
";. c #866445",
":. c #8C6654",
">. c #A5615F",
",. c #885964",
"<. c #995764",
"1. c #A75763",
"2. c #886A66",
"3. c #996364",
"4. c #876A78",
"5. c #8E727D",
"6. c #967870",
"7. c #BA6B6B",
"8. c #A07D6B",
"9. c #AE776E",
"0. c #A67976",
"q. c #BB7979",
"w. c #A66262",
"e. c #CA665C",
"r. c #DE725F",
"t. c #DA6A5F",
"y. c #E26F5C",
"u. c #E3725F",
"i. c #C26C6B",
"p. c #C16560",
"a. c #DC6D63",
"s. c #DC6E68",
"d. c #C8756F",
"f. c #DB7165",
"g. c #D3756C",
"h. c #DD756A",
"j. c #DC786B",
"k. c #CE7972",
"l. c #C57B78",
"z. c #D37672",
"x. c #DD7572",
"c. c #D37C72",
"v. c #D67A74",
"b. c #E36E62",
"n. c #E27364",
"m. c #E87167",
"M. c #E4726B",
"N. c #E3786B",
"B. c #B2865F",
"V. c #9F8076",
"C. c #B69066",
"Z. c #A9877A",
"A. c #B28D70",
"S. c #BD917C",
"D. c #AF8966",
"F. c #CA837D",
"G. c #D28079",
"H. c #8C6D81",
"J. c #987882",
"K. c #877483",
"L. c #9A8486",
"P. c #A98F8A",
"I. c #A58A85",
"U. c #B9868A",
"Y. c #AC928C",
"T. c #B2988A",
"R. c #AE9894",
"E. c #B59995",
"W. c #BAA497",
"Q. c #BBAB87",
"!. c #AF94AC",
"~. c #AA97A8",
"^. c #B896AC",
"/. c #BF9FB1",
"(. c #CC8F8D",
"). c #D88B85",
"_. c #C9989A",
"`. c #D99892",
"'. c #CAA38C",
"]. c #C3A593",
"[. c #C4A59C",
"{. c #CAA999",
"}. c #D3AC95",
"|. c #E1BB9C",
" X c #C997A9",
".X c #C8A6A5",
"XX c #DAABA3",
"oX c #DBBDA0",
"OX c #CDADBB",
"+X c #D5A9B5",
"@X c #D8BAB9",
"#X c #CEB4AB",
"$X c #E5B6BC",
"%X c #EFB8B0",
"&X c #E9C3A6",
"*X c #E8C8B8",
"=X c #F5CCB7",
"-X c #E9D4B8",
";X c #F3D1B5",
":X c #F4D3BC",
">X c #F9D4B6",
",X c #BDABC4",
"<X c #C4ABC7",
"1X c #C4B3CB",
"2X c #CBB3CB",
"3X c #CFB2C3",
"4X c #CABBD4",
"5X c #C7B8D8",
"6X c #D2AFC7",
"7X c #D7CADB",
"8X c #FDC7C5",
"9X c #EFD4C6",
"0X c #F7D7C7",
"qX c #FCD3D7",
"wX c #D7C9E6",
"eX c #DED1E2",
"rX c #E7D6E5",
"tX c #F3EBF9",
"yX c #ECE4EA",
"uX c None",
/* pixels */
"uXuXuXuXuXuXuXuXuXuXuXuXuXuXuXuXuXuXuXuXuXuXuXuXuXuXuXuXuXuXuXuXuXuXuXuXuXuXuXuXuXuXuXuXuX",
"uXuXuXuXuXuXuXuXuXuXuXuXuXuXuXuXuXuXuXuXuXuXuXuXuXuXuXuXuXuXuXuXuXuXuXuXuXuXuXuXuXuXuXuXuX",
"uXuXuXuXuXuXuXuXuXuXuXuXuXuXuXuXuXuXuXuXuXuXuXuXuXuXuXuXuXuXuXuXuXuXuXuXuXuXuXuXuXuXuXuXuX",
"uXuXuXuXuXuXuXuXuXuXuXuXuXuXuXuXuXuXuXuXuXuXuXuXuXuXuXuXuXuXuXuXuXuXuXuXuXuXuXuXuXuXuXuXuX",
"uXuXuXuXuXuXuXuXuXuXuXuXuXuXuXuXuXuXuXuXuXuXuXuXuXuXuXuXuXuXuXuXuXuXuXuXuXuXuXuXuXuXuXuXuX",
"uXuXuXuXuXuXuXuXuXuXuXuXuXuXuXuXuXuXuXuXuXuXuXuXuXuXuXuXuXuXuXuXuXuXuXuXuXuXuXuXuXuXuXuXuX",
"uXuXuXuXuXuXuXuXuXuXuXuXuXuXuXuXuXuXuXuXuXuXuXuXuXuXuXuXuXuXuXuXuXuXuXuXuXuXuXuXuXuXuXuXuX",
"uXuXuXuXuXuXuXuXuXuXuXuXuXuXuXuXuXuXuXuXuXuXuXuXuXuXuXuXuXuXuXuXuXuXuXuXuXuXuXuXuXuXuXuXuX",
"uXuXuXuXuXuXuXuXuXuXuXuXuXuXuXuXuXuXuXuXuXuXuXuXuXuXuXuXuXuXuXuXuXuXuXuXuXuXuXuXuXuXuXuXuX",
"uXuXuXuXuXuXuXuXuXuXuXuXuXuXuXuXuXi p a v v t v e a i uXuXuXuXuXuXuXuXuXuXuXuXuXuXuXuXuXuX",
"uXuXuXuXuXuXuXuXuXuXuXuXuXuXy i p q.l.k.k.z.z.k.v.).9.a h uXuXuXuXuXuXuXuXuXuXuXuXuXuXuXuX",
"uXuXuXuXuXuXuXuXuXuXuXuXuXh X.w.i.v.x.s.M.m.f.f.j.j.z.i...T uXuXuXuXuXuXuXuXuXuXuXuXuXuXuX",
"uXuXuXuXuXuXuXuXuXuXuXuXuXx O.7.x.M.M.m.b.m.m.M.u.y.u.M.&.T h uXuXuXuXuXuXuXuXuXuXuXuXuXuX",
"uXuXuXuXuXuXuXuXuXuXuXuXuXp 7.g.M.m.a.m.h.f.a.s.n.u.r.h.i.X.h uXuXuXuXuXuXuXuXuXuXuXuXuXuX",
"uXuXuXuXuXuXuXuXuXuXuXuXuXa l.g.t.n.a.M.v.j.x.x.f.r.u.j.c.O.y uXuXuXuXuXuXuXuXuXuXuXuXuXuX",
"uXuXuXuXuXuXuXuXuXuXuXuXy v k.M.n.n.j.c.G.d.k.z.g.j.h.r.g.@.i uXuXuXuXuXuXuXuXuXuXuXuXuXuX",
"uXuXuXuXuXuXuXuXuXuXuXZ c O.#.e.n.j.c.).=X8X8X%X).x.s.h.#.=.X.x uXuXuXuXuXuXuXuXuXuXuXuXuX",
"uXuXuXuXuXuXuXuXuXuXuX< c O.-.%.e.e.G.XXqX X$XqX(.d.p.e.#.&.o.1 uXuXuXuXuXuXuXuXuXuXuXuXuX",
"uXuXuXuXuXuXuXuXuXuXuX% 1 O.=.#.-.+.XX$XqX_ .XqX+Xq.=.&.#.=.o.@ uXuXuXuXuXuXuXuXuXuXuXuXuX",
"uXuXuXuXuXuXuXuXuXuXuX@ 7 o.w.=.+.,. X X4._ _ 4.OXJ.<.1.*.+. .@ uXuXuXuXuXuXuXuXuXuXuXuXuX",
"uXuXuXuXuXuXuXuXuXuXuX+ , n +.J. X^.<X<X!.!./.~.2X!. X X<.} b + uXuXuXuXuXuXuXuXuXuXuXuXuX",
"uXuXuXuXuXuXuXuXuXuXq % > x o.U.+X2X5X5X5X<X2X<X5X,X<X6X<.T c @ 8 uXuXuXuXuXuXuXuXuXuXuXuX",
"uXuXuXuXuXuXuXuXuXuX2 J B n Y 2.H.2XwXwXwXeXeXrXwX5X,XH.Y B g E 8 2 uXuXuXuXuXuXuXuXuXuXuX",
"uXuXuXuXuXuXuXuXuXuXX V.P.U h j h 6XrXtXtXtXyXrXyX4X!.h y b W .Xj . uXuXuXuXuXuXuXuXuXuXuX",
"uXuXuXuXuXuXuXuXuXuXo Y.V.d R R E Q ~ D j j j k ! ) ) Q Y M f T.j # uXuXuXuXuXuXuXuXuXuXuX",
"uXuXuXuXuXuXuXuXuXuXuX7 u d P.2.I U.P Q I.I.I.L.F K.L.R Y.2.d 7 uXuXuXuXuXuXuXuXuXuXuXuXuX",
"uXuXuXuXuXuXuXuXuXuXuX# > 7 [.Z.;.}.m B [.XX{.#Xu P.E.' [.2.7 . uXuXuXuXuXuXuXuXuXuXuXuXuX",
"uXuXuXuXuXuXuXuXuXuXuXuXuX. W.].'.0Xg d :X=X>X-X- .X0XW..X~ . uXuXuXuXuXuXuXuXuXuXuXuXuXuX",
"uXuXuXuXuXuXuXuXuXuXuXuXuXuX# ^ '.;X9X:X:X>X>X;X=X0X*X[.# , uXuXuXuXuXuXuXuXuXuXuXuXuXuXuX",
"uXuXuXuXuXuXuXuXuXuXuXuXuXuX+ B 8.%X*X9X9X|.&X>X;X&XXX0.+ % uXuXuXuXuXuXuXuXuXuXuXuXuXuXuX",
"uXuXuXuXuXuXuXuXuXuXuXuXuXuX# s W }.*X9X*X}.oX*X>X}.S.W @ # uXuXuXuXuXuXuXuXuXuXuXuXuXuXuX",
"uXuXuXuXuXuXuXuXuXuXuXuXuX# 3 ;.D.C p I ].].].'.e C { A.s 2 . uXuXuXuXuXuXuXuXuXuXuXuXuXuX",
"uXuXuXuXuXuXuXuXuXuXuXuXG 3 r ( B.[ 9.8.P / Y Y Z.;.{ C.m 3 3 uXuXuXuXuXuXuXuXuXuXuXuXuXuX",
"uXuXuXuXuXuXuXuXuXuXuX' Q M s { 9.[ F.S.c d x n {.@.[ B.r m N ~ uXuXuXuXuXuXuXuXuXuXuXuXuX",
"uXuXuXuXuXuXuXuXuXuXU *X&XW.m M [ | | 3..XA 5.+XX.[  . .g ( Q.-X6.uXuXuXuXuXuXuXuXuXuXuXuX",
"uXuXuXuXuXuXuXuXuXuXD @X0X9X@ @ - T } 3.@Xq K.OXW T B - # / -X-X2.uXuXuXuXuXuXuXuXuXuXuXuX",
"uXuXuXuXuXuXuXuXuXuXuXY.W.R.+ > 7 u d Z ' w H ] l y y u + F W.T.6.uXuXuXuXuXuXuXuXuXuXuXuX",
"uXuXuXuXuXuXuXuXuXuXuXQ J D . 0 ~ . # o & & & & $ + : ) + < G U uXuXuXuXuXuXuXuXuXuXuXuXuX",
"uXuXuXuXuXuXuXuXuXuXuXuXuXuX$ w k q K ` ` H H ` L S A A $ = uXuXuXuXuXuXuXuXuXuXuXuXuXuXuX",
"uXuXuXuXuXuXuXuXuXuXuXuXuXuX$ 8 J K q w 5 4 5 5 6 S L L $ O uXuXuXuXuXuXuXuXuXuXuXuXuXuXuX",
"uXuXuXuXuXuXuXuXuXuXuXuXuXuX$ 8 D K = X X *   X X A F J + uXuXuXuXuXuXuXuXuXuXuXuXuXuXuXuX",
"uXuXuXuXuXuXuXuXuXuXuXuXuXuXuX: @ + uXuXuXuXuXuXuX$ O + uXuXuXuXuXuXuXuXuXuXuXuXuXuXuXuXuX",
"uXuXuXuXuXuXuXuXuXuXuXuXuXuXuXuXuXuXuXuXuXuXuXuXuXuXuXuXuXuXuXuXuXuXuXuXuXuXuXuXuXuXuXuXuX",
"uXuXuXuXuXuXuXuXuXuXuXuXuXuXuXuXuXuXuXuXuXuXuXuXuXuXuXuXuXuXuXuXuXuXuXuXuXuXuXuXuXuXuXuXuX",
"uXuXuXuXuXuXuXuXuXuXuXuXuXuXuXuXuXuXuXuXuXuXuXuXuXuXuXuXuXuXuXuXuXuXuXuXuXuXuXuXuXuXuXuXuX"
};
