/* XPM */
static char *result[] = {
/* columns rows colors chars-per-pixel */
"45 45 207 2 ",
"   c #090303",
".  c #150402",
"X  c #1B0402",
"o  c #1A0C06",
"O  c #131004",
"+  c #140B11",
"@  c #1D1311",
"#  c #200202",
"$  c #2D0900",
"%  c #220C00",
"&  c #201107",
"*  c #2E0E18",
"=  c #211513",
"-  c #251919",
";  c #261C14",
":  c #391D14",
">  c #34241C",
",  c #3F2D1E",
"<  c #3A2A07",
"1  c #291D25",
"2  c #3F2E2A",
"3  c #3D322A",
"4  c #3C2C36",
"5  c #37343D",
"6  c #3C3339",
"7  c #3B3637",
"8  c #4E2D01",
"9  c #5A2F01",
"0  c #5F3301",
"q  c #5A2818",
"w  c #5A3318",
"e  c #62241A",
"r  c #622116",
"t  c #442C2D",
"y  c #4B2C2D",
"u  c #46262E",
"i  c #5B2B2C",
"p  c #582B27",
"a  c #4D342B",
"s  c #463429",
"d  c #57362C",
"f  c #462D32",
"g  c #4B2D32",
"h  c #572B34",
"j  c #493738",
"k  c #543A37",
"l  c #622928",
"z  c #673929",
"x  c #69353B",
"c  c #643436",
"v  c #7A3B37",
"b  c #5E451D",
"n  c #774A13",
"m  c #7D5A1C",
"M  c #6E4514",
"N  c #5D4624",
"B  c #594438",
"V  c #5A513B",
"C  c #74452A",
"Z  c #784929",
"A  c #7A512F",
"S  c #684938",
"D  c #734837",
"F  c #754C2F",
"G  c #7B6327",
"H  c #3F3A43",
"J  c #5F3E42",
"K  c #6E3F44",
"L  c #633C45",
"P  c #763E4F",
"I  c #58484B",
"U  c #4E4855",
"Y  c #644C49",
"T  c #664546",
"R  c #764945",
"E  c #6D554A",
"W  c #7B534D",
"Q  c #61555F",
"!  c #765955",
"~  c #7D5657",
"^  c #7E655B",
"/  c #5B5C65",
"(  c #755A65",
")  c #655C66",
"_  c #6B6069",
"`  c #796365",
"'  c #6F6873",
"]  c #766C78",
"[  c #805E20",
"{  c #814938",
"}  c #815330",
"|  c #9E702B",
" . c #997A38",
".. c #826D2B",
"X. c #A27728",
"o. c #8C504C",
"O. c #964F53",
"+. c #935452",
"@. c #9B5452",
"#. c #945658",
"$. c #9B595A",
"%. c #8A4C4F",
"&. c #B44E43",
"*. c #B44D4C",
"=. c #A3544D",
"-. c #AA524D",
";. c #AC5346",
":. c #B2554A",
">. c #B65042",
",. c #AC4E57",
"<. c #B44C54",
"1. c #A35454",
"2. c #A25954",
"3. c #A7585B",
"4. c #B45D55",
"5. c #8F644B",
"6. c #946B47",
"7. c #927154",
"8. c #B26E51",
"9. c #865E68",
"0. c #9A5961",
"q. c #A55964",
"w. c #916064",
"e. c #886C72",
"r. c #977A75",
"t. c #91717B",
"y. c #BB6D66",
"u. c #B86E67",
"i. c #AF706F",
"p. c #BB736B",
"a. c #AE6E79",
"s. c #B97878",
"d. c #AE6963",
"f. c #CA5A53",
"g. c #C65646",
"h. c #C06256",
"j. c #D4695E",
"k. c #DC6556",
"l. c #EA6D5C",
"z. c #E06D5E",
"x. c #E7725E",
"c. c #EA705C",
"v. c #C26D69",
"b. c #D76964",
"n. c #DA6B63",
"m. c #D76868",
"M. c #DC7465",
"N. c #DB766A",
"B. c #D87569",
"V. c #CB7A7F",
"C. c #CF7A74",
"Z. c #D77875",
"A. c #C3746D",
"S. c #E66E62",
"D. c #E47163",
"F. c #EA7263",
"G. c #E2736A",
"H. c #EA7967",
"J. c #E47C78",
"K. c #B89238",
"L. c #B0873A",
"P. c #B98E40",
"I. c #B28E51",
"U. c #9F937C",
"Y. c #AD8D7E",
"T. c #B1896A",
"R. c #CC9B72",
"E. c #C9A16E",
"W. c #CAA578",
"Q. c #D3A67A",
"!. c #7A7683",
"~. c #957280",
"^. c #A47F93",
"/. c #D07980",
"(. c #9A8488",
"). c #AE8E97",
"_. c #B89999",
"`. c #AF9390",
"'. c #BB9CAE",
"]. c #B3A7B2",
"[. c #B1AAB8",
"{. c #DC8B83",
"}. c #CDA587",
"|. c #D1A584",
" X c #C1A49C",
".X c #C6A89B",
"XX c #E8BB9F",
"oX c #D6A8A9",
"OX c #D9BEAE",
"+X c #CAAAB6",
"@X c #CDB0B4",
"#X c #EDBDAD",
"$X c #E5B8B6",
"%X c #DDC5BC",
"&X c #F5CBB8",
"*X c #D9B5C1",
"=X c #CEC9D4",
"-X c #DDC9D9",
";X c #E8CAC4",
":X c #F5CEC5",
">X c #F8CECA",
",X c #F4D1C7",
"<X c #FDD7D1",
"1X c #F1DCF0",
"2X c #F3EAF7",
"3X c #EEE9F5",
"4X c None",
/* pixels */
"4X4X4X4X4X4X4X4X4X4X4X4X4X4X4X4X4X4X4X4X4X4X4X4X4X4X4X4X4X4X4X4X4X4X4X4X4X4X4X4X4X4X4X4X4X",
"4X4X4X4X4X4X4X4X4X4X4X4X4X4X4X4X4X4X4X4X4X4X4X4X4X4X4X4X4X4X4X4X4X4X4X4X4X4X4X4X4X4X4X4X4X",
"4X4X4X4X4X4X4X4X4X4X4X4X4X4X4X4X4X4X4X4X4X4X4X4X4X4X4X4X4X4X4X4X4X4X4X4X4X4X4X4X4X4X4X4X4X",
"4X4X4X4X4X4X4X4X4X4X4X4X4X4X4X4X4X4X4X4X4X4X4X4X4X4X4X4X4X4X4X4X4X4X4X4X4X4X4X4X4X4X4X4X4X",
"4X4X4X4X4X4X4X4X4X4X4X4X4X4X4X4X4X4X4X4X4X4X4X4X4X4X4X4X4X4X4X4X4X4X4X4X4X4X4X4X4X4X4X4X4X",
"4X4X4X4X4X4X4X4X4X4X4X4X4X4X4X4X4X4X4X4X4X4X4X4X4X4X4X4X4X4X4X4X4X4X4X4X4X4X4X4X4X4X4X4X4X",
"4X4X4X4X4X4X4X4X4X4X4X4X4X4X4X4X4X4X4X4X4X4X4X4X4X4X4X4X4X4X4X4X4X4X4X4X4X4X4X4X4X4X4X4X4X",
"4X4X4X4X4X4X4X4X4X4X4X4X4X4X4X4X4X4X4X4X4X4X4X4X4X4X4X4X4X4X4X4X4X4X4X4X4X4X4X4X4X4X4X4X4X",
"4X4X4X4X4X4X4X4X4X4X4X4X4X4X4X4X4X4X4X4X4X4X4X4X4X4X4X4X4X4X4X4X4X4X4X4X4X4X4X4X4X4X4X4X4X",
"4X4X4X4X4X4X4X4X4X4X4X4X4X4X4X4X4X4X4X4X4X4X4X4X4X4X4X4X4X4X4X4X4X4X4X4X4X4X4X4X4X4X4X4X4X",
"4X4X4X4X4X4X4X4X4X4X4X4X4X4X4X4X4X4X4Xf t g a y g g y t 4X4X4X4X4X4X4X4X4X4X4X4X4X4X4X4X4X",
"4X4X4X4X4X4X4X4X4X4X4X4X4X4X4X4X4Xa o.$.p.y.u.u.v.v.p.s.c g 4X4X4X4X4X4X4X4X4X4X4X4X4X4X4X",
"4X4X4X4X4X4X4X4X4X4X4X4X4X4X4X4X4Xc @.y.M.n.N.N.G.D.D.C.v x T 4X4X4X4X4X4X4X4X4X4X4X4X4X4X",
"4X4X4X4X4X4X4X4X4X4X4X4X4X4X4X4Xh $.y.B.M.M.M.N.D.S.D.B.A.i.w.g 4X4X4X4X4X4X4X4X4X4X4X4X4X",
"4X4X4X4X4X4X4X4X4X4X4X4X4X4X4X4Xl V.Z.G.M.M.M.G.D.l.x.M.Z.Z.s.i 4X4X4X4X4X4X4X4X4X4X4X4X4X",
"4X4X4X4X4X4X4X4X4X4X4X4X4X4X4X9.a.V.Z.D.D.H.x.D.D.l.x.x.S.N.Z.R L 4X4X4X4X4X4X4X4X4X4X4X4X",
"4X4X4X4X4X4X4X4X4X4X4X4X4X4X6 ~.oXV.G.G.D.H.x.D.S.c.c.c.l.x.J.O.L j 4X4X4X4X4X4X4X4X4X4X4X",
"4X4X4X4X4X4X4X4X4X4X4X4X4X5 ) _ 9.>X{.N.z.F.S.S.F.F.l.l.l.l.n.3.L j 4X4X4X4X4X4X4X4X4X4X4X",
"4X4X4X4X4X4X4X4X4X4X4X4X_ =X=X).` <Xd.f.G.x.H.D.G.G.F.S.F.k.f.1.x f 4X4X4X4X4X4X4X4X4X4X4X",
"4X4X4X4X4X4X4X4X4X4X4X6 ] 2X3X].t.$Xd.4.j.f.j.j.b.m.m.b.k.g.&.=.x g 4X4X4X4X4X4X4X4X4X4X4X",
"4X4X4X4X4X4X4X4X4X4X4X5 ' 2X2X-X+X0.2.1.:.*.>.>.*.<.<.*.>.&.:.1.x g 4X4X4X4X4X4X4X4X4X4X4X",
"4X4X4X4X4X4X4X4X4X4X4X5 / [.1X^.R 0.,.,.-.4.:.>.*.<.,.,.*.;.;.=.c k 4X4X4X4X4X4X4X4X4X4X4X",
"4X4X4X4X4X4X4X4X4X4X4X4X/ !.-X'.~.%.O.O.@.2.=.=.1.,.q.,.1.3.@.{ p d 4X4X4X4X4X4X4X4X4X4X4X",
"4X4X4X4X4X4X4X4X4X4X4X4X4XH [.+X*XP %.#.$.o.o.+.q.$.0.q.q.+.%.i p d 4X4X4X4X4X4X4X4X4X4X4X",
"4X4X4X4X4X4X4X4X4X4X4X4X4X4X4 j u h h i i p l l q e r r r e z D k a 4X4X4X4X4X4X4X4X4X4X4X",
"4X4X4X4X4X4X4X4X4X4X4X4X4X4Xk B L * ( e.L p z D q v { Z } C S d ^ 4X4X4X4X4X4X4X4X4X4X4X4X",
"4X4X4X4X4X4X4X4X4X4X4X4X4X4XE ! ! X ~.'.9.p D 5.z Z } } A F S s 4X4X4X4X4X4X4X4X4X4X4X4X4X",
"4X4X4X4X4X4X4X4X4X4X4X4X4X4XB r. XX +X;X.X8 6.}.W.Z w A F S s . 4X4X4X4X4X4X4X4X4X4X4X4X4X",
"4X4X4X4X4X4X4X4X4X4X4X4X4X4XOXOX;X:X,X:X&XQ.W.W.|.Z d R ! B t 4X4X4X4X4X4X4X4X4X4X4X4X4X4X",
"4X4X4X4X4X4X4X4X4X4X4X4X4X4X4X.X`.:X:X&X#XR.Q.W.6.C z d y s 4X4X4X4X4X4X4X4X4X4X4X4X4X4X4X",
"4X4X4X4X4X4X4X4X4X4X4X4X4X4X4X4XS ,X:X#X|.Q.W.E.9 Z C $ $ : 4X4X4X4X4X4X4X4X4X4X4X4X4X4X4X",
"4X4X4X4X4X4X4X4X4X4X4X4X4X4X4X4X4XT R x D }.6.0 0 0 n I.8 N 4X4X4X4X4X4X4X4X4X4X4X4X4X4X4X",
"4X4X4X4X4X4X4X4X4X4X4X4X4X4X4X4X4X4XR ~ `.oXT.8.n | | K.L.G 4X4X4X4X4X4X4X4X4X4X4X4X4X4X4X",
"4X4X4X4X4X4X4X4X4X4X4X4X4X4X4X4X4X4XT ~ `._.U.T.M L.K.K.L.G < 4X4X4X4X4X4X4X4X4X4X4X4X4X4X",
"4X4X4X4X4X4X4X4X4X4X4X4X4X4X4X4X4XJ I k X a f B %  .K.K.m w o 4X4X4X4X4X4X4X4X4X4X4X4X4X4X",
"4X4X4X4X4X4X4X4X4X4X4X4X4X4X4X4X4Xj - 3 ;X;X(.7 o b G [ I.E & 4X4X4X4X4X4X4X4X4X4X4X4X4X4X",
"4X4X4X4X4X4X4X4X4X4X4X4X4X4X4X4X4Xj @ f ;X%Xe.H - s N 7.7.V O 4X4X4X4X4X4X4X4X4X4X4X4X4X4X",
"4X4X4X4X4X4X4X4X4X4X4X4X4X4X4X4X4X7 o s  X.X] U 7 ; > U.V 3   4X4X4X4X4X4X4X4X4X4X4X4X4X4X",
"4X4X4X4X4X4X4X4X4X4X4X4X4X4X4X4X4X4Xf 2 X X f Q _ -     O 4X4X4X4X4X4X4X4X4X4X4X4X4X4X4X4X",
"4X4X4X4X4X4X4X4X4X4X4X4X4X4X4X4X4X4X@ > k S Y ` I -   4X4X4X4X4X4X4X4X4X4X4X4X4X4X4X4X4X4X",
"4X4X4X4X4X4X4X4X4X4X4X4X4X4X4X4X4X4X= = Y Y E Y j + + 4X4X4X4X4X4X4X4X4X4X4X4X4X4X4X4X4X4X",
"4X4X4X4X4X4X4X4X4X4X4X4X4X4X4X4X4X4X4X4X. . X X . 4X4X4X4X4X4X4X4X4X4X4X4X4X4X4X4X4X4X4X4X",
"4X4X4X4X4X4X4X4X4X4X4X4X4X4X4X4X4X4X4X4X4X4X4X4X4X4X4X4X4X4X4X4X4X4X4X4X4X4X4X4X4X4X4X4X4X",
"4X4X4X4X4X4X4X4X4X4X4X4X4X4X4X4X4X4X4X4X4X4X4X4X4X4X4X4X4X4X4X4X4X4X4X4X4X4X4X4X4X4X4X4X4X",
"4X4X4X4X4X4X4X4X4X4X4X4X4X4X4X4X4X4X4X4X4X4X4X4X4X4X4X4X4X4X4X4X4X4X4X4X4X4X4X4X4X4X4X4X4X"
};
