/* XPM */
static char *result[] = {
/* columns rows colors chars-per-pixel */
"45 45 209 2 ",
"   c #0A0303",
".  c #0A0703",
"X  c #150402",
"o  c #1B0402",
"O  c #1A0D06",
"+  c #131004",
"@  c #150A11",
"#  c #1D1411",
"$  c #200202",
"%  c #2C0900",
"&  c #220C00",
"*  c #201108",
"=  c #2E0E18",
"-  c #211513",
";  c #251919",
":  c #261C14",
">  c #391F14",
",  c #34241C",
"<  c #3F2C1E",
"1  c #3A2A07",
"2  c #291D25",
"3  c #3E2F2A",
"4  c #3D322A",
"5  c #3C2D36",
"6  c #37343D",
"7  c #3C3339",
"8  c #3B3637",
"9  c #4E2D01",
"0  c #5A2F01",
"q  c #5F3301",
"w  c #5A2818",
"e  c #593318",
"r  c #62241A",
"t  c #622116",
"y  c #442D2E",
"u  c #4B2C2D",
"i  c #46262E",
"p  c #5B2B2C",
"a  c #582A27",
"s  c #4D352B",
"d  c #463429",
"f  c #57362B",
"g  c #4B2D32",
"h  c #462E33",
"j  c #562B34",
"k  c #493639",
"l  c #553B36",
"z  c #622928",
"x  c #673929",
"c  c #69353B",
"v  c #643436",
"b  c #7A3B37",
"n  c #5E451D",
"m  c #774A13",
"M  c #7D5A1C",
"N  c #6E4514",
"B  c #5A4A25",
"V  c #58453A",
"C  c #5A513B",
"Z  c #6A4926",
"A  c #74452A",
"S  c #784929",
"D  c #7A512F",
"F  c #684938",
"G  c #734837",
"H  c #7C5338",
"J  c #7B6226",
"K  c #3F3A43",
"L  c #5F3D43",
"P  c #6E3F44",
"I  c #633C44",
"U  c #7A3F4A",
"Y  c #58474B",
"T  c #4E4855",
"R  c #644C49",
"E  c #674647",
"W  c #774C45",
"Q  c #6D554A",
"!  c #794D50",
"~  c #61555F",
"^  c #765955",
"/  c #7D5657",
"(  c #78554F",
")  c #5A5E66",
"_  c #755A65",
"`  c #655C67",
"'  c #686169",
"]  c #796365",
"[  c #746B77",
"{  c #805E20",
"}  c #814938",
"|  c #815330",
" . c #836D2E",
".. c #9E702B",
"X. c #997A38",
"o. c #A27728",
"O. c #8C504C",
"+. c #964F53",
"@. c #935452",
"#. c #945658",
"$. c #9B5656",
"%. c #8D4E4F",
"&. c #B44E43",
"*. c #B44D4C",
"=. c #A3544D",
"-. c #AA524D",
";. c #AC5346",
":. c #B2554A",
">. c #B65042",
",. c #AC4E57",
"<. c #B44C54",
"1. c #A35454",
"2. c #A25954",
"3. c #A7585B",
"4. c #B45D55",
"5. c #8F644B",
"6. c #946B47",
"7. c #81685F",
"8. c #927154",
"9. c #B26E51",
"0. c #825D61",
"q. c #9A5961",
"w. c #A55964",
"e. c #8B606E",
"r. c #916063",
"t. c #886C72",
"y. c #977A75",
"u. c #91717B",
"i. c #BB6D66",
"p. c #B76E67",
"a. c #AF706F",
"s. c #BB736C",
"d. c #BA7878",
"f. c #AE6B6E",
"g. c #CA5A53",
"h. c #C65646",
"j. c #C06256",
"k. c #D4695E",
"l. c #DC6556",
"z. c #EA6D5C",
"x. c #E06D5E",
"c. c #E7725E",
"v. c #EA705C",
"b. c #C26D69",
"n. c #D76964",
"m. c #DA6B63",
"M. c #D76868",
"N. c #DC7465",
"B. c #DB766A",
"V. c #D87569",
"C. c #CB7A7F",
"Z. c #CF7A74",
"A. c #D77875",
"S. c #C3746D",
"D. c #E66E62",
"F. c #E47163",
"G. c #EA7263",
"H. c #E2736A",
"J. c #EA7967",
"K. c #E47C78",
"L. c #B89238",
"P. c #B0873A",
"I. c #B98E40",
"U. c #BA9540",
"Y. c #AF8B5A",
"T. c #9F937C",
"R. c #AD8D7E",
"E. c #B1896A",
"W. c #CC9B72",
"Q. c #C9A16E",
"!. c #CAA578",
"~. c #D3A67A",
"^. c #7A7685",
"/. c #967380",
"(. c #A47F93",
"). c #D07980",
"_. c #9A8488",
"`. c #AE8E97",
"'. c #B89999",
"]. c #AF9390",
"[. c #BB9CAE",
"{. c #B4A7B2",
"}. c #B1AAB8",
"|. c #DC8B83",
" X c #CDA587",
".X c #D1A584",
"XX c #C1A49C",
"oX c #C7A99B",
"OX c #E8BB9F",
"+X c #D6A8A9",
"@X c #DDBEAE",
"#X c #CAAAB6",
"$X c #CDB0B4",
"%X c #EDBDAD",
"&X c #E5B8B6",
"*X c #DDC5BC",
"=X c #F5CBB8",
"-X c #D9B5C1",
";X c #CEC9D4",
":X c #DDC9D9",
">X c #E8CAC4",
",X c #F5CEC5",
"<X c #F8CECA",
"1X c #F4D1C7",
"2X c #FDD7D1",
"3X c #F1DCF0",
"4X c #F3EAF7",
"5X c #EEE9F5",
"6X c None",
/* pixels */
"6X6X6X6X6X6X6X6X6X6X6X6X6X6X6X6X6X6X6X6X6X6X6X6X6X6X6X6X6X6X6X6X6X6X6X6X6X6X6X6X6X6X6X6X6X",
"6X6X6X6X6X6X6X6X6X6X6X6X6X6X6X6X6X6X6X6X6X6X6X6X6X6X6X6X6X6X6X6X6X6X6X6X6X6X6X6X6X6X6X6X6X",
"6X6X6X6X6X6X6X6X6X6X6X6X6X6X6X6X6X6X6X6X6X6X6X6X6X6X6X6X6X6X6X6X6X6X6X6X6X6X6X6X6X6X6X6X6X",
"6X6X6X6X6X6X6X6X6X6X6X6X6X6X6X6X6X6X6X6X6X6X6X6X6X6X6X6X6X6X6X6X6X6X6X6X6X6X6X6X6X6X6X6X6X",
"6X6X6X6X6X6X6X6X6X6X6X6X6X6X6X6X6X6X6X6X6X6X6X6X6X6X6X6X6X6X6X6X6X6X6X6X6X6X6X6X6X6X6X6X6X",
"6X6X6X6X6X6X6X6X6X6X6X6X6X6X6X6X6X6X6X6X6X6X6X6X6X6X6X6X6X6X6X6X6X6X6X6X6X6X6X6X6X6X6X6X6X",
"6X6X6X6X6X6X6X6X6X6X6X6X6X6X6X6X6X6X6X6X6X6X6X6X6X6X6X6X6X6X6X6X6X6X6X6X6X6X6X6X6X6X6X6X6X",
"6X6X6X6X6X6X6X6X6X6X6X6X6X6X6X6X6X6X6X6X6X6X6X6X6X6X6X6X6X6X6X6X6X6X6X6X6X6X6X6X6X6X6X6X6X",
"6X6X6X6X6X6X6X6X6X6X6X6X6X6X6X6X6X6X6X6X6X6X6X6X6X6X6X6X6X6X6X6X6X6X6X6X6X6X6X6X6X6X6X6X6X",
"6X6X6X6X6X6X6X6X6X6X6X6X6X6X6X6X6X6X6X6X6X6X6X6X6X6X6X6X6X6X6X6X6X6X6X6X6X6X6X6X6X6X6X6X6X",
"6X6X6X6X6X6X6X6X6X6X6X6X6X6X6X6X6X6X6Xy y g s u u u g h 6X6X6X6X6X6X6X6X6X6X6X6X6X6X6X6X6X",
"6X6X6X6X6X6X6X6X6X6X6X6X6X6X6X6X6Xs O.q.s.i.p.s.i.b.i.d.v g 6X6X6X6X6X6X6X6X6X6X6X6X6X6X6X",
"6X6X6X6X6X6X6X6X6X6X6X6X6X6X6X6X6Xv $.i.V.N.N.B.H.F.N.Z.b c E 6X6X6X6X6X6X6X6X6X6X6X6X6X6X",
"6X6X6X6X6X6X6X6X6X6X6X6X6X6X6X6Xj #.b.m.N.N.B.N.F.D.F.V.S.a.r.g 6X6X6X6X6X6X6X6X6X6X6X6X6X",
"6X6X6X6X6X6X6X6X6X6X6X6X6X6X6X6Xz C.A.H.N.x.N.N.F.z.F.F.V.Z.C.a 6X6X6X6X6X6X6X6X6X6X6X6X6X",
"6X6X6X6X6X6X6X6X6X6X6X6X6X6X6Xe.a.C.A.F.F.J.F.F.G.z.c.c.F.B.Z.U I 6X6X6X6X6X6X6X6X6X6X6X6X",
"6X6X6X6X6X6X6X6X6X6X6X6X6X6X7 /.+X).A.H.G.J.x.G.D.z.z.v.z.x.K.$.I k 6X6X6X6X6X6X6X6X6X6X6X",
"6X6X6X6X6X6X6X6X6X6X6X6X6X6 ` ' 0.<X|.B.x.G.G.D.G.G.G.z.z.z.l.3.I k 6X6X6X6X6X6X6X6X6X6X6X",
"6X6X6X6X6X6X6X6X6X6X6X6X' ;X;X`.] 2Xp.g.F.G.F.F.H.H.D.F.z.x.g.1.c h 6X6X6X6X6X6X6X6X6X6X6X",
"6X6X6X6X6X6X6X6X6X6X6X7 [ 4X5X{.u.&Xf.4.k.j.k.k.n.M.M.n.l.h.&.1.c g 6X6X6X6X6X6X6X6X6X6X6X",
"6X6X6X6X6X6X6X6X6X6X6X7 [ 5X5X:X#X#.3.1.:.&.>.>.*.<.<.*.&.>.:.=.c u 6X6X6X6X6X6X6X6X6X6X6X",
"6X6X6X6X6X6X6X6X6X6X6XK ' }.3X(.U q.1.,.-.4.:.>.*.<.,.,.*.;.;.=.c l 6X6X6X6X6X6X6X6X6X6X6X",
"6X6X6X6X6X6X6X6X6X6X6X6X) ^.:X[.u.%.+.+.+.2.=.=.,.,.w.3.1.3.$.G a f 6X6X6X6X6X6X6X6X6X6X6X",
"6X6X6X6X6X6X6X6X6X6X6X6X6XK }.#X-XU %.#.$.O.@.@.3.#.w.w.w.@.O.z a s 6X6X6X6X6X6X6X6X6X6X6X",
"6X6X6X6X6X6X6X6X6X6X6X6X6X6X5 k i j j j p a z z w r t t t z z H V s 6X6X6X6X6X6X6X6X6X6X6X",
"6X6X6X6X6X6X6X6X6X6X6X6X6X6Xl V E = _ u.P a x G w b S S | A F f 7.6X6X6X6X6X6X6X6X6X6X6X6X",
"6X6X6X6X6X6X6X6X6X6X6X6X6X6XQ ( ^ X /.`./ a G 5.x S D | D S F d 6X6X6X6X6X6X6X6X6X6X6X6X6X",
"6X6X6X6X6X6X6X6X6X6X6X6X6X6XV y.XX$ $X>XXXe 6. X!.S e H F F s X 6X6X6X6X6X6X6X6X6X6X6X6X6X",
"6X6X6X6X6X6X6X6X6X6X6X6X6X6X6X@X>X,X1X,X=X~.!.!. XS e W ( V y 6X6X6X6X6X6X6X6X6X6X6X6X6X6X",
"6X6X6X6X6X6X6X6X6X6X6X6X6X6X6XoX].,X,X=X%XW.~.!.6.A x f d s 6X6X6X6X6X6X6X6X6X6X6X6X6X6X6X",
"6X6X6X6X6X6X6X6X6X6X6X6X6X6X6X6XF 1X,X%X.X~.!.Q.q S A % % , 6X6X6X6X6X6X6X6X6X6X6X6X6X6X6X",
"6X6X6X6X6X6X6X6X6X6X6X6X6X6X6X6X6XE W c G  X6.q q 0 m Y.9 Z 6X6X6X6X6X6X6X6X6X6X6X6X6X6X6X",
"6X6X6X6X6X6X6X6X6X6X6X6X6X6X6X6X6X6X! / ].+XE.6.{ ..o.U.P.J B 6X6X6X6X6X6X6X6X6X6X6X6X6X6X",
"6X6X6X6X6X6X6X6X6X6X6X6X6X6X6X6X6X6XR / '.'.R.E.N o.L.L.P.J 1 6X6X6X6X6X6X6X6X6X6X6X6X6X6X",
"6X6X6X6X6X6X6X6X6X6X6X6X6X6X6X6X6Xk ~ l o l d V % X.L.I.M e X 6X6X6X6X6X6X6X6X6X6X6X6X6X6X",
"6X6X6X6X6X6X6X6X6X6X6X6X6X6X6X6X6X5 ; 4 *X>X_.7 o n { { Y.Q * 6X6X6X6X6X6X6X6X6X6X6X6X6X6X",
"6X6X6X6X6X6X6X6X6X6X6X6X6X6X6X6X6Xk # y *X*Xu.K ; d B 8.8.C + 6X6X6X6X6X6X6X6X6X6X6X6X6X6X",
"6X6X6X6X6X6X6X6X6X6X6X6X6X6X6X6X6X8 O d XXoX[ T 8 : , T.C 4 . 6X6X6X6X6X6X6X6X6X6X6X6X6X6X",
"6X6X6X6X6X6X6X6X6X6X6X6X6X6X6X6X6X6Xk 3 O $ y ~ ' ;     + + 6X6X6X6X6X6X6X6X6X6X6X6X6X6X6X",
"6X6X6X6X6X6X6X6X6X6X6X6X6X6X6X6X6X6X@ , l F R _ Y ;   6X6X6X6X6X6X6X6X6X6X6X6X6X6X6X6X6X6X",
"6X6X6X6X6X6X6X6X6X6X6X6X6X6X6X6X6X6X- - R R Q R k @ @ 6X6X6X6X6X6X6X6X6X6X6X6X6X6X6X6X6X6X",
"6X6X6X6X6X6X6X6X6X6X6X6X6X6X6X6X6X6X6X6XX X o o X 6X6X6X6X6X6X6X6X6X6X6X6X6X6X6X6X6X6X6X6X",
"6X6X6X6X6X6X6X6X6X6X6X6X6X6X6X6X6X6X6X6X6X6X6X6X6X6X6X6X6X6X6X6X6X6X6X6X6X6X6X6X6X6X6X6X6X",
"6X6X6X6X6X6X6X6X6X6X6X6X6X6X6X6X6X6X6X6X6X6X6X6X6X6X6X6X6X6X6X6X6X6X6X6X6X6X6X6X6X6X6X6X6X",
"6X6X6X6X6X6X6X6X6X6X6X6X6X6X6X6X6X6X6X6X6X6X6X6X6X6X6X6X6X6X6X6X6X6X6X6X6X6X6X6X6X6X6X6X6X"
};
