/* XPM */
static char *result[] = {
/* columns rows colors chars-per-pixel */
"45 45 213 2 ",
"   c #0A0201",
".  c #040608",
"X  c #130403",
"o  c #1B0204",
"O  c #140A05",
"+  c #1C0B01",
"@  c #130D0B",
"#  c #1C0C0B",
"$  c #1D040C",
"%  c #1C120D",
"&  c #230302",
"*  c #24040A",
"=  c #26090E",
"-  c #241609",
";  c #321C07",
":  c #2C151A",
">  c #201E1D",
",  c #3D1F1A",
"<  c #2B0B11",
"1  c #25211E",
"2  c #352018",
"3  c #0C1521",
"4  c #201C21",
"5  c #3C2626",
"6  c #3B2C35",
"7  c #3D363A",
"8  c #2C2E31",
"9  c #4A1C1E",
"0  c #4C2302",
"q  c #572C03",
"w  c #4E3E08",
"e  c #462718",
"r  c #533019",
"t  c #533D17",
"y  c #4C3217",
"u  c #622B18",
"i  c #673B1D",
"p  c #492C2B",
"a  c #542C26",
"s  c #512D2A",
"d  c #5C2C2D",
"f  c #5C2629",
"g  c #44322D",
"h  c #493727",
"j  c #5D3125",
"k  c #593424",
"l  c #452933",
"z  c #4B2D33",
"x  c #422439",
"c  c #582E36",
"v  c #413331",
"b  c #493134",
"n  c #41343B",
"m  c #433C3A",
"M  c #483C38",
"N  c #53353C",
"B  c #583937",
"V  c #602A25",
"C  c #642C2C",
"Z  c #672826",
"A  c #612E32",
"S  c #66353A",
"D  c #7A3D3A",
"F  c #663E22",
"G  c #6E4A10",
"H  c #785712",
"J  c #5D4827",
"K  c #5F493D",
"L  c #4A423B",
"P  c #664326",
"I  c #74492B",
"U  c #774B29",
"Y  c #785B2A",
"T  c #694538",
"R  c #794839",
"E  c #7C5334",
"W  c #745139",
"Q  c #775A38",
"!  c #363C40",
"~  c #463544",
"^  c #5E3843",
"/  c #612F40",
"(  c #683C47",
")  c #773C48",
"_  c #4B4348",
"`  c #5D5057",
"'  c #534D57",
"]  c #644B47",
"[  c #6B4B43",
"{  c #6C444C",
"}  c #6B4E4B",
"|  c #664549",
" . c #764748",
".. c #6A5846",
"X. c #72544B",
"o. c #794855",
"O. c #6C5B53",
"+. c #505D6A",
"@. c #615864",
"#. c #5B656D",
"$. c #6C616D",
"%. c #746368",
"&. c #776873",
"*. c #813A3C",
"=. c #866719",
"-. c #854B3B",
";. c #9A7536",
":. c #875146",
">. c #855053",
",. c #9B5558",
"<. c #995658",
"1. c #8F4B50",
"2. c #AB4D46",
"3. c #A74D49",
"4. c #B44F4A",
"5. c #B84E42",
"6. c #AB5247",
"7. c #A6524D",
"8. c #AC524C",
"9. c #B35146",
"0. c #B35048",
"q. c #BD534A",
"w. c #A35554",
"e. c #AB5750",
"r. c #A65A5C",
"t. c #AC5F57",
"y. c #B55A53",
"u. c #986B48",
"i. c #807346",
"p. c #917141",
"a. c #886557",
"s. c #AE605B",
"d. c #A06B4B",
"f. c #825E66",
"g. c #965861",
"h. c #886C66",
"j. c #856A75",
"k. c #8E737E",
"l. c #98706F",
"z. c #B66767",
"x. c #A97076",
"c. c #C25249",
"v. c #C05B52",
"b. c #D15E58",
"n. c #DD6C5E",
"m. c #E36B5D",
"M. c #E8705F",
"N. c #E6715F",
"B. c #CD6A67",
"V. c #DC6E65",
"C. c #D26D64",
"Z. c #CC726A",
"A. c #DB756A",
"S. c #D77469",
"D. c #C77B78",
"F. c #D37571",
"G. c #D47A73",
"H. c #E56C62",
"J. c #E96E63",
"K. c #E57163",
"L. c #E87262",
"P. c #E3736A",
"I. c #EC736B",
"U. c #E47C72",
"Y. c #B28A39",
"T. c #B89339",
"R. c #C19537",
"E. c #AA915F",
"W. c #AF924D",
"Q. c #B58969",
"!. c #B7867D",
"~. c #AD9473",
"^. c #AD8770",
"/. c #D4807C",
"(. c #CC9B7E",
"). c #997D83",
"_. c #AD8988",
"`. c #B3948E",
"'. c #AF889A",
"]. c #B7A191",
"[. c #B39DAB",
"{. c #BAA7A7",
"}. c #DC8B86",
"|. c #D59E89",
" X c #CDA28F",
".X c #D9A688",
"XX c #D1A793",
"oX c #CBAA9E",
"OX c #C59EA9",
"+X c #CBABAD",
"@X c #D2B1AB",
"#X c #CFB8B3",
"$X c #D9B9B4",
"%X c #D0A7B0",
"&X c #E4A8A8",
"*X c #F0C8B5",
"=X c #BDB0C0",
"-X c #D4B6C9",
";X c #CDB6CB",
":X c #DAC7C5",
">X c #DFD2D0",
",X c #E8CDC8",
"<X c #FFCCCE",
"1X c #EFD0C8",
"2X c #F3D4CB",
"3X c #F5D1C2",
"4X c #FFCED0",
"5X c #E3DAD5",
"6X c #E7DBEB",
"7X c #F1DCF0",
"8X c #F1E3F4",
"9X c #FAEAFB",
"0X c None",
/* pixels */
"0X0X0X0X0X0X0X0X0X0X0X0X0X0X0X0X0X0X0X0X0X0X0X0X0X0X0X0X0X0X0X0X0X0X0X0X0X0X0X0X0X0X0X0X0X",
"0X0X0X0X0X0X0X0X0X0X0X0X0X0X0X0X0X0X0X0X0X0X0X0X0X0X0X0X0X0X0X0X0X0X0X0X0X0X0X0X0X0X0X0X0X",
"0X0X0X0X0X0X0X0X0X0X0X0X0X0X0X0X0X0X0X0X0X0X0X0X0X0X0X0X0X0X0X0X0X0X0X0X0X0X0X0X0X0X0X0X0X",
"0X0X0X0X0X0X0X0X0X0X0X0X0X0X0X0X0X0X0X0X0X0X0X0X0X0X0X0X0X0X0X0X0X0X0X0X0X0X0X0X0X0X0X0X0X",
"0X0X0X0X0X0X0X0X0X0X0X0X0X0X0X0X0X0X0X0X0X0X0X0X0X0X0X0X0X0X0X0X0X0X0X0X0X0X0X0X0X0X0X0X0X",
"0X0X0X0X0X0X0X0X0X0X0X0X0X0X0X0X0X0X0X0X0X0X0X0X0X0X0X0X0X0X0X0X0X0X0X0X0X0X0X0X0X0X0X0X0X",
"0X0X0X0X0X0X0X0X0X0X0X0X0X0X0X0X0X0X0X0X0X0X0X0X0X0X0X0X0X0X0X0X0X0X0X0X0X0X0X0X0X0X0X0X0X",
"0X0X0X0X0X0X0X0X0X0X0X0X0X0X0X0X0X0X0X0X0X0X0X0X0X0X0X0X0X0X0X0X0X0X0X0X0X0X0X0X0X0X0X0X0X",
"0X0X0X0X0X0X0X0X0X0X0X0X0X0X0X0X0X0X0X0X0X0X0X0X0X0X0X0X0X0X0X0X0X0X0X0X0X0X0X0X0X0X0X0X0X",
"0X0X0X0X0X0X0X0X0X0X0X0X0X0X0X0X0X0X| c C Z Z u V f a s 0X0X0X0X0X0X0X0X0X0X0X0X0X0X0X0X0X",
"0X0X0X0X0X0X0X0X0X0X0X0X0X0X0X0X0Xc >.r.D.Z.G.G.G.D./.!.j a p 0X0X0X0X0X0X0X0X0X0X0X0X0X0X",
"0X0X0X0X0X0X0X0X0X0X0X0X0X0X0X0Xc <.z.F.A.P.P.S.S.S.S.S.Z.s.1.B 0X0X0X0X0X0X0X0X0X0X0X0X0X",
"0X0X0X0X0X0X0X0X0X0X0X0X0X0X0X0Xf s.Z.A.V.K.N.N.K.K.K.K.n.C.t.A 0X0X0X0X0X0X0X0X0X0X0X0X0X",
"0X0X0X0X0X0X0X0X0X0X0X0X0X0X0X0XA D.F.V.K.K.K.N.K.K.K.L.K.A./.f 0X0X0X0X0X0X0X0X0X0X0X0X0X",
"0X0X0X0X0X0X0X0X0X0X0X0X0X0X7 ).%XD.G.U.K.m.m.M.N.K.J.J.J.V.F.<.( 6 0X0X0X0X0X0X0X0X0X0X0X",
"0X0X0X0X0X0X0X0X0X0X0X0X0X0X~ j.'.&X}.A.K.J.M.M.K.K.J.J.I.H.F.,.( b 0X0X0X0X0X0X0X0X0X0X0X",
"0X0X0X0X0X0X0X0X0X0X0X0X0X_ ` %.%.<X}.C.P.I.N.J.K.K.J.J.H.P.B.r.S c 0X0X0X0X0X0X0X0X0X0X0X",
"0X0X0X0X0X0X0X0X0X0X0X~ &.8X8X[.f.<Xz.y.V.I.K.K.P.K.P.K.I.b.4.w.) p 0X0X0X0X0X0X0X0X0X0X0X",
"0X0X0X0X0X0X0X0X0X0X0X6 &.6X9X-XOXx.w.y.y.5.5.q.q.q.q.c.c.q.3.r.S z 0X0X0X0X0X0X0X0X0X0X0X",
"0X0X0X0X0X0X0X0X0X0X0X! $.6X7X;X'.g.w.3.0.9.5.5.9.9.9.4.4.4.3.,.S b 0X0X0X0X0X0X0X0X0X0X0X",
"0X0X0X0X0X0X0X0X0X0X0X! @.=X8X'.) g.r.3.3.2.6.9.8.8.8.8.2.3.w.,.B b 0X0X0X0X0X0X0X0X0X0X0X",
"0X0X0X0X0X0X0X0X0X0X0X0X0X~ ;X-X%X) w.3.7.e.2.2.7.7.e.8.y.e.3.C s g 0X0X0X0X0X0X0X0X0X0X0X",
"0X0X0X0X0X0X0X0X0X0X0X0X0X0Xj.j.k./ ) ) ) R D -.R  .R *.*.*.o.A B v 0X0X0X0X0X0X0X0X0X0X0X",
"0X0X0X0X0X0X0X0X0X0X0X0X0X0Xg g c ~ x x p a j j a a a d V A d  .h h 0X0X0X0X0X0X0X0X0X0X0X",
"0X0X0X0X0X0X0X0X0X0X0X0X0X0XO.[ | $ j._.[ r G -.r I  .E -.-.W h 0X0X0X0X0X0X0X0X0X0X0X0X0X",
"0X0X0X0X0X0X0X0X0X0X0X0X0X0XT h.`.o {.$X!.F p.Q.Q.I G U U U k - 0X0X0X0X0X0X0X0X0X0X0X0X0X",
"0X0X0X0X0X0X0X0X0X0X0X0X0X0XO._.+Xp :X2XoXI d.(. XI u E E P y O 0X0X0X0X0X0X0X0X0X0X0X0X0X",
"0X0X0X0X0X0X0X0X0X0X0X0X0X0X0X$X1X2X2X*X*X.X(.(.|.R j W W T b 0X0X0X0X0X0X0X0X0X0X0X0X0X0X",
"0X0X0X0X0X0X0X0X0X0X0X0X0X0X0Xh.[ ,X2X*X.X(..X|.u R W - o # 0X0X0X0X0X0X0X0X0X0X0X0X0X0X0X",
"0X0X0X0X0X0X0X0X0X0X0X0X0X0X0X0X} `.`.!.l. XQ.d.u i P J ; 0X0X0X0X0X0X0X0X0X0X0X0X0X0X0X0X",
"0X0X0X0X0X0X0X0X0X0X0X0X0X0X0X0X0X} T [ T +Xa.0 q q H W.w 0X0X0X0X0X0X0X0X0X0X0X0X0X0X0X0X",
"0X0X0X0X0X0X0X0X0X0X0X0X0X0X0X0X0X0XX.%.+X#X].^.=.W.T.W.W.Q h 0X0X0X0X0X0X0X0X0X0X0X0X0X0X",
"0X0X0X0X0X0X0X0X0X0X0X0X0X0X0X0X0X] } X.b %.O...- ;.T.T.=.J - 0X0X0X0X0X0X0X0X0X0X0X0X0X0X",
"0X0X0X0X0X0X0X0X0X0X0X0X0X0X0X0X0Xv } B # m m L + p.Y.T.H t O 0X0X0X0X0X0X0X0X0X0X0X0X0X0X",
"0X0X0X0X0X0X0X0X0X0X0X0X0X0X0X0X0Xm @ # 7 L 7 L O J Y Y E...X 0X0X0X0X0X0X0X0X0X0X0X0X0X0X",
"0X0X0X0X0X0X0X0X0X0X0X0X0X0X0X0X_   {.>X5X5 1 . @ + ; ~.Q y o 0X0X0X0X0X0X0X0X0X0X0X0X0X0X",
"0X0X0X0X0X0X0X0X0X0X0X0X0X0X0Xl z * +X>X:X1 8 8 8 1 5 X.k e , 0X0X0X0X0X0X0X0X0X0X0X0X0X0X",
"0X0X0X0X0X0X0X0X0X0X0X0X0X0Xo l N * +X:X{.. ! +.#._ M o & 9 ( 0X0X0X0X0X0X0X0X0X0X0X0X0X0X",
"0X0X0X0X0X0X0X0X0X0X0X0X0X0X$ l ^ ^ < $ . @ . 3 . ' ' N S ) { = 0X0X0X0X0X0X0X0X0X0X0X0X0X",
"0X0X0X0X0X0X0X0X0X0X0X0X0X0X0X: : : 0X0X0X0X0X0X0X4 n | o.>.o.* 0X0X0X0X0X0X0X0X0X0X0X0X0X",
"0X0X0X0X0X0X0X0X0X0X0X0X0X0X0X0XX @ 0X0X0X0X0X0X0X. % { o. .( o 0X0X0X0X0X0X0X0X0X0X0X0X0X",
"0X0X0X0X0X0X0X0X0X0X0X0X0X0X0X0X0X0X0X0X0X0X0X0X0X0X0X$ * & o 0X0X0X0X0X0X0X0X0X0X0X0X0X0X",
"0X0X0X0X0X0X0X0X0X0X0X0X0X0X0X0X0X0X0X0X0X0X0X0X0X0X0X0X0X0X0X0X0X0X0X0X0X0X0X0X0X0X0X0X0X",
"0X0X0X0X0X0X0X0X0X0X0X0X0X0X0X0X0X0X0X0X0X0X0X0X0X0X0X0X0X0X0X0X0X0X0X0X0X0X0X0X0X0X0X0X0X",
"0X0X0X0X0X0X0X0X0X0X0X0X0X0X0X0X0X0X0X0X0X0X0X0X0X0X0X0X0X0X0X0X0X0X0X0X0X0X0X0X0X0X0X0X0X"
};
