/* XPM */
static char *result[] = {
/* columns rows colors chars-per-pixel */
"45 45 213 2 ",
"   c #0C0202",
".  c #060000",
"X  c #150604",
"o  c #1B0403",
"O  c #190608",
"+  c #1E0F10",
"@  c #1F1212",
"#  c #1F1607",
"$  c #230401",
"%  c #250707",
"&  c #2C1609",
"*  c #34170A",
"=  c #2B1719",
"-  c #2C1D1C",
";  c #2D1214",
":  c #3B1D1F",
">  c #2A231F",
",  c #3D261F",
"<  c #2D1E24",
"1  c #3C1D20",
"2  c #382C29",
"3  c #3E332C",
"4  c #3A2C34",
"5  c #3E353A",
"6  c #5E2D05",
"7  c #4C3B0F",
"8  c #5B3200",
"9  c #573001",
"0  c #45281A",
"q  c #5A3617",
"w  c #532C1D",
"e  c #632A19",
"r  c #6A3E16",
"t  c #482A2A",
"y  c #542C26",
"u  c #5C2A26",
"i  c #532C2C",
"p  c #5C2D2C",
"a  c #5E242A",
"s  c #48352B",
"d  c #5B3121",
"f  c #563C29",
"g  c #452C33",
"h  c #492B33",
"j  c #552F32",
"k  c #453332",
"l  c #49363A",
"z  c #51353A",
"x  c #52393D",
"c  c #5A3435",
"v  c #632D2A",
"b  c #632924",
"n  c #673C27",
"m  c #622E32",
"M  c #6A353C",
"N  c #633539",
"B  c #7F3C3A",
"V  c #783B39",
"C  c #704C11",
"Z  c #7D561A",
"A  c #674019",
"S  c #4F4126",
"D  c #5E4921",
"F  c #5A453E",
"G  c #674526",
"H  c #734A2B",
"J  c #774926",
"K  c #7A5529",
"L  c #674636",
"P  c #774A38",
"I  c #6E5038",
"U  c #765136",
"Y  c #413A40",
"T  c #423545",
"R  c #583A47",
"E  c #6A3A46",
"W  c #783B45",
"Q  c #4B4144",
"!  c #4C4150",
"~  c #584D59",
"^  c #5C4146",
"/  c #694847",
"(  c #7D4243",
")  c #714B46",
"_  c #665345",
"`  c #75574D",
"'  c #6B4A54",
"]  c #734C59",
"[  c #764954",
"{  c #665A56",
"}  c #76555A",
"|  c #7B525C",
" . c #795956",
".. c #5F5561",
"X. c #745B61",
"o. c #6C6167",
"O. c #77626E",
"+. c #786B73",
"@. c #813C3C",
"#. c #815519",
"$. c #8A681E",
"%. c #815137",
"&. c #89463A",
"*. c #A07021",
"=. c #8D504C",
"-. c #9A4A50",
";. c #825159",
":. c #845154",
">. c #9B5356",
",. c #995759",
"<. c #904C49",
"1. c #AB4D46",
"2. c #AA4F4A",
"3. c #A44B47",
"4. c #B44F4A",
"5. c #B94D42",
"6. c #AC5247",
"7. c #A6524E",
"8. c #AB524B",
"9. c #B25046",
"0. c #B2504A",
"q. c #BD534A",
"w. c #B85146",
"e. c #A35554",
"r. c #AC5650",
"t. c #A65A5C",
"y. c #B55A53",
"u. c #956A49",
"i. c #817249",
"p. c #9F6E53",
"a. c #AE605A",
"s. c #825D66",
"d. c #965861",
"f. c #8A6F69",
"g. c #846A75",
"h. c #8F737C",
"j. c #906A76",
"k. c #B26565",
"l. c #BD7F7B",
"z. c #A6746E",
"x. c #C34F4A",
"c. c #C35349",
"v. c #C05B52",
"b. c #D15E58",
"n. c #DE6C5E",
"m. c #E36B5D",
"M. c #E9705F",
"N. c #E6715F",
"B. c #C96B68",
"V. c #DC6E65",
"C. c #D26D64",
"Z. c #CB736A",
"A. c #DC756A",
"S. c #D6746A",
"D. c #C77B78",
"F. c #D37571",
"G. c #D57D77",
"H. c #E66E65",
"J. c #E96E62",
"K. c #E66760",
"L. c #E47163",
"P. c #E87163",
"I. c #E4736A",
"U. c #EB746C",
"Y. c #F07168",
"T. c #E47C72",
"R. c #BF933B",
"E. c #B2843B",
"W. c #B98F44",
"Q. c #B19150",
"!. c #AC8868",
"~. c #B68A6A",
"^. c #AF877B",
"/. c #AF9570",
"(. c #9C7C81",
"). c #AD898A",
"_. c #B7998C",
"`. c #B29392",
"'. c #AF899A",
"]. c #ACA095",
"[. c #B39DAB",
"{. c #BDB3A5",
"}. c #DC8B86",
"|. c #CE9C83",
" X c #D49F87",
".X c #CDA08A",
"XX c #D7A489",
"oX c #CDA797",
"OX c #C59EA9",
"+X c #C4A6A4",
"@X c #D2B0AD",
"#X c #D4A0B3",
"$X c #CDBFB5",
"%X c #D8B8B4",
"&X c #CFACAB",
"*X c #E4A8A8",
"=X c #D7C6BB",
"-X c #E1D1BF",
";X c #F2C8B5",
":X c #BDB0C0",
">X c #D5B6CA",
",X c #CDB6CB",
"<X c #F8CEC9",
"1X c #EFD0C6",
"2X c #F3D1C4",
"3X c #F3D3CC",
"4X c #FFCED0",
"5X c #EBD2CB",
"6X c #E8DBEB",
"7X c #F1DCF0",
"8X c #F1E3F4",
"9X c #FAEAFB",
"0X c None",
/* pixels */
"0X0X0X0X0X0X0X0X0X0X0X0X0X0X0X0X0X0X0X0X0X0X0X0X0X0X0X0X0X0X0X0X0X0X0X0X0X0X0X0X0X0X0X0X0X",
"0X0X0X0X0X0X0X0X0X0X0X0X0X0X0X0X0X0X0X0X0X0X0X0X0X0X0X0X0X0X0X0X0X0X0X0X0X0X0X0X0X0X0X0X0X",
"0X0X0X0X0X0X0X0X0X0X0X0X0X0X0X0X0X0X0X0X0X0X0X0X0X0X0X0X0X0X0X0X0X0X0X0X0X0X0X0X0X0X0X0X0X",
"0X0X0X0X0X0X0X0X0X0X0X0X0X0X0X0X0X0X0X0X0X0X0X0X0X0X0X0X0X0X0X0X0X0X0X0X0X0X0X0X0X0X0X0X0X",
"0X0X0X0X0X0X0X0X0X0X0X0X0X0X0X0X0X0X0X0X0X0X0X0X0X0X0X0X0X0X0X0X0X0X0X0X0X0X0X0X0X0X0X0X0X",
"0X0X0X0X0X0X0X0X0X0X0X0X0X0X0X0X0X0X0X0X0X0X0X0X0X0X0X0X0X0X0X0X0X0X0X0X0X0X0X0X0X0X0X0X0X",
"0X0X0X0X0X0X0X0X0X0X0X0X0X0X0X0X0X0X0X0X0X0X0X0X0X0X0X0X0X0X0X0X0X0X0X0X0X0X0X0X0X0X0X0X0X",
"0X0X0X0X0X0X0X0X0X0X0X0X0X0X0X0X0X0X0X0X0X0X0X0X0X0X0X0X0X0X0X0X0X0X0X0X0X0X0X0X0X0X0X0X0X",
"0X0X0X0X0X0X0X0X0X0X0X0X0X0X0X0X0X0X0X0X0X0X0X0X0X0X0X0X0X0X0X0X0X0X0X0X0X0X0X0X0X0X0X0X0X",
"0X0X0X0X0X0X0X0X0X0X0X0X0X0X0X0X0X0X/ j v b v e b u u u 0X0X0X0X0X0X0X0X0X0X0X0X0X0X0X0X0X",
"0X0X0X0X0X0X0X0X0X0X0X0X0X0X0X0X0Xj :.,.D.Z.G.F.F.D.D.^.b y 0X0X0X0X0X0X0X0X0X0X0X0X0X0X0X",
"0X0X0X0X0X0X0X0X0X0X0X0X0X0X0X0Xc ,.B.F.F.I.I.A.A.A.S.S.Z.a.=.0X0X0X0X0X0X0X0X0X0X0X0X0X0X",
"0X0X0X0X0X0X0X0X0X0X0X0X0X0X0X0Xa k.B.I.V.L.N.N.L.L.L.L.n.C.t.m 0X0X0X0X0X0X0X0X0X0X0X0X0X",
"0X0X0X0X0X0X0X0X0X0X0X0X0X0X0X0Xm D.F.V.L.L.L.N.L.L.L.J.P.A.G.b 0X0X0X0X0X0X0X0X0X0X0X0X0X",
"0X0X0X0X0X0X0X0X0X0X0X0X0X0X5 (.#XD.G.T.L.m.m.M.L.L.J.J.H.H.G.,.E 0X0X0X0X0X0X0X0X0X0X0X0X",
"0X0X0X0X0X0X0X0X0X0X0X0X0X0XR +.).*X}.S.L.J.M.M.L.H.J.J.Y.H.F.>.E 0X0X0X0X0X0X0X0X0X0X0X0X",
"0X0X0X0X0X0X0X0X0X0X0X0X0X! ~ O.X.4X}.F.I.L.J.P.P.H.H.J.K.U.B.t.N j 0X0X0X0X0X0X0X0X0X0X0X",
"0X0X0X0X0X0X0X0X0X0X0XY +.8X8X[.s.4Xk.y.V.U.L.P.L.L.I.I.U.b.4.-.W t 0X0X0X0X0X0X0X0X0X0X0X",
"0X0X0X0X0X0X0X0X0X0X0X4 +.6X9X>XOXz.e.y.v.5.5.c.q.q.q.c.x.q.4.t.V h 0X0X0X0X0X0X0X0X0X0X0X",
"0X0X0X0X0X0X0X0X0X0X0XT o.6X8X,X'.d.e.8.1.9.w.5.9.9.0.w.4.4.2.,.N h 0X0X0X0X0X0X0X0X0X0X0X",
"0X0X0X0X0X0X0X0X0X0X0XY ..:X7X'.E d.t.2.3.2.6.9.8.8.8.0.1.2.r.,.N k 0X0X0X0X0X0X0X0X0X0X0X",
"0X0X0X0X0X0X0X0X0X0X0X0X0XT ,X>X#XW -.7.7.r.6.1.8.7.r.7.y.r.-.v i k 0X0X0X0X0X0X0X0X0X0X0X",
"0X0X0X0X0X0X0X0X0X0X0X0X0X~ +.g.j.m W W ( &.V &.B ( ( @.@.B <.c x k 0X0X0X0X0X0X0X0X0X0X0X",
"0X0X0X0X0X0X0X0X0X0X0X0X0X0X3 k R T h h h y d d y j i p b v u ) S 0X0X0X0X0X0X0X0X0X0X0X0X",
"0X0X0X0X0X0X0X0X0X0X0X0X0X0X_ _ ' O h.(.) w G U w I U U %.%.P i 0X0X0X0X0X0X0X0X0X0X0X0X0X",
"0X0X0X0X0X0X0X0X0X0X0X0X0X0XF f.`.$ +X%X^.n u.~.!.H A J J K d & 0X0X0X0X0X0X0X0X0X0X0X0X0X",
"0X0X0X0X0X0X0X0X0X0X0X0X0X0X .).&Xt =X3XoXJ p.|.XXH q #.K L t X 0X0X0X0X0X0X0X0X0X0X0X0X0X",
"0X0X0X0X0X0X0X0X0X0X0X0X0X0X+X%X1X3X<X;X;XXX X|. XP q U I L k 0X0X0X0X0X0X0X0X0X0X0X0X0X0X",
"0X0X0X0X0X0X0X0X0X0X0X0X0X0X0Xf./ 2X1X;X.X|.XX X6 J G # o + 0X0X0X0X0X0X0X0X0X0X0X0X0X0X0X",
"0X0X0X0X0X0X0X0X0X0X0X0X0X0X0X0X` `._.^.z.|.~.u.6 A G I & 0X0X0X0X0X0X0X0X0X0X0X0X0X0X0X0X",
"0X0X0X0X0X0X0X0X0X0X0X0X0X0X0X0X0X/ L ) I oXu.9 8 9 C Q.7 D 0X0X0X0X0X0X0X0X0X0X0X0X0X0X0X",
"0X0X0X0X0X0X0X0X0X0X0X0X0X0X0X0X0X0X) [ &X&X]./.C Q.W.Q.Q.` s 0X0X0X0X0X0X0X0X0X0X0X0X0X0X",
"0X0X0X0X0X0X0X0X0X0X0X0X0X0X0X0X0Xx [ | } } { _ * Z *.R.$.D & 0X0X0X0X0X0X0X0X0X0X0X0X0X0X",
"0X0X0X0X0X0X0X0X0X0X0X0X0X0X0X0X0Xz } ' R 4 l Q # G Z E.#.7   0X0X0X0X0X0X0X0X0X0X0X0X0X0X",
"0X0X0X0X0X0X0X0X0X0X0X0X0X0X0X0X0Xz ] [ R O < 5 f & * K !.I X 0X0X0X0X0X0X0X0X0X0X0X0X0X0X",
"0X0X0X0X0X0X0X0X0X0X0X0X0X0X0X0X0X' | | ] . +.5X-Xg 0 !.I f   0X0X0X0X0X0X0X0X0X0X0X0X0X0X",
"0X0X0X0X0X0X0X0X0X0X0X0X0X0X0X0X0X[ W ' X.. { =X=X3 & ` 0 2 > 0X0X0X0X0X0X0X0X0X0X0X0X0X0X",
"0X0X0X0X0X0X0X0X0X0X0X0X0X0X0X0Xi ;.E E ~ . { ].{.2 % o % ; l 0X0X0X0X0X0X0X0X0X0X0X0X0X0X",
"0X0X0X0X0X0X0X0X0X0X0X0X0X0X0X; % ;.:.} X.5 > X . 2 k ^ x x Q 0X0X0X0X0X0X0X0X0X0X0X0X0X0X",
"0X0X0X0X0X0X0X0X0X0X0X0X0X0X0X0X0X: : : > 0X0X0X0X0X0X= - < 0X0X0X0X0X0X0X0X0X0X0X0X0X0X0X",
"0X0X0X0X0X0X0X0X0X0X0X0X0X0X0X0X0XX O X = 0X0X0X0X0X0X+ X 0X0X0X0X0X0X0X0X0X0X0X0X0X0X0X0X",
"0X0X0X0X0X0X0X0X0X0X0X0X0X0X0X0X0X0X0X0X0X0X0X0X0X0X0X0X0X0X0X0X0X0X0X0X0X0X0X0X0X0X0X0X0X",
"0X0X0X0X0X0X0X0X0X0X0X0X0X0X0X0X0X0X0X0X0X0X0X0X0X0X0X0X0X0X0X0X0X0X0X0X0X0X0X0X0X0X0X0X0X",
"0X0X0X0X0X0X0X0X0X0X0X0X0X0X0X0X0X0X0X0X0X0X0X0X0X0X0X0X0X0X0X0X0X0X0X0X0X0X0X0X0X0X0X0X0X",
"0X0X0X0X0X0X0X0X0X0X0X0X0X0X0X0X0X0X0X0X0X0X0X0X0X0X0X0X0X0X0X0X0X0X0X0X0X0X0X0X0X0X0X0X0X"
};
