/* XPM */
static char *result[] = {
/* columns rows colors chars-per-pixel */
"45 45 211 2 ",
"   c #040302",
".  c #0D0404",
"X  c #0C0909",
"o  c #0C0607",
"O  c #120503",
"+  c #190301",
"@  c #120A05",
"#  c #14060C",
"$  c #130B0C",
"%  c #151A10",
"&  c #210400",
"*  c #290906",
"=  c #310A03",
"-  c #28130E",
";  c #39130A",
":  c #241612",
">  c #281B17",
",  c #2B221B",
"<  c #37261E",
"1  c #2A1E21",
"2  c #2D2127",
"3  c #342C26",
"4  c #382925",
"5  c #3D332C",
"6  c #3F3527",
"7  c #3B2F34",
"8  c #4A2308",
"9  c #5B3404",
"0  c #58320A",
"q  c #4C2917",
"w  c #562D1A",
"e  c #45331F",
"r  c #593215",
"t  c #5D3B1A",
"y  c #61281F",
"u  c #62371B",
"i  c #472D2C",
"p  c #4D2B2D",
"a  c #432725",
"s  c #5A2A24",
"d  c #562A29",
"f  c #5B2B2B",
"g  c #522D27",
"h  c #4B342B",
"j  c #443B2A",
"k  c #473628",
"l  c #5C3526",
"z  c #54352C",
"x  c #5E352E",
"c  c #523B2C",
"v  c #593625",
"b  c #4A2C31",
"n  c #532D32",
"m  c #4C3736",
"M  c #4F3C33",
"N  c #4C3439",
"B  c #453C3B",
"V  c #483737",
"C  c #543432",
"Z  c #533B33",
"A  c #5D3C34",
"S  c #5D3633",
"D  c #652B26",
"F  c #623323",
"G  c #63352B",
"H  c #69352B",
"J  c #623A2C",
"K  c #683B2C",
"L  c #6D3524",
"P  c #683737",
"I  c #7C3A3B",
"U  c #773A39",
"Y  c #7D520A",
"T  c #784F1C",
"R  c #6B441B",
"E  c #4F4438",
"W  c #58463A",
"Q  c #664228",
"!  c #794D2B",
"~  c #63453A",
"^  c #694838",
"/  c #784738",
"(  c #6C5535",
")  c #78553B",
"_  c #7E3E44",
"`  c #554943",
"'  c #5C4E4E",
"]  c #5C4746",
"[  c #5F4E50",
"{  c #5E5347",
"}  c #624A45",
"|  c #624B48",
" . c #6B4C44",
".. c #784B47",
"X. c #6E5543",
"o. c #6F5648",
"O. c #755542",
"+. c #624F58",
"@. c #635354",
"#. c #6C5C5C",
"$. c #6C5956",
"%. c #795457",
"&. c #7B6057",
"*. c #766064",
"=. c #845A0D",
"-. c #885904",
";. c #885F17",
":. c #9E751D",
">. c #A77916",
",. c #815127",
"<. c #854F34",
"1. c #80463F",
"2. c #855234",
"3. c #84553B",
"4. c #875B37",
"5. c #824C2A",
"6. c #936C2F",
"7. c #997436",
"8. c #894A46",
"9. c #9A4A4A",
"0. c #83534F",
"q. c #9C544D",
"w. c #97514F",
"e. c #895B56",
"r. c #9B5552",
"t. c #9B5955",
"y. c #9D5759",
"u. c #965B57",
"i. c #AC4D49",
"p. c #B74C4A",
"a. c #A6524B",
"s. c #AC514B",
"d. c #B3514A",
"f. c #B55245",
"g. c #A65451",
"h. c #A75856",
"j. c #B75955",
"k. c #8E6B4C",
"l. c #87635A",
"z. c #8C625C",
"x. c #93685A",
"c. c #96755B",
"v. c #A37A49",
"b. c #B56159",
"n. c #8D6D68",
"m. c #91726A",
"M. c #BE6B67",
"N. c #BC6E6B",
"B. c #B76E68",
"V. c #BA706E",
"C. c #A67B79",
"Z. c #B37372",
"A. c #AA6B6E",
"S. c #CE685C",
"D. c #D36A5E",
"F. c #D4645C",
"G. c #DC735E",
"H. c #EB6E5E",
"J. c #EA6A5C",
"K. c #E5725E",
"L. c #C66A65",
"P. c #D96E64",
"I. c #CA736D",
"U. c #C4756B",
"Y. c #DD7464",
"T. c #D4726C",
"R. c #DB736C",
"E. c #D3786F",
"W. c #C97975",
"Q. c #DA7571",
"!. c #D47875",
"~. c #E66D63",
"^. c #EC6E64",
"/. c #EB6E6B",
"(. c #F26D68",
"). c #E37263",
"_. c #EA7162",
"`. c #E3726B",
"'. c #E47769",
"]. c #E27774",
"[. c #BA9719",
"{. c #BE992C",
"}. c #A2813D",
"|. c #B49437",
" X c #C0971E",
".X c #C39A27",
"XX c #CBA43C",
"oX c #9D805E",
"OX c #B79444",
"+X c #BB9240",
"@X c #AB8650",
"#X c #B38D51",
"$X c #B59158",
"%X c #9E817D",
"&X c #B79465",
"*X c #A78A78",
"=X c #B39278",
"-X c #C7A257",
";X c #CA8079",
":X c #A89393",
">X c #B39C94",
",X c #BA9F9A",
"<X c #B8A095",
"1X c #BEA8A5",
"2X c #CBACA0",
"3X c #DBC2BA",
"4X c #E4C8BC",
"5X c #EECFC4",
"6X c #EED1C9",
"7X c #F6D9D2",
"8X c None",
/* pixels */
"8X8X8X8X8X8X8X8X8X8X8X8X8X8X8X8X8X8X8X8X8X8X8X8X8X8X8X8X8X8X8X8X8X8X8X8X8X8X8X8X8X8X8X8X8X",
"8X8X8X8X8X8X8X8X8X8X8X8X8X8X8X8X8X8X8X8X8X8X8X8X8X8X8X8X8X8X8X8X8X8X8X8X8X8X8X8X8X8X8X8X8X",
"8X8X8X8X8X8X8X8X8X8X8X8X8X8X8X8X8X8X8X8X8X8X8X8X8X8X8X8X8X8X8X8X8X8X8X8X8X8X8X8X8X8X8X8X8X",
"8X8X8X8X8X8X8X8X8X8X8X8X8X8X8X8X8X8X8X8X8X8X8X8X8X8X8X8X8X8X8X8X8X8X8X8X8X8X8X8X8X8X8X8X8X",
"8X8X8X8X8X8X8X8X8X8X8X8X8X8X8X8X8X8X8X8X8X8X8X8X8X8X8X8X8X8X8X8X8X8X8X8X8X8X8X8X8X8X8X8X8X",
"8X8X8X8X8X8X8X8X8X8X8X8X8X8X8X8X8X8X8X8X8X8X8X8X8X8X8X8X8X8X8X8X8X8X8X8X8X8X8X8X8X8X8X8X8X",
"8X8X8X8X8X8X8X8X8X8X8X8X8X8X8X8X8X8X8X8X8X8X8X8X8X8X8X8X8X8X8X8X8X8X8X8X8X8X8X8X8X8X8X8X8X",
"8X8X8X8X8X8X8X8X8X8X8X8X8X8X8X8X8X8X8X8X8X8X8X8X8X8X8X8X8X8X8X8X8X8X8X8X8X8X8X8X8X8X8X8X8X",
"8X8X8X8X8X8X8X8X8X8X8X8X8X8X8X8X8X8X8X8X8X8X8X8X8X8X8X8X8X8X8X8X8X8X8X8X8X8X8X8X8X8X8X8X8X",
"8X8X8X8X8X8X8X8X8X8X8X8X8X8X8X8X8X8X8X8X8X8X8X8X8X8X8X8X8X8X8X8X8X8X8X8X8X8X8X8X8X8X8X8X8X",
"8X8X8X8X8X8X8X8X8X8X8X8X8X8X8X8X8Xi m p p b h p p b 8X8X8X8X8X8X8X8X8X8X8X8X8X8X8X8X8X8X8X",
"8X8X8X8X8X8X8X8X8X8X8X8X8X8X8Xb x C.Z.V.N.L.L.U.B.N.A.d N 8X8X8X8X8X8X8X8X8X8X8X8X8X8X8X8X",
"8X8X8X8X8X8X8X8X8X8X8X8X8X8XP ^ I W.!.R.R.'.G.K.`.Q.L.I P ] 8X8X8X8X8X8X8X8X8X8X8X8X8X8X8X",
"8X8X8X8X8X8X8X8X8X8X8X8X8Xn u.B.I.R.R.R.Y.G.G.Y.R.R.I.W.u...a 8X8X8X8X8X8X8X8X8X8X8X8X8X8X",
"8X8X8X8X8X8X8X8X8X8X8X8X8Xs W.Q.].`.`.).Y.G.G.G.'.'.P.T.W.y.f 8X8X8X8X8X8X8X8X8X8X8X8X8X8X",
"8X8X8X8X8X8X8X8X8X8X8X8XA ..!.`./.(.^.).K.K.K.G.).).~.`.R.j._ 8X8X8X8X8X8X8X8X8X8X8X8X8X8X",
"8X8X8X8X8X8X8X8X8X8X8Xm ~ w.].`.^.^.^.).^.H.H.J._._._._.).L.y.n 8X8X8X8X8X8X8X8X8X8X8X8X8X",
"8X8X8X8X8X8X8X8X8X8X8Xb P h.E.'.J.).~.).^.J.(.(.^._.J._.'.b.r.n 8X8X8X8X8X8X8X8X8X8X8X8X8X",
"8X8X8X8X8X8X8X8X8X8X8Xn P g.j.S.Y.R.R.).^.(./.(.~.~.~.P.f.b.u.C 8X8X8X8X8X8X8X8X8X8X8X8X8X",
"8X8X8X8X8X8X8X8X8X8X8Xb _ h.s.j.S.P.R.T.R.].Q.`.~.F.D.S.a.g.0.C 8X8X8X8X8X8X8X8X8X8X8X8X8X",
"8X8X8X8X8X8X8X8X8X8X8Xb P u.h.d.d.d.T.!.I.W.U.W.Q.j.d.s.a.y.0.C 8X8X8X8X8X8X8X8X8X8X8X8X8X",
"8X8X8X8X8X8X8X8X8X8X7 N n D q.i.p.p.p.9.H J F L q.a.s.j.g./ G C Z 2 8X8X8X8X8X8X8X8X8X8X8X",
"8X8X8X8X8X8X8X8X8X8X> *.%.f r.g.s.s.9._ S S z G 1.q.a.g.9.1.d n.i % 8X8X8X8X8X8X8X8X8X8X8X",
"8X8X8X8X8X8X8X8X8X8X  :X%Xd u.q.r.r.I f S n z x G 8.t.q.9...x >Xj $ 8X8X8X8X8X8X8X8X8X8X8X",
"8X8X8X8X8X8X8X8X8X8XX :XC.i s D D t.u.e.l.l.z.e.e.x.8.D D s g 1X7   8X8X8X8X8X8X8X8X8X8X8X",
"8X8X8X8X8X8X8X8X8X8X8X4 a h  .J w H L H H J G P H P P s U A i 2 8X8X8X8X8X8X8X8X8X8X8X8X8X",
"8X8X8X8X8X8X8X8X8X8X8X@ : 4 ~ Q l F F F r u F F F s F v ^ c < O 8X8X8X8X8X8X8X8X8X8X8X8X8X",
"8X8X8X8X8X8X8X8X8X8X8X8X8X@ k W o.O.O.8.3.<.<.! 3.) ) X.k , @ 8X8X8X8X8X8X8X8X8X8X8X8X8X8X",
"8X8X8X8X8X8X8X8X8X8X8X8X8X8X  > Z X./ ) <.<.<.2.! ) ( e O @ 8X8X8X8X8X8X8X8X8X8X8X8X8X8X8X",
"8X8X8X8X8X8X8X8X8X8X8X8X8X8X, , : c J ^ 2.5.2.2.Q v h , > 8X8X8X8X8X8X8X8X8X8X8X8X8X8X8X8X",
"8X8X8X8X8X8X8X8X8X8X8X8X8X8XB 2 + + w u ! ,.,.3.0 = + + B 8X8X8X8X8X8X8X8X8X8X8X8X8X8X8X8X",
"8X8X8X8X8X8X8X8X8X8X8X8X8Xo 5 k c =XQ 0 9 9 9 8 r c.%Xh M 1 $ 8X8X8X8X8X8X8X8X8X8X8X8X8X8X",
"8X8X8X8X8X8X8X8X8X8X8X  % 3 6 E ^ =Xq 0 7.}.7.v.; c.c.M M 6 3 O 8X8X8X8X8X8X8X8X8X8X8X8X8X",
"8X8X8X8X8X8X8X8X8X8X8X, 5 E k v J c.r u OX|.|.-X8 k.k.~ i Z M 4 8X8X8X8X8X8X8X8X8X8X8X8X8X",
"8X8X8X8X8X8X8X8X8X8X[ 3X4X,X= z ..= @X|.{.[.[.{.+Xq ; &.&  .2X5Xm.| 8X8X8X8X8X8X8X8X8X8X8X",
"8X8X8X8X8X8X8X8X8X8X' 3X6X7X+ a G r T ;.{.[..XXX=.Q v A * &.4X6Xn.} 8X8X8X8X8X8X8X8X8X8X8X",
"8X8X8X8X8X8X8X8X8X8X8X,X>X:X> N ^ q 4.7.>.>.>.}.6.t c ] > @.>X<Xn.8X8X8X8X8X8X8X8X8X8X8X8X",
"8X8X8X8X8X8X8X8X8X8X8X8X+.+.V ] $.k oX@XY -.-.T &XQ h #.B ` { ] 8X8X8X8X8X8X8X8X8X8X8X8X8X",
"8X8X8X8X8X8X8X8X8X8X8X8X8X8X# 1 V $.- 8 &X#X$X&X+ W $.B o X 8X8X8X8X8X8X8X8X8X8X8X8X8X8X8X",
"8X8X8X8X8X8X8X8X8X8X8X8X8X8X# 7 @.$.E E ( ) ( ) a | #.@.o $ 8X8X8X8X8X8X8X8X8X8X8X8X8X8X8X",
"8X8X8X8X8X8X8X8X8X8X8X8X8X8X# 2 +.#.N 6 k j j j E ` ' +.# 8X8X8X8X8X8X8X8X8X8X8X8X8X8X8X8X",
"8X8X8X8X8X8X8X8X8X8X8X8X8X8X8X# # # 8X8X8X8X8X8X8Xo O . 8X8X8X8X8X8X8X8X8X8X8X8X8X8X8X8X8X",
"8X8X8X8X8X8X8X8X8X8X8X8X8X8X8X8X8X8X8X8X8X8X8X8X8X8X8X8X8X8X8X8X8X8X8X8X8X8X8X8X8X8X8X8X8X",
"8X8X8X8X8X8X8X8X8X8X8X8X8X8X8X8X8X8X8X8X8X8X8X8X8X8X8X8X8X8X8X8X8X8X8X8X8X8X8X8X8X8X8X8X8X",
"8X8X8X8X8X8X8X8X8X8X8X8X8X8X8X8X8X8X8X8X8X8X8X8X8X8X8X8X8X8X8X8X8X8X8X8X8X8X8X8X8X8X8X8X8X"
};
