/* XPM */
static char *result[] = {
/* columns rows colors chars-per-pixel */
"45 45 217 2 ",
"   c #070600",
".  c #0C0605",
"X  c #04030B",
"o  c #0A0905",
"O  c #140402",
"+  c #1C0202",
"@  c #140A02",
"#  c #1A0C0C",
"$  c #13070D",
"%  c #16120E",
"&  c #060812",
"*  c #160C11",
"=  c #1A1311",
"-  c #0C130A",
";  c #260803",
":  c #300C03",
">  c #25140B",
",  c #2B110F",
"<  c #301E13",
"1  c #2B1D14",
"2  c #292317",
"3  c #39261D",
"4  c #121824",
"5  c #1F2B36",
"6  c #382C26",
"7  c #3C3B2B",
"8  c #3D3D35",
"9  c #3E3B3C",
"0  c #2E2C37",
"q  c #5E3309",
"w  c #4C2C11",
"e  c #48281D",
"r  c #5B2A1E",
"t  c #572C1A",
"y  c #49311E",
"u  c #4E3C1A",
"i  c #593314",
"p  c #5C3A1A",
"a  c #572E07",
"s  c #652D00",
"d  c #623302",
"f  c #683B1D",
"g  c #763B1A",
"h  c #4E2A25",
"j  c #452C2D",
"k  c #4A2A27",
"l  c #5B2522",
"z  c #552B25",
"x  c #5E2A23",
"c  c #532C2C",
"v  c #5A2B27",
"b  c #4C3326",
"n  c #473826",
"m  c #533423",
"M  c #5B3224",
"N  c #553B2D",
"B  c #5A362B",
"V  c #422F30",
"C  c #592E33",
"Z  c #4B3333",
"A  c #473E33",
"S  c #4A3C34",
"D  c #493538",
"F  c #553334",
"G  c #543539",
"H  c #57393C",
"J  c #632622",
"K  c #622C28",
"L  c #68322F",
"P  c #612E30",
"I  c #6A3B3A",
"U  c #673636",
"Y  c #733437",
"T  c #734719",
"R  c #4A402D",
"E  c #5A412E",
"W  c #4A4336",
"Q  c #5D4335",
"!  c #57453C",
"~  c #6C4335",
"^  c #694C38",
"/  c #794735",
"(  c #754939",
")  c #794736",
"_  c #77533D",
"`  c #7D523A",
"'  c #734927",
"]  c #7F6132",
"[  c #323C42",
"{  c #483C44",
"}  c #574C4D",
"|  c #5B4C4B",
" . c #554943",
".. c #585556",
"X. c #714749",
"o. c #794648",
"O. c #6A5545",
"+. c #755445",
"@. c #635454",
"#. c #625059",
"$. c #715C52",
"%. c #654F49",
"&. c #7D6246",
"*. c #60645D",
"=. c #786556",
"-. c #695B63",
";. c #666168",
":. c #813E34",
">. c #815701",
",. c #875513",
"<. c #886309",
"1. c #844C24",
"2. c #844F39",
"3. c #834939",
"4. c #865039",
"5. c #825925",
"6. c #916F27",
"7. c #967329",
"8. c #9D7731",
"9. c #866E37",
"0. c #A17F3E",
"q. c #B07633",
"w. c #824C45",
"e. c #854548",
"r. c #994D48",
"t. c #85504D",
"y. c #94524B",
"u. c #99544B",
"i. c #8F4F51",
"p. c #945553",
"a. c #9C5852",
"s. c #95595C",
"d. c #9B5D5C",
"f. c #995653",
"g. c #8B5457",
"h. c #AB4F48",
"j. c #A24F4B",
"k. c #AA544D",
"l. c #A8544A",
"z. c #B35349",
"x. c #B95449",
"c. c #A95652",
"v. c #A25B56",
"b. c #B44D43",
"n. c #8E6F57",
"m. c #86785A",
"M. c #A9605D",
"N. c #AF695E",
"B. c #BB665D",
"V. c #B7675C",
"C. c #8A6F6B",
"Z. c #907B6B",
"A. c #B26860",
"S. c #BD7E7B",
"D. c #AD736A",
"F. c #C2564B",
"G. c #C56A5F",
"H. c #CB6657",
"J. c #D36B5F",
"K. c #E16D5D",
"L. c #E2735D",
"P. c #E8705F",
"I. c #C66F65",
"U. c #CD6E68",
"Y. c #D96D62",
"T. c #CA736A",
"R. c #DB7564",
"E. c #DC746B",
"W. c #D77969",
"Q. c #D87968",
"!. c #CD7973",
"~. c #C47C77",
"^. c #D27771",
"/. c #D97570",
"(. c #E46F64",
"). c #E96F63",
"_. c #E86F68",
"`. c #E37164",
"'. c #E97161",
"]. c #E7766B",
"[. c #B9951B",
"{. c #BB8C15",
"}. c #BF8B2A",
"|. c #BB9727",
" X c #AE873B",
".X c #BC8836",
"XX c #BD9038",
"oX c #C39329",
"OX c #C79528",
"+X c #C19036",
"@X c #C2A02E",
"#X c #B08A5D",
"$X c #AB935F",
"%X c #B6905E",
"&X c #A88C5A",
"*X c #908573",
"=X c #B18E6C",
"-X c #A49161",
";X c #A3857C",
":X c #A38C78",
">X c #B79775",
",X c #CD837C",
"<X c #D2807A",
"1X c #E48277",
"2X c #A08B88",
"3X c #B19A8D",
"4X c #A39190",
"5X c #B49C99",
"6X c #AB9384",
"7X c #BCA9A2",
"8X c #C2AB9A",
"9X c #C8A8A7",
"0X c #EDCFC6",
"qX c #F2CBC2",
"wX c #ECD2CB",
"eX c #F3D1C9",
"rX c None",
/* pixels */
"rXrXrXrXrXrXrXrXrXrXrXrXrXrXrXrXrXrXrXrXrXrXrXrXrXrXrXrXrXrXrXrXrXrXrXrXrXrXrXrXrXrXrXrXrX",
"rXrXrXrXrXrXrXrXrXrXrXrXrXrXrXrXrXrXrXrXrXrXrXrXrXrXrXrXrXrXrXrXrXrXrXrXrXrXrXrXrXrXrXrXrX",
"rXrXrXrXrXrXrXrXrXrXrXrXrXrXrXrXrXrXrXrXrXrXrXrXrXrXrXrXrXrXrXrXrXrXrXrXrXrXrXrXrXrXrXrXrX",
"rXrXrXrXrXrXrXrXrXrXrXrXrXrXrXrXrXrXrXrXrXrXrXrXrXrXrXrXrXrXrXrXrXrXrXrXrXrXrXrXrXrXrXrXrX",
"rXrXrXrXrXrXrXrXrXrXrXrXrXrXrXrXrXrXrXrXrXrXrXrXrXrXrXrXrXrXrXrXrXrXrXrXrXrXrXrXrXrXrXrXrX",
"rXrXrXrXrXrXrXrXrXrXrXrXrXrXrXrXrXrXrXrXrXrXrXrXrXrXrXrXrXrXrXrXrXrXrXrXrXrXrXrXrXrXrXrXrX",
"rXrXrXrXrXrXrXrXrXrXrXrXrXrXrXrXrXrXrXrXrXrXrXrXrXrXrXrXrXrXrXrXrXrXrXrXrXrXrXrXrXrXrXrXrX",
"rXrXrXrXrXrXrXrXrXrXrXrXrXrXrXrXrXrXrXrXrXrXrXrXrXrXrXrXrXrXrXrXrXrXrXrXrXrXrXrXrXrXrXrXrX",
"rXrXrXrXrXrXrXrXrXrXrXrXrXrXrXrXrXrXrXrXrXrXrXrXrXrXrXrXrXrXrXrXrXrXrXrXrXrXrXrXrXrXrXrXrX",
"rXrXrXrXrXrXrXrXrXrXrXrXrXrXrXrXrXc v v J J J J r l h rXrXrXrXrXrXrXrXrXrXrXrXrXrXrXrXrXrX",
"rXrXrXrXrXrXrXrXrXrXrXrXrXrXj c v ~.~.!.^.^.^.!.!.,XD.M b rXrXrXrXrXrXrXrXrXrXrXrXrXrXrXrX",
"rXrXrXrXrXrXrXrXrXrXrXrXrXG t.M.T././.E.`.E.E.Q.E.Q.Q.V.y.o.rXrXrXrXrXrXrXrXrXrXrXrXrXrXrX",
"rXrXrXrXrXrXrXrXrXrXrXrXrXC M.U.Y._._._.`.`.E.`.L.L.L.R.V.i.C rXrXrXrXrXrXrXrXrXrXrXrXrXrX",
"rXrXrXrXrXrXrXrXrXrXrXrXrXl <XQ._._._.(.`.`.`.(.`.L.L.R.U.f.P rXrXrXrXrXrXrXrXrXrXrXrXrXrX",
"rXrXrXrXrXrXrXrXrXrXrXj I p.^.Y.(.).).).'.'.'.`.`.`.`.R.1XV.p.k rXrXrXrXrXrXrXrXrXrXrXrXrX",
"rXrXrXrXrXrXrXrXrXrXrXZ I a.T.R.'.).).).).(.'.'.'.`.(.`.R.B.a.z rXrXrXrXrXrXrXrXrXrXrXrXrX",
"rXrXrXrXrXrXrXrXrXrXrXG U M.G.R.K.'.).).L.P.P.P.'.`.`.`.Y.I.v.v rXrXrXrXrXrXrXrXrXrXrXrXrX",
"rXrXrXrXrXrXrXrXrXrXrXG P a.l.H.K.K.].K.`.`.L.`.(.R.].E.x.h.a.c rXrXrXrXrXrXrXrXrXrXrXrXrX",
"rXrXrXrXrXrXrXrXrXrXrXZ I d.l.x.b.F.J.R.Q.Q.Q.1XR.F.F.F.z.c.p.F rXrXrXrXrXrXrXrXrXrXrXrXrX",
"rXrXrXrXrXrXrXrXrXrXrXF H o.l.h.x.k.I.I.N.N.N.N.I.x.b.x.h.r.g.C rXrXrXrXrXrXrXrXrXrXrXrXrX",
"rXrXrXrXrXrXrXrXrXrX8 V c v v.k.z.c.v.e.P C v Y y.k.b.h.j.e.P k j D rXrXrXrXrXrXrXrXrXrXrX",
"rXrXrXrXrXrXrXrXrXrX. 4X;XJ u.r.j.u.Y I C { Z G L r.l.k.f.o.C 9XG O rXrXrXrXrXrXrXrXrXrXrX",
"rXrXrXrXrXrXrXrXrXrX. 2X;Xy ( ) 3.d.e.o.o.o.X.o.) f.u.3.Y U k 9XF O rXrXrXrXrXrXrXrXrXrXrX",
"rXrXrXrXrXrXrXrXrXrX% 5X;Xk b m l s.s.s.f.p.s.p.d.d.w.t K h k 5XZ * rXrXrXrXrXrXrXrXrXrXrX",
"rXrXrXrXrXrXrXrXrXrXrX@ > j %.E x J J r r r r r r r r t +.! 3 @ rXrXrXrXrXrXrXrXrXrXrXrXrX",
"rXrXrXrXrXrXrXrXrXrXrXrXrX# n ~ ~ / / / / / / ) ( ( ~ %.N 3 # rXrXrXrXrXrXrXrXrXrXrXrXrXrX",
"rXrXrXrXrXrXrXrXrXrXrXrXrX% 2 R ^ ` ` ` ` 2.2.` ( _ +.+.3 2 @ rXrXrXrXrXrXrXrXrXrXrXrXrXrX",
"rXrXrXrXrXrXrXrXrXrXrXrXrXrX  2 y ` ` ` ` 2.2.2.2._ ^ b O rXrXrXrXrXrXrXrXrXrXrXrXrXrXrXrX",
"rXrXrXrXrXrXrXrXrXrXrX%. .7 8 = O ; w p 2.4.4.4.i : @ o rXrXrXrXrXrXrXrXrXrXrXrXrXrXrXrXrX",
"rXrXrXrXrXrXrXrXrXrXrXZ.=.A 8 6 2 Q p a ' g g g i E E 2 rXrXrXrXrXrXrXrXrXrXrXrXrXrXrXrXrX",
"rXrXrXrXrXrXrXrXrXrX| 6X:XS A S m =XT q d d d i w m.*X7 o - rXrXrXrXrXrXrXrXrXrXrXrXrXrXrX",
"rXrXrXrXrXrXrXrXrXrX} 3X8X8Xj N ' a  X}.@XXX' ; >X^ R R W 8 rXrXrXrXrXrXrXrXrXrXrXrXrXrXrX",
"rXrXrXrXrXrXrXrXrXrXrX=.$.D , M 1.q.}.oX[.|. Xm.k N E n *X$.= rXrXrXrXrXrXrXrXrXrXrXrXrXrX",
"rXrXrXrXrXrXrXrXrXrXrXrX6 , + v 1..XOX{.[.|. X%X: M B h 9XC.< rXrXrXrXrXrXrXrXrXrXrXrXrXrX",
"rXrXrXrXrXrXrXrXrXrXrXrXrXrX# e T ,.|.[.OX@X7.,.q ~ ~ ; qXeX0X%.rXrXrXrXrXrXrXrXrXrXrXrXrX",
"rXrXrXrXrXrXrXrXrXrXrXrXrXrX{ Z p %XT T T <. X&Xi m B ; eXeXwX| rXrXrXrXrXrXrXrXrXrXrXrXrX",
"rXrXrXrXrXrXrXrXrXrXrXrXrXrX0 9 ! O.]  X6.6.] &.b ! G + 5X5X7XrXrXrXrXrXrXrXrXrXrXrXrXrXrX",
"rXrXrXrXrXrXrXrXrXrXrXrXrXrX& [ ..o *X-X$X&X^ O S @.#.$ #.} rXrXrXrXrXrXrXrXrXrXrXrXrXrXrX",
"rXrXrXrXrXrXrXrXrXrXrXrXrXrXX 5 [ *.W R u u n A . X X rXrXrXrXrXrXrXrXrXrXrXrXrXrXrXrXrXrX",
"rXrXrXrXrXrXrXrXrXrXrXrXrXrXrX4 = *.} W > rXrXrXrXrXrXrXrXrXrXrXrXrXrXrXrXrXrXrXrXrXrXrXrX",
"rXrXrXrXrXrXrXrXrXrXrXrXrXrXrXX & -.-. .. rXrXrXrXrXrXrXrXrXrXrXrXrXrXrXrXrXrXrXrXrXrXrXrX",
"rXrXrXrXrXrXrXrXrXrXrXrXrXrXrX* * -.#.} $ rXrXrXrXrXrXrXrXrXrXrXrXrXrXrXrXrXrXrXrXrXrXrXrX",
"rXrXrXrXrXrXrXrXrXrXrXrXrXrXrXrXrX= * $ rXrXrXrXrXrXrXrXrXrXrXrXrXrXrXrXrXrXrXrXrXrXrXrXrX",
"rXrXrXrXrXrXrXrXrXrXrXrXrXrXrXrXrXO $ rXrXrXrXrXrXrXrXrXrXrXrXrXrXrXrXrXrXrXrXrXrXrXrXrXrX",
"rXrXrXrXrXrXrXrXrXrXrXrXrXrXrXrXrXrXrXrXrXrXrXrXrXrXrXrXrXrXrXrXrXrXrXrXrXrXrXrXrXrXrXrXrX"
};
