/* XPM */
static char *result[] = {
/* columns rows colors chars-per-pixel */
"45 45 215 2 ",
"   c #050302",
".  c #0D0404",
"X  c #0D0807",
"o  c #120504",
"O  c #190301",
"+  c #130905",
"@  c #14060C",
"#  c #110E0B",
"$  c #190A0F",
"%  c #1B1812",
"&  c #210400",
"*  c #290906",
"=  c #310A03",
"-  c #2C120D",
";  c #39130A",
":  c #261510",
">  c #271D14",
",  c #291A18",
"<  c #29201B",
"1  c #36261D",
"2  c #2A1F21",
"3  c #2E2524",
"4  c #3C2B25",
"5  c #372D2C",
"6  c #332827",
"7  c #3E352B",
"8  c #3F3527",
"9  c #3B3035",
"0  c #4A2308",
"q  c #5B3404",
"w  c #58320A",
"e  c #4C2917",
"r  c #562D1A",
"t  c #45331F",
"y  c #593215",
"u  c #5D3B1A",
"i  c #61281F",
"p  c #62371B",
"a  c #472B2A",
"s  c #4D2C2D",
"d  c #432825",
"f  c #5A2A24",
"g  c #562B2A",
"h  c #5B2B2B",
"j  c #542A28",
"k  c #4B342B",
"l  c #433A2A",
"z  c #473628",
"x  c #5C3526",
"c  c #54352C",
"v  c #5E352E",
"b  c #523B2C",
"n  c #593625",
"m  c #492D31",
"M  c #532D32",
"N  c #443431",
"B  c #4C3437",
"V  c #4F3C33",
"C  c #453C3A",
"Z  c #4A393B",
"A  c #533433",
"S  c #533B33",
"D  c #5D3C34",
"F  c #583433",
"G  c #652B26",
"H  c #623323",
"J  c #63352B",
"K  c #69352B",
"L  c #623A2C",
"P  c #683B2C",
"I  c #6D3524",
"U  c #673736",
"Y  c #7C3A3B",
"T  c #773A38",
"R  c #784F1C",
"E  c #744B13",
"W  c #4F4339",
"Q  c #58463A",
"!  c #46402A",
"~  c #664228",
"^  c #794D2B",
"/  c #63453A",
"(  c #6C403C",
")  c #684A37",
"_  c #714434",
"`  c #7A4A38",
"'  c #6C5635",
"]  c #78553B",
"[  c #7E3F44",
"{  c #544944",
"}  c #5C4D4E",
"|  c #5A4A48",
" . c #5F4D50",
".. c #5E5348",
"X. c #624B45",
"o. c #664945",
"O. c #794744",
"+. c #6E5543",
"@. c #6F5648",
"#. c #755542",
"$. c #624E57",
"%. c #635354",
"&. c #6C5C5C",
"*. c #6C5856",
"=. c #795457",
"-. c #7B6057",
";. c #786165",
":. c #845A0D",
">. c #885904",
",. c #885F17",
"<. c #9E751D",
"1. c #A77916",
"2. c #815127",
"3. c #854F34",
"4. c #80463F",
"5. c #855234",
"6. c #84553B",
"7. c #875B37",
"8. c #824C2A",
"9. c #936C2F",
"0. c #997436",
"q. c #894A46",
"w. c #9A4A4A",
"e. c #83534F",
"r. c #9C544D",
"t. c #97514F",
"y. c #895B56",
"u. c #965453",
"i. c #9C5653",
"p. c #9B5955",
"a. c #9D5759",
"s. c #965C57",
"d. c #AC4D49",
"f. c #B74C4A",
"g. c #A6524B",
"h. c #AC514B",
"j. c #B3514A",
"k. c #B55245",
"l. c #A65451",
"z. c #A75856",
"x. c #B75955",
"c. c #8E6B4C",
"v. c #87635A",
"b. c #8C625C",
"n. c #93685A",
"m. c #96755B",
"M. c #A37A49",
"N. c #B56159",
"B. c #8D6D67",
"V. c #8F706B",
"C. c #94746D",
"Z. c #B76E6A",
"A. c #BE6B67",
"S. c #B9706E",
"D. c #A67B79",
"F. c #B27371",
"G. c #AA6C6D",
"H. c #CE685C",
"J. c #D36A5E",
"K. c #D4645C",
"L. c #DC735E",
"P. c #EB6E5E",
"I. c #EA6A5C",
"U. c #E5725E",
"Y. c #C66A65",
"T. c #D96E64",
"R. c #CA736D",
"E. c #C4756B",
"W. c #DD7464",
"Q. c #D4726C",
"!. c #DB736C",
"~. c #D3786F",
"^. c #C97975",
"/. c #DA7571",
"(. c #D47875",
"). c #E66D63",
"_. c #EC6E64",
"`. c #EB6E6B",
"'. c #F26D68",
"]. c #E37263",
"[. c #EA7162",
"{. c #E3726B",
"}. c #E47769",
"|. c #E27774",
" X c #BA9719",
".X c #BE992C",
"XX c #A2813D",
"oX c #B49437",
"OX c #C0971E",
"+X c #C39A27",
"@X c #CBA43C",
"#X c #9D805E",
"$X c #B89342",
"%X c #AB8650",
"&X c #B38D51",
"*X c #B59158",
"=X c #9E817D",
"-X c #B79465",
";X c #A78A78",
":X c #B39278",
">X c #C7A257",
",X c #CA8079",
"<X c #A59392",
"1X c #B59F94",
"2X c #B39C9A",
"3X c #BE9F98",
"4X c #B9A196",
"5X c #BEA8A5",
"6X c #CBACA0",
"7X c #D9C1B9",
"8X c #E5C8BC",
"9X c #EFCFC4",
"0X c #EED1C9",
"qX c #F6D9D2",
"wX c None",
/* pixels */
"wXwXwXwXwXwXwXwXwXwXwXwXwXwXwXwXwXwXwXwXwXwXwXwXwXwXwXwXwXwXwXwXwXwXwXwXwXwXwXwXwXwXwXwXwX",
"wXwXwXwXwXwXwXwXwXwXwXwXwXwXwXwXwXwXwXwXwXwXwXwXwXwXwXwXwXwXwXwXwXwXwXwXwXwXwXwXwXwXwXwXwX",
"wXwXwXwXwXwXwXwXwXwXwXwXwXwXwXwXwXwXwXwXwXwXwXwXwXwXwXwXwXwXwXwXwXwXwXwXwXwXwXwXwXwXwXwXwX",
"wXwXwXwXwXwXwXwXwXwXwXwXwXwXwXwXwXwXwXwXwXwXwXwXwXwXwXwXwXwXwXwXwXwXwXwXwXwXwXwXwXwXwXwXwX",
"wXwXwXwXwXwXwXwXwXwXwXwXwXwXwXwXwXwXwXwXwXwXwXwXwXwXwXwXwXwXwXwXwXwXwXwXwXwXwXwXwXwXwXwXwX",
"wXwXwXwXwXwXwXwXwXwXwXwXwXwXwXwXwXwXwXwXwXwXwXwXwXwXwXwXwXwXwXwXwXwXwXwXwXwXwXwXwXwXwXwXwX",
"wXwXwXwXwXwXwXwXwXwXwXwXwXwXwXwXwXwXwXwXwXwXwXwXwXwXwXwXwXwXwXwXwXwXwXwXwXwXwXwXwXwXwXwXwX",
"wXwXwXwXwXwXwXwXwXwXwXwXwXwXwXwXwXwXwXwXwXwXwXwXwXwXwXwXwXwXwXwXwXwXwXwXwXwXwXwXwXwXwXwXwX",
"wXwXwXwXwXwXwXwXwXwXwXwXwXwXwXwXwXwXwXwXwXwXwXwXwXwXwXwXwXwXwXwXwXwXwXwXwXwXwXwXwXwXwXwXwX",
"wXwXwXwXwXwXwXwXwXwXwXwXwXwXwXwXwXwXwXwXwXwXwXwXwXwXwXwXwXwXwXwXwXwXwXwXwXwXwXwXwXwXwXwXwX",
"wXwXwXwXwXwXwXwXwXwXwXwXwXwXwXwXwXN N m s g a k a m wXwXwXwXwXwXwXwXwXwXwXwXwXwXwXwXwXwXwX",
"wXwXwXwXwXwXwXwXwXwXwXwXwXwX4 k J D.F.S.Z.Y.E.E.A.Z.G.g A wXwXwXwXwXwXwXwXwXwXwXwXwXwXwXwX",
"wXwXwXwXwXwXwXwXwXwXwXwXwXwXU ( Y ^././.!.}.L.U.}./.A.Y U | wXwXwXwXwXwXwXwXwXwXwXwXwXwXwX",
"wXwXwXwXwXwXwXwXwXwXwXwXwXM b.Z.R./.!.!.W.L.L.W.!.!.Q.^.s.O.d wXwXwXwXwXwXwXwXwXwXwXwXwXwX",
"wXwXwXwXwXwXwXwXwXwXwXwXwXj ^./.|.`.{.).W.L.L.L.W.}.T.Q.R.a.M wXwXwXwXwXwXwXwXwXwXwXwXwXwX",
"wXwXwXwXwXwXwXwXwXwXwXwXU O.(.{.`._._.].U.U.U.L.].}.).`./.x.[ wXwXwXwXwXwXwXwXwXwXwXwXwXwX",
"wXwXwXwXwXwXwXwXwXwXwXZ ( u.|.)._._.].).P.P.P.I.[.[.[.[.].Y.a.M wXwXwXwXwXwXwXwXwXwXwXwXwX",
"wXwXwXwXwXwXwXwXwXwXwXM U z.~.}.).).].[.'.I.'.'._._.I.[.!.N.i.M wXwXwXwXwXwXwXwXwXwXwXwXwX",
"wXwXwXwXwXwXwXwXwXwXwXM U i.x.J.W.W.!.W.{.'.'.'.).).].L.k.N.s.A wXwXwXwXwXwXwXwXwXwXwXwXwX",
"wXwXwXwXwXwXwXwXwXwXwXM U z.l.x.Y.T.!.Q.!.|.!.|.).K.K.H.g.l.e.A wXwXwXwXwXwXwXwXwXwXwXwXwX",
"wXwXwXwXwXwXwXwXwXwXwXM [ e.z.h.k.f.Q.(.^.^.E.R.(.x.f.f.g.a.e.A wXwXwXwXwXwXwXwXwXwXwXwXwX",
"wXwXwXwXwXwXwXwXwXwX9 B M G w.d.f.f.f.w.K J J I r.g.h.z.l.` U g S wXwXwXwXwXwXwXwXwXwXwXwX",
"wXwXwXwXwXwXwXwXwXwX2 ;.=.h i.l.f.h.w.[ h F b J 4.r.g.l.r.O.j B.z % wXwXwXwXwXwXwXwXwXwXwX",
"wXwXwXwXwXwXwXwXwXwX  <X;Xf s.p.i.u.Y h F F c v J q.p.r.w.` v 1XN # wXwXwXwXwXwXwXwXwXwXwX",
"wXwXwXwXwXwXwXwXwXwXX <X=Xj f G G s.p.y.v.v.v.b.s.b.q.G G j s 5X5   wXwXwXwXwXwXwXwXwXwXwX",
"wXwXwXwXwXwXwXwXwXwXwX5 d k ) P i I K K K J J P K K P f T D a 6 wXwXwXwXwXwXwXwXwXwXwXwXwX",
"wXwXwXwXwXwXwXwXwXwXwX+ : 4 / D n x H H u p G G J f x x +.S 1 o wXwXwXwXwXwXwXwXwXwXwXwXwX",
"wXwXwXwXwXwXwXwXwXwXwXwXwX+ l Q @.#.#.6.4.3.3.^ 6.] ] +.t > + wXwXwXwXwXwXwXwXwXwXwXwXwXwX",
"wXwXwXwXwXwXwXwXwXwXwXwXwXwX  > S +.) ` 3.3.5.7.^ ' ) t o . wXwXwXwXwXwXwXwXwXwXwXwXwXwXwX",
"wXwXwXwXwXwXwXwXwXwXwXwXwXwX< , : c ~ ` 5.8.5.5.~ n b > > wXwXwXwXwXwXwXwXwXwXwXwXwXwXwXwX",
"wXwXwXwXwXwXwXwXwXwXwXwXwXwXC 1 O O r x ^ 2.2.5.y = O O C wXwXwXwXwXwXwXwXwXwXwXwXwXwXwXwX",
"wXwXwXwXwXwXwXwXwXwXwXwXwXX 7 l b :X~ w q q q 0 y m.;Xk Z 3 @ wXwXwXwXwXwXwXwXwXwXwXwXwXwX",
"wXwXwXwXwXwXwXwXwXwXwX  % 5 8 W ) :Xe w 9.XX0.M.; m.m.V V 4 5 o wXwXwXwXwXwXwXwXwXwXwXwXwX",
"wXwXwXwXwXwXwXwXwXwXwX5 7 W z b P m.r ~ $XoXoX>X0 c.c./ t Q S 4 wXwXwXwXwXwXwXwXwXwXwXwXwX",
"wXwXwXwXwXwXwXwXwXwX .8X9X3X= c O.= M.oX.X X X.XoXe ; -.& o.6X9XC.wXwXwXwXwXwXwXwXwXwXwXwX",
"wXwXwXwXwXwXwXwXwXwX} 6X0XqXo e v r ,.,..X X+X@X:.~ c D * -.8X0XB.X.wXwXwXwXwXwXwXwXwXwXwX",
"wXwXwXwXwXwXwXwXwXwXwX2X<X2X, B ) e 7.0.1.1.1.<.9.p c | , %.1X1XV.wXwXwXwXwXwXwXwXwXwXwXwX",
"wXwXwXwXwXwXwXwXwXwXwXwX .$.Z | *.z #X%XE >.:.,.-X) V &.C Q %.| wXwXwXwXwXwXwXwXwXwXwXwXwX",
"wXwXwXwXwXwXwXwXwXwXwXwXwXwX. 2 Z *.: e >X&X*X-X& Q %.C . X wXwXwXwXwXwXwXwXwXwXwXwXwXwXwX",
"wXwXwXwXwXwXwXwXwXwXwXwXwXwX@ 9 $.&.V ! ' ] ' #.t X.*.$.X # wXwXwXwXwXwXwXwXwXwXwXwXwXwXwX",
"wXwXwXwXwXwXwXwXwXwXwXwXwXwX@ 6 $.*.Z 4 l l ! l W |  .$.@ wXwXwXwXwXwXwXwXwXwXwXwXwXwXwXwX",
"wXwXwXwXwXwXwXwXwXwXwXwXwXwXwX$ @ @ wXwXwXwXwXwXwXX X . wXwXwXwXwXwXwXwXwXwXwXwXwXwXwXwXwX",
"wXwXwXwXwXwXwXwXwXwXwXwXwXwXwXwXwXwXwXwXwXwXwXwXwXwXwXwXwXwXwXwXwXwXwXwXwXwXwXwXwXwXwXwXwX",
"wXwXwXwXwXwXwXwXwXwXwXwXwXwXwXwXwXwXwXwXwXwXwXwXwXwXwXwXwXwXwXwXwXwXwXwXwXwXwXwXwXwXwXwXwX",
"wXwXwXwXwXwXwXwXwXwXwXwXwXwXwXwXwXwXwXwXwXwXwXwXwXwXwXwXwXwXwXwXwXwXwXwXwXwXwXwXwXwXwXwXwX"
};
