/* XPM */
static char *result[] = {
/* columns rows colors chars-per-pixel */
"45 45 216 2 ",
"   c #040203",
".  c #0A0405",
"X  c #08080B",
"o  c #120402",
"O  c #1B0301",
"+  c #160A08",
"@  c #1C140E",
"#  c #17140B",
"$  c #0A1515",
"%  c #1A1714",
"&  c #180D13",
"*  c #230400",
"=  c #2A0202",
"-  c #2A0A01",
";  c #21110A",
":  c #39100D",
">  c #2B1B12",
",  c #361E15",
"<  c #292216",
"1  c #31211B",
"2  c #3C241C",
"3  c #363017",
"4  c #282522",
"5  c #3A2826",
"6  c #3F3129",
"7  c #3F3A35",
"8  c #45180D",
"9  c #542C0E",
"0  c #5E2D0A",
"q  c #5D3301",
"w  c #5B330F",
"e  c #4C291B",
"r  c #532C1A",
"t  c #5D291E",
"y  c #582A13",
"u  c #44341E",
"i  c #653409",
"p  c #60271C",
"a  c #61291B",
"s  c #61341D",
"d  c #432D2D",
"f  c #492D2B",
"g  c #4A2B24",
"h  c #5B2522",
"j  c #542C26",
"k  c #5B2B24",
"l  c #542C2B",
"z  c #5A2B28",
"x  c #4D362E",
"c  c #483627",
"v  c #543124",
"b  c #5E302B",
"n  c #593927",
"m  c #5D2E32",
"M  c #532D36",
"N  c #413D34",
"B  c #483736",
"V  c #523933",
"C  c #5B3C33",
"Z  c #54343A",
"A  c #553333",
"S  c #642623",
"D  c #612A23",
"F  c #642F2E",
"G  c #653B25",
"H  c #642F3A",
"J  c #653B32",
"K  c #673638",
"L  c #7A3939",
"P  c #38423C",
"I  c #6B401B",
"U  c #774517",
"Y  c #4B4225",
"T  c #45413A",
"R  c #4B4136",
"E  c #5C4338",
"W  c #51503D",
"Q  c #674328",
"!  c #754A2E",
"~  c #7C4827",
"^  c #7C532B",
"/  c #6B4537",
"(  c #7D4631",
")  c #774833",
"_  c #7C423C",
"`  c #784835",
"'  c #7F5235",
"]  c #7D523B",
"[  c #735B37",
"{  c #563642",
"}  c #673544",
"|  c #464440",
" . c #544D4E",
".. c #584947",
"X. c #58574A",
"o. c #594D55",
"O. c #5E5A56",
"+. c #674746",
"@. c #774648",
"#. c #695545",
"$. c #785047",
"%. c #774553",
"&. c #65575B",
"*. c #705F59",
"=. c #5D6759",
"-. c #76695E",
";. c #675D62",
":. c #803D3A",
">. c #825402",
",. c #865707",
"<. c #95621F",
"1. c #81532D",
"2. c #814B35",
"3. c #86483C",
"4. c #825234",
"5. c #81523A",
"6. c #98752A",
"7. c #927536",
"8. c #AF7134",
"9. c #844748",
"0. c #974C4A",
"q. c #87524B",
"w. c #97524B",
"e. c #885352",
"r. c #925450",
"t. c #9C5552",
"y. c #9C5B55",
"u. c #955B5A",
"i. c #985859",
"p. c #A34E4B",
"a. c #AC4F49",
"s. c #A04F44",
"d. c #AD524B",
"f. c #A5514A",
"g. c #B5524A",
"h. c #BC524B",
"j. c #BA5549",
"k. c #A35653",
"l. c #AA5552",
"z. c #A65A55",
"x. c #B25751",
"c. c #B44D45",
"v. c #84625F",
"b. c #977351",
"n. c #A7615E",
"m. c #AF695C",
"M. c #B3675C",
"N. c #BC705F",
"B. c #AF7B4E",
"V. c #985762",
"C. c #995A62",
"Z. c #866765",
"A. c #86716D",
"S. c #97786D",
"D. c #A77968",
"F. c #BC7F7B",
"G. c #C15349",
"H. c #C75B50",
"J. c #CB665D",
"K. c #C0645B",
"L. c #DF6C5B",
"P. c #D46B5D",
"I. c #DF765A",
"U. c #E36F5F",
"Y. c #E2735D",
"T. c #E8705E",
"R. c #C76D65",
"E. c #DA6D63",
"W. c #CC736A",
"Q. c #CA7668",
"!. c #DD7464",
"~. c #D77A63",
"^. c #D87963",
"/. c #DB746B",
"(. c #DB7968",
"). c #CB7975",
"_. c #D47672",
"`. c #E96F63",
"'. c #E46E64",
"]. c #E47164",
"[. c #E97162",
"{. c #E47069",
"}. c #EA746B",
"|. c #AF823C",
" X c #B68E38",
".X c #BA922A",
"XX c #C29518",
"oX c #C18C22",
"OX c #CD9429",
"+X c #C39622",
"@X c #C48A34",
"#X c #C49537",
"$X c #BA9042",
"%X c #A1885F",
"&X c #AA864A",
"*X c #9E9062",
"=X c #AA9766",
"-X c #A78577",
";X c #C39441",
":X c #C2985B",
">X c #CC837B",
",X c #D18079",
"<X c #E68077",
"1X c #9C9083",
"2X c #988B88",
"3X c #A28D82",
"4X c #A3908B",
"5X c #B39F98",
"6X c #B9A399",
"7X c #B6A5A0",
"8X c #C3AAA4",
"9X c #C8AEAB",
"0X c #F2CEC6",
"qX c #EFD0CB",
"wX c #EFCEC8",
"eX c None",
/* pixels */
"eXeXeXeXeXeXeXeXeXeXeXeXeXeXeXeXeXeXeXeXeXeXeXeXeXeXeXeXeXeXeXeXeXeXeXeXeXeXeXeXeXeXeXeXeX",
"eXeXeXeXeXeXeXeXeXeXeXeXeXeXeXeXeXeXeXeXeXeXeXeXeXeXeXeXeXeXeXeXeXeXeXeXeXeXeXeXeXeXeXeXeX",
"eXeXeXeXeXeXeXeXeXeXeXeXeXeXeXeXeXeXeXeXeXeXeXeXeXeXeXeXeXeXeXeXeXeXeXeXeXeXeXeXeXeXeXeXeX",
"eXeXeXeXeXeXeXeXeXeXeXeXeXeXeXeXeXeXeXeXeXeXeXeXeXeXeXeXeXeXeXeXeXeXeXeXeXeXeXeXeXeXeXeXeX",
"eXeXeXeXeXeXeXeXeXeXeXeXeXeXeXeXeXeXeXeXeXeXeXeXeXeXeXeXeXeXeXeXeXeXeXeXeXeXeXeXeXeXeXeXeX",
"eXeXeXeXeXeXeXeXeXeXeXeXeXeXeXeXeXeXeXeXeXeXeXeXeXeXeXeXeXeXeXeXeXeXeXeXeXeXeXeXeXeXeXeXeX",
"eXeXeXeXeXeXeXeXeXeXeXeXeXeXeXeXeXeXeXeXeXeXeXeXeXeXeXeXeXeXeXeXeXeXeXeXeXeXeXeXeXeXeXeXeX",
"eXeXeXeXeXeXeXeXeXeXeXeXeXeXeXeXeXeXeXeXeXeXeXeXeXeXeXeXeXeXeXeXeXeXeXeXeXeXeXeXeXeXeXeXeX",
"eXeXeXeXeXeXeXeXeXeXeXeXeXeXeXeXeXeXeXeXeXeXeXeXeXeXeXeXeXeXeXeXeXeXeXeXeXeXeXeXeXeXeXeXeX",
"eXeXeXeXeXeXeXeXeXeXeXeXeXeXeXeXeXl l l D S S S h h l eXeXeXeXeXeXeXeXeXeXeXeXeXeXeXeXeXeX",
"eXeXeXeXeXeXeXeXeXeXeXeXeXeXd j k F.).)._._._.).).>XD.j x eXeXeXeXeXeXeXeXeXeXeXeXeXeXeXeX",
"eXeXeXeXeXeXeXeXeXeXeXeXeXV e.n.W._././././.(.^.^.^.~.N.q.@.eXeXeXeXeXeXeXeXeXeXeXeXeXeXeX",
"eXeXeXeXeXeXeXeXeXeXeXeXeXm n.R.E.{.{.{.!.!.!.!.Y.I.I.^.M.e.M eXeXeXeXeXeXeXeXeXeXeXeXeXeX",
"eXeXeXeXeXeXeXeXeXeXeXeXeXk >X/.{.{.{.{.{.{.{.].Y.Y.Y.(.R.k.F eXeXeXeXeXeXeXeXeXeXeXeXeXeX",
"eXeXeXeXeXeXeXeXeXeXeXd K r._.!.'.`.`.}.'.{.[.].].Y.].^.}.M.i.g eXeXeXeXeXeXeXeXeXeXeXeXeX",
"eXeXeXeXeXeXeXeXeXeXeXM K y.Q.!.`.`.`.`.'.[.[.`.[.].{.}.{.M.t.h eXeXeXeXeXeXeXeXeXeXeXeXeX",
"eXeXeXeXeXeXeXeXeXeXeXM K z.R.].U.T.T.T.Y.Y.T.T.[.[.].{.E.J.k.b eXeXeXeXeXeXeXeXeXeXeXeXeX",
"eXeXeXeXeXeXeXeXeXeXeX{ H t.f.J.'.U.`.L.].Y.Y.].{.'.}.{.G.a.k.l eXeXeXeXeXeXeXeXeXeXeXeXeX",
"eXeXeXeXeXeXeXeXeXeXeX{ } C.z.g.j.G.P.E.(.~.(.(.!.H.G.G.g.l.r.A eXeXeXeXeXeXeXeXeXeXeXeXeX",
"eXeXeXeXeXeXeXeXeXeXeXB } 9.k.d.g.d.R.R.m.N.m.M.R.x.c.h.d.0.e.M eXeXeXeXeXeXeXeXeXeXeXeXeX",
"eXeXeXeXeXeXeXeXeXeX7 d l D k.g.x.l.k.9.H F b K w.l.d.d.p.:.m f d eXeXeXeXeXeXeXeXeXeXeXeX",
"eXeXeXeXeXeXeXeXeXeXX 4X-XD w.s.p.w.L K M { B Z F 0.f.l.t.@.M 8Xx o eXeXeXeXeXeXeXeXeXeXeX",
"eXeXeXeXeXeXeXeXeXeX. 3X-Xr _ L :.y.9.%.%.%.%.%._ r.w.L L K g 8Xc o eXeXeXeXeXeXeXeXeXeXeX",
"eXeXeXeXeXeXeXeXeXeX& 6X-Xe k m h u.i.V.V.V.V.e.u.u.9.h J l e 5Xd @ eXeXeXeXeXeXeXeXeXeXeX",
"eXeXeXeXeXeXeXeXeXeXeX+ @ c #.J k t t t t k k D s a t k $.E 2 + eXeXeXeXeXeXeXeXeXeXeXeXeX",
"eXeXeXeXeXeXeXeXeXeXeXeXeX+ c / / ) ( ! ! ! ! ( ( ~ ) ` m 2 + eXeXeXeXeXeXeXeXeXeXeXeXeXeX",
"eXeXeXeXeXeXeXeXeXeXeXeXeX@ 1 C / ] ' ' ^ ^ ' 4.4.' ] $.2 > # eXeXeXeXeXeXeXeXeXeXeXeXeXeX",
"eXeXeXeXeXeXeXeXeXeXeXeXeXeXo , e ] ] ' 4.1.' ' 4.] / c o > eXeXeXeXeXeXeXeXeXeXeXeXeXeXeX",
"eXeXeXeXeXeXeXeXeXeXeXeXeXeXeX> O - v s 4.4.4.q.9 - - o T T N ..eXeXeXeXeXeXeXeXeXeXeXeXeX",
"eXeXeXeXeXeXeXeXeXeXeXeXeXeXeX< < E v n s ~ U I w Q E 1 N N W A.Z.eXeXeXeXeXeXeXeXeXeXeXeX",
"eXeXeXeXeXeXeXeXeXeXeXeXeXeX  % 7 2XY r w i i i q b.D.c B N V 6Xv.+.eXeXeXeXeXeXeXeXeXeXeX",
"eXeXeXeXeXeXeXeXeXeXeXeXeX| T 7 R c %XS.- :X X X#XU 0 J V A.7X8XZ.eXeXeXeXeXeXeXeXeXeXeXeX",
"eXeXeXeXeXeXeXeXeXeXeXeXeX& 2X*.V E v n b. X.XXXoX8.8.3.: 5 5 -.eXeXeXeXeXeXeXeXeXeXeXeXeX",
"eXeXeXeXeXeXeXeXeXeXeXeXeX5 9XZ.l K 8 y |.#XXXXXOX@XB.5.* O + ..eXeXeXeXeXeXeXeXeXeXeXeXeX",
"eXeXeXeXeXeXeXeXeXeXeX+.S.0X0Xv.= q.s i ,.#XOXOX@X<.1.G O @ eXeXeXeXeXeXeXeXeXeXeXeXeXeXeX",
"eXeXeXeXeXeXeXeXeXeXeX&.Z.wXqXv.* +.n Q :X,.,.>.,.&X%Xu R eXeXeXeXeXeXeXeXeXeXeXeXeXeXeXeX",
"eXeXeXeXeXeXeXeXeXeXeXeXA.5X7X..+ +.V n [ 7.6.6.7.[ X.W 4 eXeXeXeXeXeXeXeXeXeXeXeXeXeXeXeX",
"eXeXeXeXeXeXeXeXeXeXeXeXeX..o.4 . ;...5 o =X=X=X*X3 % =.$ $ eXeXeXeXeXeXeXeXeXeXeXeXeXeXeX",
"eXeXeXeXeXeXeXeXeXeXeXeXeXeXeXeXeX    # N c Y Y Y X.X.P X $ eXeXeXeXeXeXeXeXeXeXeXeXeXeXeX",
"eXeXeXeXeXeXeXeXeXeXeXeXeXeXeXeXeXeXeXeXeXeX< ; ..O.X.% eXeXeXeXeXeXeXeXeXeXeXeXeXeXeXeXeX",
"eXeXeXeXeXeXeXeXeXeXeXeXeXeXeXeXeXeXeXeXeXeXeX  ;.o.o.X eXeXeXeXeXeXeXeXeXeXeXeXeXeXeXeXeX",
"eXeXeXeXeXeXeXeXeXeXeXeXeXeXeXeXeXeXeXeXeXeXeX. ;.;.o.+ eXeXeXeXeXeXeXeXeXeXeXeXeXeXeXeXeX",
"eXeXeXeXeXeXeXeXeXeXeXeXeXeXeXeXeXeXeXeXeXeXeXeX& & + eXeXeXeXeXeXeXeXeXeXeXeXeXeXeXeXeXeX",
"eXeXeXeXeXeXeXeXeXeXeXeXeXeXeXeXeXeXeXeXeXeXeXeX.   eXeXeXeXeXeXeXeXeXeXeXeXeXeXeXeXeXeXeX",
"eXeXeXeXeXeXeXeXeXeXeXeXeXeXeXeXeXeXeXeXeXeXeXeXeXeXeXeXeXeXeXeXeXeXeXeXeXeXeXeXeXeXeXeXeX"
};
