/* XPM */
static char *_04083d3c8624beea6a913efa3923555PkBi6GpknrY8K8a4[] = {
/* columns rows colors chars-per-pixel */
"25 25 15 1 ",
"  c None",
". c black",
"X c #7B6B03",
"o c #807111",
"O c #807740",
"+ c #EDCD00",
"@ c #F5D505",
"# c #F7D708",
"$ c #FADA0A",
"% c #F6D711",
"& c #FADB13",
"* c #FFE121",
"= c #F6DD40",
"- c #FFE750",
"; c #FFEE7F",
/* pixels */
"                         ",
"                         ",
"          ......         ",
"         .*;;;;;..       ",
"       ..**+++++;O.      ",
"       ..**+++++;O.      ",
"      .o**+*****+=;.     ",
"      .o**+*-;;*+=;.     ",
"     .@&*+*@#$$;*%+;.    ",
"     .@&*+*@#$$;*%+;.    ",
"     .@&*+*@#$$;*%+;.    ",
"     .@&*+*@#$$;*%+;.    ",
"     .@&*+*@#$$;*%+;.    ",
"     .@&*+*@#$$;*%+;.    ",
"     .@&*+*@#$$;*%+;.    ",
"     .@&*+*@#$$;*%+;.    ",
"     .@&*+*@#$$;*%+;.    ",
"      .X@*+*&@@*+%*.     ",
"      .X@*+*****+%*.     ",
"       ..@*+++++*o.      ",
"       ..@*+++++*o.      ",
"         .@@@@@*..       ",
"          ......         ",
"                         ",
"                         "
};
