/* XPM */
static char *ea44d462e5e44d5ee57ab04f025f2e75bN05tUn9yowdUiLy[] = {
/* columns rows colors chars-per-pixel */
"25 25 18 1 ",
"  c None",
". c black",
"X c #7E6D00",
"o c #807111",
"O c #807740",
"+ c #EDCD00",
"@ c #F5D400",
"# c #F5D505",
"$ c #FCDA00",
"% c #FADA0A",
"& c #F6D711",
"* c #FCDE1F",
"= c #FFE121",
"- c #FDE231",
"; c #FCE341",
": c #FFE750",
"> c #FDE860",
", c #FFEE7F",
/* pixels */
"                         ",
"                         ",
"          ......         ",
"       ...,,,,,,...      ",
"      .O,,;========.     ",
"      .O,,;========.     ",
"     .,>;=++++++====.    ",
"    .,;-=+======+&===..  ",
"    .,=&+==,,,,==&+==..  ",
"  ..,;+&==,%%%%#===,==o. ",
"  ..,;+&==,%%%%#===,==o. ",
"  ..,=+&==,%%%%#===,=$X. ",
"  ..,=+&==,%%%%#===,=$X. ",
"  ..,=+&==,%%%%#===,=$X. ",
"  ..,=+&==,%%%%#===,=$X. ",
"  ..,=+&==,%%%%#===,=$X. ",
"    .*=&+==####==:,=$..  ",
"    .====+======,:==$..  ",
"     .====,,,,,,===$.    ",
"      .o========$$$.     ",
"      .o========$$$.     ",
"       ...$$$$$@...      ",
"          ......         ",
"                         ",
"                         "
};
