/* XPM */
static char *a32021adf6884b5ca8db80bdb7e17f61U0tMZlG1VDuxOxwY[] = {
/* columns rows colors chars-per-pixel */
"25 25 8 1 ",
"  c None",
". c black",
"X c #EDCD00",
"o c #F6D711",
"O c #FFE121",
"+ c #F6DF56",
"@ c #FFE966",
"# c #FFF1AB",
/* pixels */
"                         ",
"                         ",
"          .....          ",
"         .OOOOO.         ",
"         .OOoXO.         ",
"         .OOoXO.         ",
"       ..OO#@OXO..       ",
"       ..OO###XO..       ",
"       ..OO#@OXO..       ",
"       ..OO###XO..       ",
"       ..OO###XO..       ",
"       ..XX#@OXO..       ",
"       ..XX#@OXO..       ",
"       ..XX#@OXO..       ",
"       ..XX#@OXO..       ",
"       ..XX#@OXO..       ",
"       ..XX#+XXO..       ",
"       ..XX#+XXO..       ",
"       ..XX#+XXO..       ",
"         .XX+#O.         ",
"         .XX+#O.         ",
"         .XXoOO.         ",
"          .....          ",
"                         ",
"                         "
};
