/* XPM */
static char *_86156e4f6eb43a6c50190e530db29f3d63l14UIShzqWgib[] = {
/* columns rows colors chars-per-pixel */
"25 25 15 1 ",
"  c None",
". c black",
"X c #7B6B03",
"o c #807111",
"O c #807740",
"+ c #EDCD00",
"@ c #F5D505",
"# c #F7D708",
"$ c #FADA0A",
"% c #F6D711",
"& c #FADB13",
"* c #FFE121",
"= c #F6DD40",
"- c #FFE750",
"; c #FFEE7F",
/* pixels */
"                         ",
"                         ",
"         ......          ",
"       ..;;;;;*.         ",
"      .O;+++++**..       ",
"      .O;+++++**..       ",
"     .;=+*****+**o.      ",
"     .;=+*;;-*+**o.      ",
"    .;+%*;$$#@*+*&@.     ",
"    .;+%*;$$#@*+*&@.     ",
"    .;+%*;$$#@*+*&@.     ",
"    .;+%*;$$#@*+*&@.     ",
"    .;+%*;$$#@*+*&@.     ",
"    .;+%*;$$#@*+*&@.     ",
"    .;+%*;$$#@*+*&@.     ",
"    .;+%*;$$#@*+*&@.     ",
"    .;+%*;$$#@*+*&@.     ",
"     .*%+*@@&*+*@X.      ",
"     .*%+*****+*@X.      ",
"      .o*+++++*@..       ",
"      .o*+++++*@..       ",
"       ..*@@@@@.         ",
"         ......          ",
"                         ",
"                         "
};
