/* XPM */
static char *_546618693524cc795bc4c04066b63fbSLEZfmmwCEAHgEPu[] = {
/* columns rows colors chars-per-pixel */
"25 25 8 1 ",
"  c None",
". c black",
"X c #807111",
"o c #EDCD00",
"O c #FFE121",
"+ c #F6DF56",
"@ c #FFE966",
"# c #FFF1AB",
/* pixels */
"                         ",
"                         ",
"         .....           ",
"       ..OOOOO.          ",
"       ..OoOOO.          ",
"       ..OoOOO.          ",
"      .XOoO#@OO.         ",
"      .XOo##@OO.         ",
"      .XOoO#@OO.         ",
"      .XOo##@OO.         ",
"      .XOo##@OO.         ",
"      .XOoO#+oo.         ",
"      .XOoO#+oo.         ",
"      .XOoO#+oo.         ",
"      .XOoo#+oo.         ",
"      .XOoo#+oo.         ",
"      .XOoo#+oo.         ",
"      .XOoo#+oo.         ",
"      .XOoo#+oo.         ",
"       ..O#ooo.          ",
"       ..O#ooo.          ",
"       ..OOooo.          ",
"         .....           ",
"                         ",
"                         "
};
