/* XPM */
static char *eeaa9c106bad4d588d693cd79c2d8e68MPZWAESk75hlry54[] = {
/* columns rows colors chars-per-pixel */
"29 45 167 2 ",
"   c None",
".  c #010101",
"X  c #0C0200",
"o  c #03030C",
"O  c #0E0E0E",
"+  c #150200",
"@  c #1C0200",
"#  c #150C06",
"$  c #08061C",
"%  c #050414",
"&  c #111111",
"*  c #1F1A1A",
"=  c #240100",
"-  c #2B0100",
";  c #2F0800",
":  c #260D0D",
">  c #330000",
",  c #390000",
"<  c #300900",
"1  c #3E0C00",
"2  c #241200",
"3  c #2E1500",
"4  c #251414",
"5  c #2B1A1A",
"6  c #341C1C",
"7  c #332516",
"8  c #08092B",
"9  c #000D32",
"0  c #080832",
"q  c #070738",
"w  c #0B0B3C",
"e  c #00103F",
"r  c #470000",
"t  c #4B0000",
"y  c #4D0E00",
"u  c #430C00",
"i  c #411101",
"p  c #591100",
"a  c #5D1900",
"s  c #401717",
"d  c #640000",
"f  c #7B0000",
"g  c #651200",
"h  c #6C1300",
"j  c #6D1A08",
"k  c #751500",
"l  c #7B1500",
"z  c #592700",
"x  c #572700",
"c  c #6D3000",
"v  c #773500",
"b  c #4B2A2A",
"n  c #572F2F",
"m  c #57302F",
"M  c #673838",
"N  c #683A3A",
"B  c #713F3F",
"V  c #0A0A44",
"C  c #0B0B4A",
"Z  c #001346",
"A  c #0D0D50",
"S  c #0E0E59",
"D  c #001555",
"F  c #10105C",
"G  c #001964",
"H  c #111163",
"J  c #12126D",
"K  c #001F7A",
"L  c #001E74",
"P  c #141473",
"I  c #151578",
"U  c #322468",
"Y  c #564A4A",
"T  c #515151",
"R  c #784444",
"E  c #7E5D5D",
"W  c #7B6D5F",
"Q  c #6F6F6F",
"!  c #756262",
"~  c #830000",
"^  c #8E0000",
"/  c #811600",
"(  c #851800",
")  c #8D1900",
"_  c #941B00",
"`  c #9B1C00",
"'  c #A60000",
"]  c #A31D00",
"[  c #AB1F00",
"{  c #94250A",
"}  c #823A01",
"|  c #9C3100",
" . c #822813",
".. c #AC2100",
"X. c #A62409",
"o. c #B42100",
"O. c #BA2300",
"+. c #B32C00",
"@. c #C32400",
"#. c #CB2700",
"$. c #D12700",
"%. c #D42800",
"&. c #DC2B00",
"*. c #E42F00",
"=. c #E92F00",
"-. c #E73102",
";. c #EC3100",
":. c #F33400",
">. c #FD3A00",
",. c #F33D00",
"<. c #CC2E25",
"1. c #964400",
"2. c #9B4600",
"3. c #A84D00",
"4. c #AF5100",
"5. c #BC5800",
"6. c #D54809",
"7. c #CD6300",
"8. c #D86B00",
"9. c #E37300",
"0. c #E97700",
"q. c #EA7900",
"w. c #F07E00",
"e. c #D64121",
"r. c #E64D25",
"t. c #884B4B",
"y. c #8D5050",
"u. c #A24C45",
"i. c #A05C5C",
"p. c #907979",
"a. c #B76969",
"s. c #E27B5E",
"d. c #C36D6D",
"f. c #C67575",
"g. c #CD7575",
"h. c #D67B7B",
"j. c #F88600",
"k. c #F88800",
"l. c #F48300",
"z. c #FE9100",
"x. c #00248A",
"c. c #002694",
"v. c #00289A",
"b. c #00279A",
"n. c #002BA7",
"m. c #878282",
"M. c #978080",
"N. c #918887",
"B. c #979797",
"V. c #A18080",
"C. c #A78F8F",
"Z. c #B99897",
"A. c #B49A9A",
"S. c #AFAFAF",
"D. c #A7A2A1",
"F. c #B9B8B8",
"G. c #C2C2C2",
"H. c #C9C4C4",
"J. c gray80",
"K. c #D0C9C7",
"L. c #D1CCCB",
"P. c #DDD1CD",
"I. c #DDDCDC",
"U. c #D9D6D6",
"Y. c #E3E2E2",
"T. c #EEEDED",
"R. c #FEFDFD",
/* pixels */
"Q G.A.A.C.M.D.B.m.! T .   Y F.J.G.p.Y *                   ",
"= - > , > > > - - > = .   @ = > , - @ X                   ",
"  > , , > > > - > > =       - > , - @                     ",
"  - > > > > s b H., @         - > - +                     ",
"                : , @         - R.@                       ",
"                  > +           R.X                       ",
"                  E             Z.                        ",
"                  @.            #.                        ",
"                  h           + U Z                       ",
"              K c.K 9       x.v.x.D             .   .     ",
"          . / L c.D 9 .     v.b.K 9           ; u k X . . ",
"          ] %.  v.D 9 .   e n.c.G             1 ` ) p . . ",
"        y &.    J C q %   F P H w             ) O.] / + . ",
"        = =       P V q   P P F 8             X = , / p   ",
"        @ = .     A A V C I P F o       @ <   X = , > X   ",
"          = >.      H S H I J C         &.>.o.@ = , -     ",
"          @ >       0 F P I H V             - , - , +     ",
"          + >         6.z.<.H w                 , >       ",
"            @.        l | z.:.l                 =.        ",
"            &.          5.k.,.O.                :.        ",
"            &.+         0.j.w.] .             ; ;.        ",
"            &.g         9.l.q.[ ;             %.&.        ",
"            &.(       } 9.q.9.o.g .           *.%.        ",
"            %.`       v 5.8.7.O.l .           ;.$.        ",
"            #.O.+     z 1.4.2.O.l X         O.:.o.        ",
"            _ #.;     3 z c v o.k @ .     o.;.;.          ",
"              ] g 4 M B B B x +.k < .   ) *.:.O.          ",
"              _ ) a.d.g.h.f.6 3.l g .   &.;.-.            ",
"              _ h G.U.Y.Y.I.y.1.( ` . #.*.;...            ",
"              k N.B.S.G.G.Y.i.} ) ] @.&.*.&.              ",
"                H.I.Y.T.T.o V.t._ o.%.&.&.(               ",
"        $ % o 5 5 # . 5 T.T.Y.m ] @.%.&.#.                ",
"        0 8 $ $.u.y.R M b 6 Y.4 ] @.#.@.=                 ",
"              %.:.:.-.f.a.i.R n X.o.[ (                   ",
"              #.@.#.%.s.=.*.e.a.o.) l                     ",
"              D.P. .Y K.L.&.%.#.` y @                     ",
"          .   S.K.( L.U.r...;.&.o.1 .                     ",
"            . i H.( W 7 2 X :.:.& - +                     ",
"            # O.2 %.a *.&._ &.` { & - .                   ",
"            o :.%.) ' d d X       & & =                   ",
"            j #.    f ~ r t           O @                 ",
"          +       '   ~ -                 X               ",
"                ^                                         ",
"                        d                                 ",
"                                                          "
};
